<?xml version="1.0" encoding="UTF-8" standalone="no"?><svg xmlns="http://www.w3.org/2000/svg" xmlns:xlink="http://www.w3.org/1999/xlink" contentScriptType="application/ecmascript" contentStyleType="text/css" height="146px" preserveAspectRatio="none" style="width:221px;height:146px;" version="1.1" viewBox="0 0 221 146" width="221px" zoomAndPan="magnify"><defs><filter height="300%" id="fzgfgf1jd8xir" width="300%" x="-1" y="-1"><feGaussianBlur result="blurOut" stdDeviation="2.0"/><feColorMatrix in="blurOut" result="blurOut2" type="matrix" values="0 0 0 0 0 0 0 0 0 0 0 0 0 0 0 0 0 0 .4 0"/><feOffset dx="4.0" dy="4.0" in="blurOut2" result="blurOut3"/><feBlend in="SourceGraphic" in2="blurOut3" mode="normal"/></filter></defs><g><rect fill="#FEFECE" filter="url(#fzgfgf1jd8xir)" height="33.7988" style="stroke: #A80036; stroke-width: 1.5;" width="34" x="85.5" y="8"/><text fill="#000000" font-family="sans-serif" font-size="12" lengthAdjust="spacingAndGlyphs" textLength="20" x="92.5" y="21.2559">Car</text><line style="stroke: #A80036; stroke-width: 1.5;" x1="86.5" x2="118.5" y1="25.7988" y2="25.7988"/><rect fill="#FEFECE" filter="url(#fzgfgf1jd8xir)" height="33.7988" style="stroke: #A80036; stroke-width: 1.5;" width="36" x="161.5" y="8"/><text fill="#000000" font-family="sans-serif" font-size="12" lengthAdjust="spacingAndGlyphs" textLength="22" x="168.5" y="21.2559">Bus</text><line style="stroke: #A80036; stroke-width: 1.5;" x1="162.5" x2="196.5" y1="25.7988" y2="25.7988"/><rect fill="#FEFECE" filter="url(#fzgfgf1jd8xir)" height="33.7988" style="stroke: #A80036; stroke-width: 1.5;" width="35" x="6" y="102"/><text fill="#000000" font-family="sans-serif" font-size="12" lengthAdjust="spacingAndGlyphs" textLength="21" x="13" y="115.2559">Tire</text><line style="stroke: #A80036; stroke-width: 1.5;" x1="7" x2="40" y1="119.7988" y2="119.7988"/><rect fill="#FEFECE" filter="url(#fzgfgf1jd8xir)" height="33.7988" style="stroke: #A80036; stroke-width: 1.5;" width="53" x="76" y="102"/><text fill="#000000" font-family="sans-serif" font-size="12" lengthAdjust="spacingAndGlyphs" textLength="39" x="83" y="115.2559">Engine</text><line style="stroke: #A80036; stroke-width: 1.5;" x1="77" x2="128" y1="119.7988" y2="119.7988"/><rect fill="#FEFECE" filter="url(#fzgfgf1jd8xir)" height="33.7988" style="stroke: #A80036; stroke-width: 1.5;" width="46" x="164.5" y="102"/><text fill="#000000" font-family="sans-serif" font-size="12" lengthAdjust="spacingAndGlyphs" textLength="32" x="171.5" y="115.2559">Driver</text><line style="stroke: #A80036; stroke-width: 1.5;" x1="165.5" x2="209.5" y1="119.7988" y2="119.7988"/><!--link Car to Bus--><path d="M139.8034,25 C146.9565,25 154.1096,25 161.2628,25 " fill="none" id="Car-Bus" style="stroke: #A80036; stroke-width: 1.0;"/><polygon fill="none" points="139.6446,31.9999,119.6445,25,139.6445,17.9999,139.6446,31.9999" style="stroke: #A80036; stroke-width: 1.0;"/><!--link Car to Tire--><path d="M79.3112,52.5917 C65.9033,68.5455 49.4536,88.1185 37.898,101.8683 " fill="none" id="Car-Tire" style="stroke: #A80036; stroke-width: 1.0;"/><polygon fill="#A80036" points="88.0102,42.241,81.0877,44.2607,80.2895,51.4275,87.212,49.4078,88.0102,42.241" style="stroke: #A80036; stroke-width: 1.0;"/><!--link Car to Engine--><path d="M102.5,55.3873 C102.5,70.7845 102.5,88.9118 102.5,101.8683 " fill="none" id="Car-Engine" style="stroke: #A80036; stroke-width: 1.0;"/><polygon fill="#A80036" points="102.5,42.241,98.5,48.241,102.5,54.241,106.5,48.241,102.5,42.241" style="stroke: #A80036; stroke-width: 1.0;"/><!--link Bus to Driver--><path d="M182.0862,55.3873 C183.3966,70.7845 184.9393,88.9118 186.042,101.8683 " fill="none" id="Bus-Driver" style="stroke: #A80036; stroke-width: 1.0;"/><polygon fill="#FFFFFF" points="180.9673,42.241,177.4905,48.5586,181.9849,54.1978,185.4617,47.8802,180.9673,42.241" style="stroke: #A80036; stroke-width: 1.0;"/><!--
@startuml

object Car
object Bus
object Tire
object Engine
object Driver

Car <|- Bus
Car *-down- Tire
Car *-down- Engine
Bus o-down- Driver

@enduml

PlantUML version 1.2018.09(Sat Jul 28 00:58:18 CST 2018)
(GPL source distribution)
Java Runtime: OpenJDK Runtime Environment
JVM: OpenJDK 64-Bit Server VM
Java Version: 1.8.0_161-b14
Operating System: Linux
OS Version: 3.10.0-327.22.2.el7.x86_64
Default Encoding: UTF-8
Language: en
Country: US
--></g></svg>