<?xml version="1.0" encoding="UTF-8"?>
<!DOCTYPE svg PUBLIC "-//W3C//DTD SVG 1.1//EN" "http://www.w3.org/Graphics/SVG/1.1/DTD/svg11.dtd">
<svg xmlns="http://www.w3.org/2000/svg" version="1.1" width="1770px" height="564px" style="shape-rendering:geometricPrecision; text-rendering:geometricPrecision; image-rendering:optimizeQuality; fill-rule:evenodd; clip-rule:evenodd" xmlns:xlink="http://www.w3.org/1999/xlink">
<g><path style="opacity:1" fill="#fdfdfd" d="M -0.5,-0.5 C 589.5,-0.5 1179.5,-0.5 1769.5,-0.5C 1769.5,187.5 1769.5,375.5 1769.5,563.5C 1179.5,563.5 589.5,563.5 -0.5,563.5C -0.5,375.5 -0.5,187.5 -0.5,-0.5 Z"/></g>
<g><path style="opacity:1" fill="#2dc4ce" d="M 413.5,9.5 C 460.574,6.78596 496.741,25.1193 522,64.5C 547.639,117.046 539.472,163.546 497.5,204C 456.985,234.134 414.318,237.468 369.5,214C 324.816,182.969 308.649,140.802 321,87.5C 336.585,43.3068 367.418,17.3068 413.5,9.5 Z"/></g>
<g><path style="opacity:1" fill="#fdfdfd" d="M 418.5,13.5 C 454.32,12.3333 484.154,25 508,51.5C 536.497,89.656 539.83,129.989 518,172.5C 491.683,213.842 454.183,230.676 405.5,223C 352.632,208.937 324.298,174.603 320.5,120C 322.219,79.3384 340.219,48.3384 374.5,27C 388.463,19.7311 403.129,15.2311 418.5,13.5 Z"/></g>
<g><path style="opacity:1" fill="#2dc4ce" d="M 115.5,23.5 C 167.57,20.7729 205.404,42.4396 229,88.5C 235.016,102.564 238.183,117.231 238.5,132.5C 240.167,132.5 241.833,132.5 243.5,132.5C 243.5,133.5 243.5,134.5 243.5,135.5C 241.833,135.5 240.167,135.5 238.5,135.5C 235.833,180.979 214.166,213.812 173.5,234C 123.614,253.225 80.4471,243.392 44,204.5C 13.8657,163.985 10.5323,121.318 34,76.5C 53.2082,46.6429 80.3748,28.9763 115.5,23.5 Z"/></g>
<g><path style="opacity:1" fill="#fdfdfd" d="M 120.5,27.5 C 156.32,26.3333 186.154,39 210,65.5C 238.497,103.656 241.83,143.989 220,186.5C 193.683,227.842 156.183,244.676 107.5,237C 54.6315,222.937 26.2982,188.603 22.5,134C 24.2187,93.3384 42.2187,62.3384 76.5,41C 90.4628,33.7311 105.129,29.2311 120.5,27.5 Z"/></g>
<g><path style="opacity:1" fill="#36ccd6" d="M 1103.5,280.5 C 1103.83,281.167 1104.17,281.833 1104.5,282.5C 1101.09,353.49 1072.76,412.657 1019.5,460C 950.268,514.207 873.602,527.874 789.5,501C 725.337,476.503 679.837,432.669 653,369.5C 648.934,368.536 644.767,368.203 640.5,368.5C 640.5,367.5 640.5,366.5 640.5,365.5C 644.182,365.665 647.848,365.499 651.5,365C 640.954,338.894 635.62,311.728 635.5,283.5C 631.5,283.5 627.5,283.5 623.5,283.5C 623.5,282.5 623.5,281.5 623.5,280.5C 627.5,280.5 631.5,280.5 635.5,280.5C 635.389,246.614 642.389,214.28 656.5,183.5C 653.232,182.513 649.898,182.18 646.5,182.5C 646.5,181.5 646.5,180.5 646.5,179.5C 650.767,179.797 654.934,179.464 659,178.5C 690.638,116.593 739.804,75.7597 806.5,56C 884.81,36.2528 955.477,51.2528 1018.5,101C 1072.83,148.359 1101.16,208.192 1103.5,280.5 Z"/></g>
<g><path style="opacity:1" fill="#36ccd6" d="M 1299.5,282.5 C 1299.5,281.833 1299.5,281.167 1299.5,280.5C 1304.18,185.038 1348.52,114.871 1432.5,70C 1515.87,33.9625 1595.2,40.9625 1670.5,91C 1738.87,143.734 1771.04,213.567 1767,300.5C 1757.78,382.67 1717.61,444.504 1646.5,486C 1581.59,519.397 1514.92,523.397 1446.5,498C 1370.97,464.798 1323.8,407.964 1305,327.5C 1302.53,312.427 1300.69,297.427 1299.5,282.5 Z"/></g>
<g><path style="opacity:1" fill="#e12f2b" d="M 430.5,46.5 C 432.026,47.4919 432.693,48.9919 432.5,51C 432.274,54.0117 431.441,56.845 430,59.5C 425.667,65.1667 420.667,70.1667 415,74.5C 413.869,76.7249 413.036,79.0583 412.5,81.5C 414.484,86.456 416.651,91.1227 419,95.5C 414.369,91.5592 410.702,86.8926 408,81.5C 407.333,79.8333 407.333,78.1667 408,76.5C 413.041,69.7915 419.041,64.1249 426,59.5C 428.992,55.6901 430.492,51.3568 430.5,46.5 Z"/></g>
<g><path style="opacity:1" fill="#e02b28" d="M 437.5,64.5 C 438.239,64.369 438.906,64.5357 439.5,65C 433.277,67.9341 428.611,72.4341 425.5,78.5C 427.518,82.5363 429.518,86.5363 431.5,90.5C 430.678,93.8286 428.845,96.4953 426,98.5C 426.374,96.2313 426.374,93.898 426,91.5C 419.495,85.3481 418.995,78.8481 424.5,72C 428.602,68.9539 432.935,66.4539 437.5,64.5 Z"/></g>
<g><path style="opacity:1" fill="#0c0c0c" d="M 154.5,96.5 C 156.308,97.9179 156.975,99.9179 156.5,102.5C 158.833,102.5 161.167,102.5 163.5,102.5C 162.709,104.691 162.709,106.691 163.5,108.5C 165.5,108.5 167.5,108.5 169.5,108.5C 168.908,111.127 168.575,113.794 168.5,116.5C 170.167,116.5 171.833,116.5 173.5,116.5C 173.523,118.6 172.856,120.433 171.5,122C 172.688,123.944 174.354,125.444 176.5,126.5C 175.289,127.874 174.289,129.374 173.5,131C 174.833,132.333 176.167,133.667 177.5,135C 176.167,136.333 174.833,137.667 173.5,139C 174.289,140.626 175.289,142.126 176.5,143.5C 174.354,144.556 172.688,146.056 171.5,148C 172.885,149.597 173.551,151.43 173.5,153.5C 171.833,153.5 170.167,153.5 168.5,153.5C 168.575,156.206 168.908,158.873 169.5,161.5C 167.5,161.5 165.5,161.5 163.5,161.5C 163.5,162.5 163.5,163.5 163.5,164.5C 163.5,165.5 163.5,166.5 163.5,167.5C 161.167,167.5 158.833,167.5 156.5,167.5C 156.975,170.082 156.308,172.082 154.5,173.5C 150.538,172.278 148.871,173.945 149.5,178.5C 147.071,178.415 145.071,177.415 143.5,175.5C 142.05,176.655 141.05,178.155 140.5,180C 138.076,180.597 136.243,179.763 135,177.5C 133.711,179.085 132.211,180.419 130.5,181.5C 128.789,180.419 127.289,179.085 126,177.5C 124.469,178.217 123.136,179.217 122,180.5C 121.5,180.333 121,180.167 120.5,180C 119.95,178.155 118.95,176.655 117.5,175.5C 115.929,177.415 113.929,178.415 111.5,178.5C 112.175,172.718 109.841,171.051 104.5,173.5C 104.5,171.5 104.5,169.5 104.5,167.5C 102.167,167.5 99.8333,167.5 97.5,167.5C 97.5,166.5 97.5,165.5 97.5,164.5C 97.5,163.5 97.5,162.5 97.5,161.5C 95.5,161.5 93.5,161.5 91.5,161.5C 91.9926,159.194 92.3259,156.861 92.5,154.5C 90.8333,154.5 89.1667,154.5 87.5,154.5C 87.2155,152.585 87.5489,150.919 88.5,149.5C 90.0847,148.998 90.5847,147.998 90,146.5C 88.2745,145.536 86.4412,144.869 84.5,144.5C 85.0476,142.606 86.0476,140.94 87.5,139.5C 85.9029,138.209 84.5696,136.709 83.5,135C 84.5696,133.291 85.9029,131.791 87.5,130.5C 82.9832,126.39 83.6499,124.057 89.5,123.5C 89.415,121.071 88.415,119.071 86.5,117.5C 88.0225,115.717 90.0225,115.051 92.5,115.5C 92.3259,113.139 91.9926,110.806 91.5,108.5C 93.5,108.5 95.5,108.5 97.5,108.5C 98.2907,106.691 98.2907,104.691 97.5,102.5C 99.8333,102.5 102.167,102.5 104.5,102.5C 104.5,100.5 104.5,98.5 104.5,96.5C 106.5,96.8333 108.5,97.1667 110.5,97.5C 110.833,95.5 111.167,93.5 111.5,91.5C 113.929,91.585 115.929,92.585 117.5,94.5C 118.657,92.322 119.99,90.322 121.5,88.5C 123.167,89.8333 124.833,91.1667 126.5,92.5C 129.749,87.1752 132.583,87.5085 135,93.5C 136.026,90.3072 138.192,88.9738 141.5,89.5C 141.383,91.4835 142.05,93.1502 143.5,94.5C 145.071,92.585 147.071,91.585 149.5,91.5C 149.133,95.881 150.799,97.5476 154.5,96.5 Z"/></g>
<g><path style="opacity:1" fill="#dfdfdf" d="M 128.5,96.5 C 132.138,95.7366 133.638,97.0699 133,100.5C 128.415,102.413 126.915,101.079 128.5,96.5 Z"/></g>
<g><path style="opacity:1" fill="#2b71b6" d="M 444.5,95.5 C 450.288,94.7383 453.954,97.0717 455.5,102.5C 454.85,105.655 453.183,108.155 450.5,110C 447.5,111.5 444.5,113 441.5,114.5C 440.304,114.154 440.304,113.654 441.5,113C 446.396,110.939 449.729,107.439 451.5,102.5C 451.24,100.813 450.573,99.3129 449.5,98C 447.167,97.6667 444.833,97.3333 442.5,97C 443.416,96.7216 444.082,96.2216 444.5,95.5 Z"/></g>
<g><path style="opacity:1" fill="#727272" d="M 104.5,96.5 C 104.5,98.5 104.5,100.5 104.5,102.5C 102.167,102.5 99.8333,102.5 97.5,102.5C 98.2907,104.691 98.2907,106.691 97.5,108.5C 96.7814,106.236 96.448,103.903 96.5,101.5C 98.8333,101.5 101.167,101.5 103.5,101.5C 103.216,99.5853 103.549,97.9187 104.5,96.5 Z"/></g>
<g><path style="opacity:1" fill="#efefef" d="M 164.5,131.5 C 164.5,133.167 164.5,134.833 164.5,136.5C 162.901,136.232 161.568,136.566 160.5,137.5C 160.862,144.004 158.362,145.671 153,142.5C 152.257,138.921 150.757,135.754 148.5,133C 149.608,130.888 151.108,129.054 153,127.5C 153.667,124.5 153.667,121.5 153,118.5C 151.127,116.291 148.96,114.458 146.5,113C 132.902,111.72 119.235,111.054 105.5,111C 110.304,105.845 116.138,102.345 123,100.5C 125.033,103.027 127.533,105.027 130.5,106.5C 132.29,105.214 133.957,103.714 135.5,102C 146.492,103.006 154.826,108.339 160.5,118C 155.389,124.693 156.722,129.193 164.5,131.5 Z"/></g>
<g><path style="opacity:1" fill="#777777" d="M 154.5,96.5 C 155.209,95.596 156.209,95.2627 157.5,95.5C 157.5,97.5 157.5,99.5 157.5,101.5C 159.833,101.5 162.167,101.5 164.5,101.5C 164.552,103.903 164.219,106.236 163.5,108.5C 162.709,106.691 162.709,104.691 163.5,102.5C 161.167,102.5 158.833,102.5 156.5,102.5C 156.975,99.9179 156.308,97.9179 154.5,96.5 Z"/></g>
<g><path style="opacity:1" fill="#226db6" d="M 403.5,96.5 C 405.199,96.3398 406.866,96.5065 408.5,97C 406.212,97.8221 403.878,98.4888 401.5,99C 400.167,100 400.167,101 401.5,102C 413.876,102.366 426.209,102.032 438.5,101C 434.668,102.625 430.668,103.625 426.5,104C 415.76,104.928 405.093,104.595 394.5,103C 393.549,102.282 393.383,101.449 394,100.5C 397.193,98.9796 400.36,97.6462 403.5,96.5 Z"/></g>
<g><path style="opacity:1" fill="#2d71b6" d="M 403.5,107.5 C 403.974,108.95 405.307,110.117 407.5,111C 415.759,111.867 423.925,111.367 432,109.5C 433.49,110.317 434.99,111.15 436.5,112C 428.026,114.591 419.359,115.591 410.5,115C 406.924,114.81 403.758,113.643 401,111.5C 400.333,110.833 400.333,110.167 401,109.5C 401.995,108.934 402.828,108.267 403.5,107.5 Z"/></g>
<g><path style="opacity:1" fill="#256db3" d="M 404.5,118.5 C 412.537,120.738 420.704,121.072 429,119.5C 430.893,120.196 432.726,121.03 434.5,122C 424.581,126.361 414.581,126.527 404.5,122.5C 403.374,121.192 403.374,119.858 404.5,118.5 Z"/></g>
<g><path style="opacity:1" fill="#d0d0d0" d="M 95.5,121.5 C 99.35,121.701 100.35,123.534 98.5,127C 94.5369,127.118 93.5369,125.284 95.5,121.5 Z"/></g>
<g><path style="opacity:1" fill="#fafafa" d="M 97.5,143.5 C 96.3661,139.164 96.3661,134.831 97.5,130.5C 99.0754,129.544 100.742,128.877 102.5,128.5C 103.999,127.322 104.999,125.655 105.5,123.5C 106.497,130.134 106.83,136.8 106.5,143.5C 103.5,143.5 100.5,143.5 97.5,143.5 Z"/></g>
<g><path style="opacity:1" fill="#a0a0a0" d="M 97.5,143.5 C 100.5,143.5 103.5,143.5 106.5,143.5C 106.83,136.8 106.497,130.134 105.5,123.5C 104.999,125.655 103.999,127.322 102.5,128.5C 103.438,126.244 103.438,123.91 102.5,121.5C 104.167,121.5 105.833,121.5 107.5,121.5C 107.5,129.167 107.5,136.833 107.5,144.5C 103.958,144.813 100.625,144.479 97.5,143.5 Z"/></g>
<g><path style="opacity:1" fill="#ececec" d="M 123.5,122.5 C 127.846,122.334 132.179,122.501 136.5,123C 139.362,125.558 139.029,127.391 135.5,128.5C 131.5,128.5 127.5,128.5 123.5,128.5C 123.5,126.5 123.5,124.5 123.5,122.5 Z"/></g>
<g><path style="opacity:1" fill="#bdbdbd" d="M 161.5,121.5 C 166.159,121.015 167.492,122.848 165.5,127C 161.135,127.446 159.802,125.613 161.5,121.5 Z"/></g>
<g><path style="opacity:1" fill="#626262" d="M 123.5,122.5 C 123.5,124.5 123.5,126.5 123.5,128.5C 127.5,128.5 131.5,128.5 135.5,128.5C 131.366,129.485 127.032,129.818 122.5,129.5C 122.198,126.941 122.532,124.607 123.5,122.5 Z"/></g>
<g><path style="opacity:1" fill="#01bec9" d="M 252.5,132.5 C 256.5,132.5 260.5,132.5 264.5,132.5C 264.5,133.5 264.5,134.5 264.5,135.5C 260.5,135.5 256.5,135.5 252.5,135.5C 252.5,134.5 252.5,133.5 252.5,132.5 Z"/></g>
<g><path style="opacity:1" fill="#01bec9" d="M 273.5,132.5 C 277.5,132.5 281.5,132.5 285.5,132.5C 285.5,133.5 285.5,134.5 285.5,135.5C 281.5,135.5 277.5,135.5 273.5,135.5C 273.5,134.5 273.5,133.5 273.5,132.5 Z"/></g>
<g><path style="opacity:1" fill="#3174b9" d="M 393.5,124.5 C 395.527,124.338 397.527,124.505 399.5,125C 389.025,127.444 389.025,129.444 399.5,131C 415.597,132.133 431.597,131.466 447.5,129C 448.849,128.228 449.682,127.061 450,125.5C 452.021,127.651 451.521,129.151 448.5,130C 444.877,131.156 441.211,132.156 437.5,133C 420.759,135.309 404.093,134.976 387.5,132C 386.572,131.612 385.905,130.945 385.5,130C 387.785,127.529 390.451,125.696 393.5,124.5 Z"/></g>
<g><path style="opacity:1" fill="#919191" d="M 164.5,131.5 C 165.461,133.265 165.795,135.265 165.5,137.5C 163.833,137.5 162.167,137.5 160.5,137.5C 161.568,136.566 162.901,136.232 164.5,136.5C 164.5,134.833 164.5,133.167 164.5,131.5 Z"/></g>
<g><path style="opacity:1" fill="#3377b9" d="M 454.5,130.5 C 455.525,130.897 455.692,131.563 455,132.5C 447.818,136.733 439.985,138.899 431.5,139C 420.389,139.995 409.389,139.328 398.5,137C 409.801,137.55 421.135,137.55 432.5,137C 437.594,136.476 442.594,135.476 447.5,134C 450.281,133.478 452.615,132.311 454.5,130.5 Z"/></g>
<g><path style="opacity:1" fill="#f4f4f4" d="M 142.5,154.5 C 147.421,154.862 152.087,155.862 156.5,157.5C 153.06,158.041 149.726,158.374 146.5,158.5C 145.587,160.933 144.587,163.433 143.5,166C 140.621,166.546 137.954,167.379 135.5,168.5C 129.378,168.732 123.378,168.065 117.5,166.5C 116.009,164.129 115.009,161.462 114.5,158.5C 111.112,157.973 107.779,157.64 104.5,157.5C 113.105,155.529 122.105,154.862 131.5,155.5C 131.5,151.833 131.5,148.167 131.5,144.5C 128.833,144.5 126.167,144.5 123.5,144.5C 122.539,142.735 122.205,140.735 122.5,138.5C 126.514,138.334 130.514,138.501 134.5,139C 136.7,142.295 138.034,145.962 138.5,150C 139.704,151.699 141.038,153.199 142.5,154.5 Z"/></g>
<g><path style="opacity:1" fill="#01bec9" d="M 284.5,142.5 C 285.5,142.5 286.5,142.5 287.5,142.5C 287.5,146.5 287.5,150.5 287.5,154.5C 286.5,154.5 285.5,154.5 284.5,154.5C 284.5,150.5 284.5,146.5 284.5,142.5 Z"/></g>
<g><path style="opacity:1" fill="#777777" d="M 84.5,144.5 C 86.4412,144.869 88.2745,145.536 90,146.5C 90.5847,147.998 90.0847,148.998 88.5,149.5C 88.5,148.5 88.5,147.5 88.5,146.5C 86.6203,146.771 85.287,146.104 84.5,144.5 Z"/></g>
<g><path style="opacity:1" fill="#e1332d" d="M 387.5,145.5 C 389.167,145.5 390.833,145.5 392.5,145.5C 392.666,155.839 392.5,166.172 392,176.5C 390.636,179.363 388.47,181.363 385.5,182.5C 384.713,181.758 384.047,180.925 383.5,180C 385,179.167 386.167,178 387,176.5C 387.5,166.172 387.666,155.839 387.5,145.5 Z"/></g>
<g><path style="opacity:1" fill="#ee8c8c" d="M 420.5,153.5 C 418.901,153.232 417.568,153.566 416.5,154.5C 415.957,154.44 415.624,154.107 415.5,153.5C 417.299,152.212 418.965,152.212 420.5,153.5 Z"/></g>
<g><path style="opacity:1" fill="#e23530" d="M 400.5,152.5 C 404.839,151.846 408.673,152.846 412,155.5C 413.416,161.715 413.916,168.048 413.5,174.5C 411.549,174.773 410.049,174.107 409,172.5C 404.199,176.749 399.866,176.416 396,171.5C 396.295,163.728 400.462,160.394 408.5,161.5C 408.714,159.856 408.38,158.356 407.5,157C 404.24,156.216 401.073,156.383 398,157.5C 397.294,155.045 398.127,153.378 400.5,152.5 Z"/></g>
<g><path style="opacity:1" fill="#e1302c" d="M 441.5,152.5 C 445.257,152.071 448.757,152.737 452,154.5C 453.42,161.05 453.92,167.716 453.5,174.5C 451.738,174.643 450.071,174.309 448.5,173.5C 444.363,176.37 440.529,176.037 437,172.5C 436.153,169.412 436.653,166.579 438.5,164C 441.923,162.096 445.59,161.263 449.5,161.5C 449.579,160.07 449.246,158.736 448.5,157.5C 444.846,156.669 441.346,156.335 438,156.5C 437.333,155.833 437.333,155.167 438,154.5C 439.302,153.915 440.469,153.249 441.5,152.5 Z"/></g>
<g><path style="opacity:1" fill="#707070" d="M 123.5,144.5 C 126.167,144.5 128.833,144.5 131.5,144.5C 131.5,148.167 131.5,151.833 131.5,155.5C 122.105,154.862 113.105,155.529 104.5,157.5C 103.596,156.791 103.263,155.791 103.5,154.5C 112.5,154.5 121.5,154.5 130.5,154.5C 130.5,151.5 130.5,148.5 130.5,145.5C 127.941,145.802 125.607,145.468 123.5,144.5 Z"/></g>
<g><path style="opacity:1" fill="#7d7d7d" d="M 142.5,154.5 C 147.5,154.5 152.5,154.5 157.5,154.5C 157.737,155.791 157.404,156.791 156.5,157.5C 152.087,155.862 147.421,154.862 142.5,154.5 Z"/></g>
<g><path style="opacity:1" fill="#e02927" d="M 420.5,153.5 C 422.329,158.809 424.163,164.143 426,169.5C 427.743,164.283 428.91,158.95 429.5,153.5C 431.167,153.5 432.833,153.5 434.5,153.5C 433.18,159.962 431.347,166.295 429,172.5C 426.975,174.725 424.642,175.059 422,173.5C 419.696,167.283 417.863,160.949 416.5,154.5C 417.568,153.566 418.901,153.232 420.5,153.5 Z"/></g>
<g><path style="opacity:1" fill="#e4e4e4" d="M 107.5,161.5 C 108.833,161.5 110.167,161.5 111.5,161.5C 111.5,163.167 111.5,164.833 111.5,166.5C 110.167,166.5 108.833,166.5 107.5,166.5C 107.5,164.833 107.5,163.167 107.5,161.5 Z"/></g>
<g><path style="opacity:1" fill="#e3e3e3" d="M 148.5,161.5 C 150.167,161.5 151.833,161.5 153.5,161.5C 154.169,165.676 152.669,167.009 149,165.5C 148.51,164.207 148.343,162.873 148.5,161.5 Z"/></g>
<g><path style="opacity:1" fill="#01bec9" d="M 284.5,163.5 C 285.5,163.5 286.5,163.5 287.5,163.5C 287.5,167.5 287.5,171.5 287.5,175.5C 286.5,175.5 285.5,175.5 284.5,175.5C 284.5,171.5 284.5,167.5 284.5,163.5 Z"/></g>
<g><path style="opacity:1" fill="#747474" d="M 97.5,164.5 C 97.5,165.5 97.5,166.5 97.5,167.5C 99.8333,167.5 102.167,167.5 104.5,167.5C 104.5,169.5 104.5,171.5 104.5,173.5C 103.549,172.081 103.216,170.415 103.5,168.5C 101.167,168.5 98.8333,168.5 96.5,168.5C 96.2322,166.901 96.5655,165.568 97.5,164.5 Z"/></g>
<g><path style="opacity:1" fill="#525252" d="M 146.5,158.5 C 146.658,161.545 145.991,164.379 144.5,167C 141.568,167.953 138.568,168.453 135.5,168.5C 137.954,167.379 140.621,166.546 143.5,166C 144.587,163.433 145.587,160.933 146.5,158.5 Z"/></g>
<g><path style="opacity:1" fill="#fdf8f8" d="M 403.5,164.5 C 405.167,164.5 406.833,164.5 408.5,164.5C 409.487,170.331 407.154,172.498 401.5,171C 399.933,168.094 400.6,165.928 403.5,164.5 Z"/></g>
<g><path style="opacity:1" fill="#fcefef" d="M 443.5,164.5 C 445.5,164.5 447.5,164.5 449.5,164.5C 450,170.329 447.334,172.663 441.5,171.5C 441.166,168.812 441.832,166.479 443.5,164.5 Z"/></g>
<g><path style="opacity:1" fill="#707070" d="M 117.5,166.5 C 123.378,168.065 129.378,168.732 135.5,168.5C 129.272,170.147 123.272,169.48 117.5,166.5 Z"/></g>
<g><path style="opacity:1" fill="#6a6a6a" d="M 163.5,164.5 C 164.434,165.568 164.768,166.901 164.5,168.5C 162.167,168.5 159.833,168.5 157.5,168.5C 157.5,170.5 157.5,172.5 157.5,174.5C 156.209,174.737 155.209,174.404 154.5,173.5C 156.308,172.082 156.975,170.082 156.5,167.5C 158.833,167.5 161.167,167.5 163.5,167.5C 163.5,166.5 163.5,165.5 163.5,164.5 Z"/></g>
<g><path style="opacity:1" fill="#0abfca" d="M 520.5,179.5 C 524.5,179.5 528.5,179.5 532.5,179.5C 532.5,180.5 532.5,181.5 532.5,182.5C 528.5,182.5 524.5,182.5 520.5,182.5C 520.5,181.5 520.5,180.5 520.5,179.5 Z"/></g>
<g><path style="opacity:1" fill="#0abfca" d="M 541.5,179.5 C 545.5,179.5 549.5,179.5 553.5,179.5C 553.5,180.5 553.5,181.5 553.5,182.5C 549.5,182.5 545.5,182.5 541.5,182.5C 541.5,181.5 541.5,180.5 541.5,179.5 Z"/></g>
<g><path style="opacity:1" fill="#0abfca" d="M 562.5,179.5 C 566.5,179.5 570.5,179.5 574.5,179.5C 574.5,180.5 574.5,181.5 574.5,182.5C 570.5,182.5 566.5,182.5 562.5,182.5C 562.5,181.5 562.5,180.5 562.5,179.5 Z"/></g>
<g><path style="opacity:1" fill="#0abfca" d="M 583.5,179.5 C 587.5,179.5 591.5,179.5 595.5,179.5C 595.5,180.5 595.5,181.5 595.5,182.5C 591.5,182.5 587.5,182.5 583.5,182.5C 583.5,181.5 583.5,180.5 583.5,179.5 Z"/></g>
<g><path style="opacity:1" fill="#0abfca" d="M 604.5,179.5 C 608.5,179.5 612.5,179.5 616.5,179.5C 616.5,180.5 616.5,181.5 616.5,182.5C 612.5,182.5 608.5,182.5 604.5,182.5C 604.5,181.5 604.5,180.5 604.5,179.5 Z"/></g>
<g><path style="opacity:1" fill="#0abfca" d="M 625.5,179.5 C 629.5,179.5 633.5,179.5 637.5,179.5C 637.5,180.5 637.5,181.5 637.5,182.5C 633.5,182.5 629.5,182.5 625.5,182.5C 625.5,181.5 625.5,180.5 625.5,179.5 Z"/></g>
<g><path style="opacity:1" fill="#01bec9" d="M 284.5,184.5 C 285.5,184.5 286.5,184.5 287.5,184.5C 287.5,188.5 287.5,192.5 287.5,196.5C 286.5,196.5 285.5,196.5 284.5,196.5C 284.5,192.5 284.5,188.5 284.5,184.5 Z"/></g>
<g><path style="opacity:1" fill="#01bec9" d="M 284.5,205.5 C 285.5,205.5 286.5,205.5 287.5,205.5C 287.5,209.5 287.5,213.5 287.5,217.5C 286.5,217.5 285.5,217.5 284.5,217.5C 284.5,213.5 284.5,209.5 284.5,205.5 Z"/></g>
<g><path style="opacity:1" fill="#01bec9" d="M 284.5,226.5 C 285.5,226.5 286.5,226.5 287.5,226.5C 287.5,230.5 287.5,234.5 287.5,238.5C 286.5,238.5 285.5,238.5 284.5,238.5C 284.5,234.5 284.5,230.5 284.5,226.5 Z"/></g>
<g><path style="opacity:1" fill="#5e5e5e" d="M 1179.5,238.5 C 1181.12,238.36 1182.29,239.027 1183,240.5C 1184.44,238.845 1186.28,238.178 1188.5,238.5C 1188.5,239.5 1188.5,240.5 1188.5,241.5C 1185.71,241.452 1183.87,242.785 1183,245.5C 1182.5,248.817 1182.33,252.15 1182.5,255.5C 1181.5,255.5 1180.5,255.5 1179.5,255.5C 1179.5,249.833 1179.5,244.167 1179.5,238.5 Z"/></g>
<g><path style="opacity:1" fill="#5a5a5a" d="M 1190.5,238.5 C 1194.41,238.838 1198.41,239.005 1202.5,239C 1207.77,244.407 1207.77,249.74 1202.5,255C 1199.77,255.728 1197.1,255.562 1194.5,254.5C 1193.53,256.743 1193.19,259.076 1193.5,261.5C 1192.5,261.5 1191.5,261.5 1190.5,261.5C 1190.5,253.833 1190.5,246.167 1190.5,238.5 Z"/></g>
<g><path style="opacity:1" fill="#5e5e5e" d="M 1212.5,238.5 C 1215.19,238.336 1217.85,238.503 1220.5,239C 1222.61,240.264 1223.61,242.097 1223.5,244.5C 1221.01,243.871 1218.68,242.871 1216.5,241.5C 1213.15,241.668 1211.48,243.501 1211.5,247C 1211.93,252.089 1214.59,253.756 1219.5,252C 1220.31,250.294 1221.64,249.461 1223.5,249.5C 1223.61,251.903 1222.61,253.736 1220.5,255C 1211.33,256.5 1207.5,252.667 1209,243.5C 1210,241.677 1211.16,240.01 1212.5,238.5 Z"/></g>
<g><path style="opacity:1" fill="#f9fcfd" d="M 1021.5,241.5 C 1044.34,238.499 1059.51,247.832 1067,269.5C 1069.04,282.263 1067.04,294.263 1061,305.5C 1047.68,322.415 1031.18,326.249 1011.5,317C 1001.87,311.165 996.041,302.665 994,291.5C 992.179,279.154 994.012,267.487 999.5,256.5C 1005.34,248.935 1012.68,243.935 1021.5,241.5 Z"/></g>
<g><path style="opacity:1" fill="#f4f4f4" d="M 1195.5,241.5 C 1203.26,241.503 1205.26,245.003 1201.5,252C 1193.57,252.326 1191.57,248.826 1195.5,241.5 Z"/></g>
<g><path style="opacity:1" fill="#1cc2cd" d="M 287.5,244.5 C 291.5,244.5 295.5,244.5 299.5,244.5C 299.5,245.5 299.5,246.5 299.5,247.5C 295.5,247.5 291.5,247.5 287.5,247.5C 287.5,246.5 287.5,245.5 287.5,244.5 Z"/></g>
<g><path style="opacity:1" fill="#1cc2cd" d="M 308.5,244.5 C 312.5,244.5 316.5,244.5 320.5,244.5C 320.5,245.5 320.5,246.5 320.5,247.5C 316.5,247.5 312.5,247.5 308.5,247.5C 308.5,246.5 308.5,245.5 308.5,244.5 Z"/></g>
<g><path style="opacity:1" fill="#1cc2cd" d="M 329.5,244.5 C 333.5,244.5 337.5,244.5 341.5,244.5C 341.5,245.5 341.5,246.5 341.5,247.5C 337.5,247.5 333.5,247.5 329.5,247.5C 329.5,246.5 329.5,245.5 329.5,244.5 Z"/></g>
<g><path style="opacity:1" fill="#1cc2cd" d="M 350.5,244.5 C 354.5,244.5 358.5,244.5 362.5,244.5C 362.5,245.5 362.5,246.5 362.5,247.5C 358.5,247.5 354.5,247.5 350.5,247.5C 350.5,246.5 350.5,245.5 350.5,244.5 Z"/></g>
<g><path style="opacity:1" fill="#1cc2cd" d="M 371.5,244.5 C 375.5,244.5 379.5,244.5 383.5,244.5C 383.5,245.5 383.5,246.5 383.5,247.5C 379.5,247.5 375.5,247.5 371.5,247.5C 371.5,246.5 371.5,245.5 371.5,244.5 Z"/></g>
<g><path style="opacity:1" fill="#1cc2cd" d="M 392.5,244.5 C 396.5,244.5 400.5,244.5 404.5,244.5C 404.5,245.5 404.5,246.5 404.5,247.5C 400.5,247.5 396.5,247.5 392.5,247.5C 392.5,246.5 392.5,245.5 392.5,244.5 Z"/></g>
<g><path style="opacity:1" fill="#1cc2cd" d="M 413.5,244.5 C 417.5,244.5 421.5,244.5 425.5,244.5C 425.5,245.5 425.5,246.5 425.5,247.5C 421.5,247.5 417.5,247.5 413.5,247.5C 413.5,246.5 413.5,245.5 413.5,244.5 Z"/></g>
<g><path style="opacity:1" fill="#1cc2cd" d="M 434.5,244.5 C 438.5,244.5 442.5,244.5 446.5,244.5C 446.5,245.5 446.5,246.5 446.5,247.5C 442.5,247.5 438.5,247.5 434.5,247.5C 434.5,246.5 434.5,245.5 434.5,244.5 Z"/></g>
<g><path style="opacity:1" fill="#1cc2cd" d="M 455.5,244.5 C 459.5,244.5 463.5,244.5 467.5,244.5C 467.5,245.5 467.5,246.5 467.5,247.5C 463.5,247.5 459.5,247.5 455.5,247.5C 455.5,246.5 455.5,245.5 455.5,244.5 Z"/></g>
<g><path style="opacity:1" fill="#1cc2cd" d="M 476.5,244.5 C 480.5,244.5 484.5,244.5 488.5,244.5C 488.5,245.5 488.5,246.5 488.5,247.5C 484.5,247.5 480.5,247.5 476.5,247.5C 476.5,246.5 476.5,245.5 476.5,244.5 Z"/></g>
<g><path style="opacity:1" fill="#1cc2cd" d="M 497.5,244.5 C 501.5,244.5 505.5,244.5 509.5,244.5C 509.5,245.5 509.5,246.5 509.5,247.5C 505.5,247.5 501.5,247.5 497.5,247.5C 497.5,246.5 497.5,245.5 497.5,244.5 Z"/></g>
<g><path style="opacity:1" fill="#1cc2cd" d="M 518.5,244.5 C 522.5,244.5 526.5,244.5 530.5,244.5C 530.5,245.5 530.5,246.5 530.5,247.5C 526.5,247.5 522.5,247.5 518.5,247.5C 518.5,246.5 518.5,245.5 518.5,244.5 Z"/></g>
<g><path style="opacity:1" fill="#1cc2cd" d="M 539.5,244.5 C 543.5,244.5 547.5,244.5 551.5,244.5C 551.5,245.5 551.5,246.5 551.5,247.5C 547.5,247.5 543.5,247.5 539.5,247.5C 539.5,246.5 539.5,245.5 539.5,244.5 Z"/></g>
<g><path style="opacity:1" fill="#1cc2cd" d="M 560.5,244.5 C 564.5,244.5 568.5,244.5 572.5,244.5C 572.5,245.5 572.5,246.5 572.5,247.5C 568.5,247.5 564.5,247.5 560.5,247.5C 560.5,246.5 560.5,245.5 560.5,244.5 Z"/></g>
<g><path style="opacity:1" fill="#1cc2cd" d="M 581.5,244.5 C 585.5,244.5 589.5,244.5 593.5,244.5C 593.5,245.5 593.5,246.5 593.5,247.5C 589.5,247.5 585.5,247.5 581.5,247.5C 581.5,246.5 581.5,245.5 581.5,244.5 Z"/></g>
<g><path style="opacity:1" fill="#1cc2cd" d="M 602.5,244.5 C 606.5,244.5 610.5,244.5 614.5,244.5C 614.5,245.5 614.5,246.5 614.5,247.5C 610.5,247.5 606.5,247.5 602.5,247.5C 602.5,246.5 602.5,245.5 602.5,244.5 Z"/></g>
<g><path style="opacity:1" fill="#1cc2cd" d="M 623.5,244.5 C 627.5,244.5 631.5,244.5 635.5,244.5C 635.5,245.5 635.5,246.5 635.5,247.5C 631.5,247.5 627.5,247.5 623.5,247.5C 623.5,246.5 623.5,245.5 623.5,244.5 Z"/></g>
<g><path style="opacity:1" fill="#fafdfd" d="M 691.5,243.5 C 705.504,243.333 719.504,243.5 733.5,244C 749.476,250.481 757.476,262.481 757.5,280C 758.035,298.426 750.035,311.426 733.5,319C 719.504,319.5 705.504,319.667 691.5,319.5C 691.5,294.167 691.5,268.833 691.5,243.5 Z"/></g>
<g><path style="opacity:1" fill="#fcfdfd" d="M 828.5,303.5 C 823.326,315.899 813.826,321.899 800,321.5C 792.367,320.971 785.2,318.804 778.5,315C 775.881,312.879 773.881,310.379 772.5,307.5C 771.705,305.505 771.039,303.505 770.5,301.5C 770.5,282.5 770.5,263.5 770.5,244.5C 789.833,244.5 809.167,244.5 828.5,244.5C 828.5,264.167 828.5,283.833 828.5,303.5 Z"/></g>
<g><path style="opacity:1" fill="#fbfdfd" d="M 893.5,245.5 C 907.058,254.137 909.058,265.137 899.5,278.5C 907.095,285.561 909.595,294.228 907,304.5C 904.287,309.71 900.454,313.71 895.5,316.5C 893.571,316.231 891.905,316.731 890.5,318C 876.171,318.5 861.837,318.667 847.5,318.5C 847.5,293.833 847.5,269.167 847.5,244.5C 862.881,244.198 878.215,244.531 893.5,245.5 Z"/></g>
<g><path style="opacity:1" fill="#fbfdfd" d="M 970.5,246.5 C 978.925,251.356 982.091,258.689 980,268.5C 978.97,271.871 977.47,275.038 975.5,278C 977.869,281.902 980.369,285.735 983,289.5C 985.325,303.664 979.825,313.331 966.5,318.5C 951.833,318.5 937.167,318.5 922.5,318.5C 922.5,293.833 922.5,269.167 922.5,244.5C 938.61,243.96 954.61,244.626 970.5,246.5 Z"/></g>
<g><path style="opacity:1" fill="#f9fcfd" d="M 1683.5,244.5 C 1706.34,241.499 1721.51,250.832 1729,272.5C 1731.04,285.263 1729.04,297.263 1723,308.5C 1709.68,325.415 1693.18,329.249 1673.5,320C 1663.87,314.165 1658.04,305.665 1656,294.5C 1654.18,282.154 1656.01,270.487 1661.5,259.5C 1667.34,251.935 1674.68,246.935 1683.5,244.5 Z"/></g>
<g><path style="opacity:1" fill="#ddf6f8" d="M 828.5,303.5 C 828.5,283.833 828.5,264.167 828.5,244.5C 809.167,244.5 789.833,244.5 770.5,244.5C 770.5,263.5 770.5,282.5 770.5,301.5C 769.503,282.341 769.17,263.007 769.5,243.5C 789.5,243.5 809.5,243.5 829.5,243.5C 829.83,263.674 829.497,283.674 828.5,303.5 Z"/></g>
<g><path style="opacity:1" fill="#d5f5f6" d="M 970.5,246.5 C 954.61,244.626 938.61,243.96 922.5,244.5C 922.5,269.167 922.5,293.833 922.5,318.5C 937.167,318.5 951.833,318.5 966.5,318.5C 951.676,319.496 936.676,319.829 921.5,319.5C 921.5,294.167 921.5,268.833 921.5,243.5C 936.837,243.333 952.17,243.5 967.5,244C 968.571,244.852 969.571,245.685 970.5,246.5 Z"/></g>
<g><path style="opacity:1" fill="#fafdfd" d="M 1353.5,246.5 C 1367.5,246.333 1381.5,246.5 1395.5,247C 1411.48,253.481 1419.48,265.481 1419.5,283C 1420.03,301.426 1412.03,314.426 1395.5,322C 1381.5,322.5 1367.5,322.667 1353.5,322.5C 1353.5,297.167 1353.5,271.833 1353.5,246.5 Z"/></g>
<g><path style="opacity:1" fill="#fcfdfd" d="M 1490.5,306.5 C 1485.33,318.899 1475.83,324.899 1462,324.5C 1454.37,323.971 1447.2,321.804 1440.5,318C 1437.88,315.879 1435.88,313.379 1434.5,310.5C 1433.71,308.505 1433.04,306.505 1432.5,304.5C 1432.5,285.5 1432.5,266.5 1432.5,247.5C 1451.83,247.5 1471.17,247.5 1490.5,247.5C 1490.5,267.167 1490.5,286.833 1490.5,306.5 Z"/></g>
<g><path style="opacity:1" fill="#fbfdfd" d="M 1555.5,248.5 C 1569.06,257.137 1571.06,268.137 1561.5,281.5C 1569.09,288.561 1571.59,297.228 1569,307.5C 1566.29,312.71 1562.45,316.71 1557.5,319.5C 1555.57,319.231 1553.9,319.731 1552.5,321C 1538.17,321.5 1523.84,321.667 1509.5,321.5C 1509.5,296.833 1509.5,272.167 1509.5,247.5C 1524.88,247.198 1540.21,247.531 1555.5,248.5 Z"/></g>
<g><path style="opacity:1" fill="#fbfdfd" d="M 1632.5,249.5 C 1640.92,254.356 1644.09,261.689 1642,271.5C 1640.97,274.871 1639.47,278.038 1637.5,281C 1639.87,284.902 1642.37,288.735 1645,292.5C 1647.33,306.664 1641.83,316.331 1628.5,321.5C 1613.83,321.5 1599.17,321.5 1584.5,321.5C 1584.5,296.833 1584.5,272.167 1584.5,247.5C 1600.61,246.96 1616.61,247.626 1632.5,249.5 Z"/></g>
<g><path style="opacity:1" fill="#ddf6f8" d="M 1490.5,306.5 C 1490.5,286.833 1490.5,267.167 1490.5,247.5C 1471.17,247.5 1451.83,247.5 1432.5,247.5C 1432.5,266.5 1432.5,285.5 1432.5,304.5C 1431.5,285.341 1431.17,266.007 1431.5,246.5C 1451.5,246.5 1471.5,246.5 1491.5,246.5C 1491.83,266.674 1491.5,286.674 1490.5,306.5 Z"/></g>
<g><path style="opacity:1" fill="#d5f5f6" d="M 1632.5,249.5 C 1616.61,247.626 1600.61,246.96 1584.5,247.5C 1584.5,272.167 1584.5,296.833 1584.5,321.5C 1599.17,321.5 1613.83,321.5 1628.5,321.5C 1613.68,322.496 1598.68,322.829 1583.5,322.5C 1583.5,297.167 1583.5,271.833 1583.5,246.5C 1598.84,246.333 1614.17,246.5 1629.5,247C 1630.57,247.852 1631.57,248.685 1632.5,249.5 Z"/></g>
<g><path style="opacity:1" fill="#53d2db" d="M 714.5,254.5 C 718.833,254.5 723.167,254.5 727.5,254.5C 727.5,256.833 727.5,259.167 727.5,261.5C 724.833,261.5 722.167,261.5 719.5,261.5C 719.5,274.833 719.5,288.167 719.5,301.5C 722.167,301.5 724.833,301.5 727.5,301.5C 727.5,303.833 727.5,306.167 727.5,308.5C 722.456,308.827 717.456,308.494 712.5,307.5C 710.703,305.869 709.536,303.869 709,301.5C 708.333,287.167 708.333,272.833 709,258.5C 710.793,256.975 712.626,255.642 714.5,254.5 Z"/></g>
<g><path style="opacity:1" fill="#50d1da" d="M 880.5,254.5 C 883.167,254.5 885.833,254.5 888.5,254.5C 881.272,271.445 874.106,288.445 867,305.5C 864.865,307.278 862.365,307.945 859.5,307.5C 865.906,289.618 872.906,271.952 880.5,254.5 Z"/></g>
<g><path style="opacity:1" fill="#50d2da" d="M 955.5,254.5 C 958.167,254.5 960.833,254.5 963.5,254.5C 963.997,258.162 962.831,261.162 960,263.5C 954.285,278.024 948.118,292.358 941.5,306.5C 939.604,307.466 937.604,307.799 935.5,307.5C 935.338,305.473 935.505,303.473 936,301.5C 943.077,286.02 949.577,270.354 955.5,254.5 Z"/></g>
<g><path style="opacity:1" fill="#40ced8" d="M 1021.5,255.5 C 1026.18,255.334 1030.85,255.501 1035.5,256C 1036.67,257.167 1037.83,258.333 1039,259.5C 1039.83,274.178 1039.67,288.845 1038.5,303.5C 1037.5,304.5 1036.5,305.5 1035.5,306.5C 1030.88,307.493 1026.21,307.827 1021.5,307.5C 1021.5,305.833 1021.5,304.167 1021.5,302.5C 1024.27,302.78 1026.77,302.113 1029,300.5C 1029.67,288.167 1029.67,275.833 1029,263.5C 1026.86,261.722 1024.36,261.055 1021.5,261.5C 1021.5,259.5 1021.5,257.5 1021.5,255.5 Z"/></g>
<g><path style="opacity:1" fill="#53d2db" d="M 1376.5,257.5 C 1380.83,257.5 1385.17,257.5 1389.5,257.5C 1389.5,259.833 1389.5,262.167 1389.5,264.5C 1386.83,264.5 1384.17,264.5 1381.5,264.5C 1381.5,277.833 1381.5,291.167 1381.5,304.5C 1384.17,304.5 1386.83,304.5 1389.5,304.5C 1389.5,306.833 1389.5,309.167 1389.5,311.5C 1384.46,311.827 1379.46,311.494 1374.5,310.5C 1372.7,308.869 1371.54,306.869 1371,304.5C 1370.33,290.167 1370.33,275.833 1371,261.5C 1372.79,259.975 1374.63,258.642 1376.5,257.5 Z"/></g>
<g><path style="opacity:1" fill="#50d1da" d="M 1542.5,257.5 C 1545.17,257.5 1547.83,257.5 1550.5,257.5C 1543.27,274.445 1536.11,291.445 1529,308.5C 1526.86,310.278 1524.36,310.945 1521.5,310.5C 1527.91,292.618 1534.91,274.952 1542.5,257.5 Z"/></g>
<g><path style="opacity:1" fill="#50d2da" d="M 1617.5,257.5 C 1620.17,257.5 1622.83,257.5 1625.5,257.5C 1626,261.162 1624.83,264.162 1622,266.5C 1616.29,281.024 1610.12,295.358 1603.5,309.5C 1601.6,310.466 1599.6,310.799 1597.5,310.5C 1597.34,308.473 1597.5,306.473 1598,304.5C 1605.08,289.02 1611.58,273.354 1617.5,257.5 Z"/></g>
<g><path style="opacity:1" fill="#40ced8" d="M 1683.5,258.5 C 1688.18,258.334 1692.85,258.501 1697.5,259C 1698.67,260.167 1699.83,261.333 1701,262.5C 1701.83,277.178 1701.67,291.845 1700.5,306.5C 1699.5,307.5 1698.5,308.5 1697.5,309.5C 1692.88,310.493 1688.21,310.827 1683.5,310.5C 1683.5,308.833 1683.5,307.167 1683.5,305.5C 1686.27,305.78 1688.77,305.113 1691,303.5C 1691.67,291.167 1691.67,278.833 1691,266.5C 1688.86,264.722 1686.36,264.055 1683.5,264.5C 1683.5,262.5 1683.5,260.5 1683.5,258.5 Z"/></g>
<g><path style="opacity:1" fill="#4ad0d9" d="M 794.5,261.5 C 798.167,261.5 801.833,261.5 805.5,261.5C 805.5,264.833 805.5,268.167 805.5,271.5C 801.833,271.5 798.167,271.5 794.5,271.5C 794.5,268.167 794.5,264.833 794.5,261.5 Z"/></g>
<g><path style="opacity:1" fill="#4ad0d9" d="M 1456.5,264.5 C 1460.17,264.5 1463.83,264.5 1467.5,264.5C 1467.5,267.833 1467.5,271.167 1467.5,274.5C 1463.83,274.5 1460.17,274.5 1456.5,274.5C 1456.5,271.167 1456.5,267.833 1456.5,264.5 Z"/></g>
<g><path style="opacity:1" fill="#2dc4cf" d="M 115.5,269.5 C 163.574,266.783 200.074,285.783 225,326.5C 245.589,368.676 242.589,409.009 216,447.5C 184.188,484.769 144.355,497.603 96.5,486C 52.7105,470.276 26.8771,439.443 19,393.5C 15.5014,345.998 33.668,309.498 73.5,284C 86.8878,277.039 100.888,272.205 115.5,269.5 Z"/></g>
<g><path style="opacity:1" fill="#15bfcb" d="M 1299.5,280.5 C 1299.5,281.167 1299.5,281.833 1299.5,282.5C 1292.19,286.153 1284.86,289.82 1277.5,293.5C 1276.51,290.232 1276.18,286.898 1276.5,283.5C 1226.5,283.5 1176.5,283.5 1126.5,283.5C 1126.82,286.898 1126.49,290.232 1125.5,293.5C 1118.28,290.059 1111.28,286.392 1104.5,282.5C 1104.17,281.833 1103.83,281.167 1103.5,280.5C 1111.18,277.245 1118.68,273.578 1126,269.5C 1126.5,272.817 1126.67,276.15 1126.5,279.5C 1176.5,279.5 1226.5,279.5 1276.5,279.5C 1276.18,276.102 1276.51,272.768 1277.5,269.5C 1284.86,273.18 1292.19,276.847 1299.5,280.5 Z"/></g>
<g><path style="opacity:1" fill="#fcfdfd" d="M 120.5,273.5 C 174.822,273.549 211.322,298.882 230,349.5C 240.885,395.174 228.718,433.341 193.5,464C 152.295,492.809 110.295,493.809 67.5,467C 25.2785,432.975 13.1118,390.142 31,338.5C 48.9537,300.367 78.7871,278.701 120.5,273.5 Z"/></g>
<g><path style="opacity:1" fill="#0abfca" d="M 287.5,280.5 C 291.5,280.5 295.5,280.5 299.5,280.5C 299.5,281.5 299.5,282.5 299.5,283.5C 295.5,283.5 291.5,283.5 287.5,283.5C 287.5,282.5 287.5,281.5 287.5,280.5 Z"/></g>
<g><path style="opacity:1" fill="#0abfca" d="M 308.5,280.5 C 312.5,280.5 316.5,280.5 320.5,280.5C 320.5,281.5 320.5,282.5 320.5,283.5C 316.5,283.5 312.5,283.5 308.5,283.5C 308.5,282.5 308.5,281.5 308.5,280.5 Z"/></g>
<g><path style="opacity:1" fill="#0abfca" d="M 329.5,280.5 C 333.5,280.5 337.5,280.5 341.5,280.5C 341.5,281.5 341.5,282.5 341.5,283.5C 337.5,283.5 333.5,283.5 329.5,283.5C 329.5,282.5 329.5,281.5 329.5,280.5 Z"/></g>
<g><path style="opacity:1" fill="#0abfca" d="M 350.5,280.5 C 354.5,280.5 358.5,280.5 362.5,280.5C 362.5,281.5 362.5,282.5 362.5,283.5C 358.5,283.5 354.5,283.5 350.5,283.5C 350.5,282.5 350.5,281.5 350.5,280.5 Z"/></g>
<g><path style="opacity:1" fill="#0abfca" d="M 371.5,280.5 C 375.5,280.5 379.5,280.5 383.5,280.5C 383.5,281.5 383.5,282.5 383.5,283.5C 379.5,283.5 375.5,283.5 371.5,283.5C 371.5,282.5 371.5,281.5 371.5,280.5 Z"/></g>
<g><path style="opacity:1" fill="#0abfca" d="M 392.5,280.5 C 396.5,280.5 400.5,280.5 404.5,280.5C 404.5,281.5 404.5,282.5 404.5,283.5C 400.5,283.5 396.5,283.5 392.5,283.5C 392.5,282.5 392.5,281.5 392.5,280.5 Z"/></g>
<g><path style="opacity:1" fill="#0abfca" d="M 413.5,280.5 C 417.5,280.5 421.5,280.5 425.5,280.5C 425.5,281.5 425.5,282.5 425.5,283.5C 421.5,283.5 417.5,283.5 413.5,283.5C 413.5,282.5 413.5,281.5 413.5,280.5 Z"/></g>
<g><path style="opacity:1" fill="#0abfca" d="M 434.5,280.5 C 438.5,280.5 442.5,280.5 446.5,280.5C 446.5,281.5 446.5,282.5 446.5,283.5C 442.5,283.5 438.5,283.5 434.5,283.5C 434.5,282.5 434.5,281.5 434.5,280.5 Z"/></g>
<g><path style="opacity:1" fill="#0abfca" d="M 455.5,280.5 C 459.5,280.5 463.5,280.5 467.5,280.5C 467.5,281.5 467.5,282.5 467.5,283.5C 463.5,283.5 459.5,283.5 455.5,283.5C 455.5,282.5 455.5,281.5 455.5,280.5 Z"/></g>
<g><path style="opacity:1" fill="#0abfca" d="M 476.5,280.5 C 480.5,280.5 484.5,280.5 488.5,280.5C 488.5,281.5 488.5,282.5 488.5,283.5C 484.5,283.5 480.5,283.5 476.5,283.5C 476.5,282.5 476.5,281.5 476.5,280.5 Z"/></g>
<g><path style="opacity:1" fill="#0abfca" d="M 497.5,280.5 C 501.5,280.5 505.5,280.5 509.5,280.5C 509.5,281.5 509.5,282.5 509.5,283.5C 505.5,283.5 501.5,283.5 497.5,283.5C 497.5,282.5 497.5,281.5 497.5,280.5 Z"/></g>
<g><path style="opacity:1" fill="#0abfca" d="M 518.5,280.5 C 522.5,280.5 526.5,280.5 530.5,280.5C 530.5,281.5 530.5,282.5 530.5,283.5C 526.5,283.5 522.5,283.5 518.5,283.5C 518.5,282.5 518.5,281.5 518.5,280.5 Z"/></g>
<g><path style="opacity:1" fill="#0abfca" d="M 539.5,280.5 C 543.5,280.5 547.5,280.5 551.5,280.5C 551.5,281.5 551.5,282.5 551.5,283.5C 547.5,283.5 543.5,283.5 539.5,283.5C 539.5,282.5 539.5,281.5 539.5,280.5 Z"/></g>
<g><path style="opacity:1" fill="#0abfca" d="M 560.5,280.5 C 564.5,280.5 568.5,280.5 572.5,280.5C 572.5,281.5 572.5,282.5 572.5,283.5C 568.5,283.5 564.5,283.5 560.5,283.5C 560.5,282.5 560.5,281.5 560.5,280.5 Z"/></g>
<g><path style="opacity:1" fill="#0abfca" d="M 581.5,280.5 C 585.5,280.5 589.5,280.5 593.5,280.5C 593.5,281.5 593.5,282.5 593.5,283.5C 589.5,283.5 585.5,283.5 581.5,283.5C 581.5,282.5 581.5,281.5 581.5,280.5 Z"/></g>
<g><path style="opacity:1" fill="#0abfca" d="M 602.5,280.5 C 606.5,280.5 610.5,280.5 614.5,280.5C 614.5,281.5 614.5,282.5 614.5,283.5C 610.5,283.5 606.5,283.5 602.5,283.5C 602.5,282.5 602.5,281.5 602.5,280.5 Z"/></g>
<g><path style="opacity:1" fill="#d9f5f7" d="M 846.5,243.5 C 861.837,243.333 877.17,243.5 892.5,244C 893.056,244.383 893.389,244.883 893.5,245.5C 878.215,244.531 862.881,244.198 847.5,244.5C 847.5,269.167 847.5,293.833 847.5,318.5C 861.837,318.667 876.171,318.5 890.5,318C 891.905,316.731 893.571,316.231 895.5,316.5C 893.497,318.982 890.831,319.982 887.5,319.5C 873.833,319.5 860.167,319.5 846.5,319.5C 846.5,294.167 846.5,268.833 846.5,243.5 Z"/></g>
<g><path style="opacity:1" fill="#d9f5f7" d="M 1508.5,246.5 C 1523.84,246.333 1539.17,246.5 1554.5,247C 1555.06,247.383 1555.39,247.883 1555.5,248.5C 1540.21,247.531 1524.88,247.198 1509.5,247.5C 1509.5,272.167 1509.5,296.833 1509.5,321.5C 1523.84,321.667 1538.17,321.5 1552.5,321C 1553.9,319.731 1555.57,319.231 1557.5,319.5C 1555.5,321.982 1552.83,322.982 1549.5,322.5C 1535.83,322.5 1522.17,322.5 1508.5,322.5C 1508.5,297.167 1508.5,271.833 1508.5,246.5 Z"/></g>
<g><path style="opacity:1" fill="#0abfca" d="M 284.5,289.5 C 285.5,289.5 286.5,289.5 287.5,289.5C 287.5,293.5 287.5,297.5 287.5,301.5C 286.5,301.5 285.5,301.5 284.5,301.5C 284.5,297.5 284.5,293.5 284.5,289.5 Z"/></g>
<g><path style="opacity:1" fill="#67d7df" d="M 793.5,287.5 C 797.5,287.5 801.5,287.5 805.5,287.5C 805.5,291.5 805.5,295.5 805.5,299.5C 801.774,299.823 798.107,299.489 794.5,298.5C 793.574,294.906 793.241,291.24 793.5,287.5 Z"/></g>
<g><path style="opacity:1" fill="#67d7df" d="M 1455.5,290.5 C 1459.5,290.5 1463.5,290.5 1467.5,290.5C 1467.5,294.5 1467.5,298.5 1467.5,302.5C 1463.77,302.823 1460.11,302.489 1456.5,301.5C 1455.57,297.906 1455.24,294.24 1455.5,290.5 Z"/></g>
<g><path style="opacity:1" fill="#0abfca" d="M 284.5,310.5 C 285.5,310.5 286.5,310.5 287.5,310.5C 287.5,314.5 287.5,318.5 287.5,322.5C 286.5,322.5 285.5,322.5 284.5,322.5C 284.5,318.5 284.5,314.5 284.5,310.5 Z"/></g>
<g><path style="opacity:1" fill="#7cdee4" d="M 846.5,243.5 C 846.5,268.833 846.5,294.167 846.5,319.5C 860.167,319.5 873.833,319.5 887.5,319.5C 873.873,321.482 859.873,322.149 845.5,321.5C 845.169,295.328 845.502,269.328 846.5,243.5 Z"/></g>
<g><path style="opacity:1" fill="#7cdee4" d="M 1508.5,246.5 C 1508.5,271.833 1508.5,297.167 1508.5,322.5C 1522.17,322.5 1535.83,322.5 1549.5,322.5C 1535.87,324.482 1521.87,325.149 1507.5,324.5C 1507.17,298.328 1507.5,272.328 1508.5,246.5 Z"/></g>
<g><path style="opacity:1" fill="#2ec4cf" d="M 406.5,330.5 C 443.236,327.686 474.57,339.186 500.5,365C 502.473,365.495 504.473,365.662 506.5,365.5C 505.986,367.512 505.82,369.512 506,371.5C 532.061,406.12 537.395,443.786 522,484.5C 501.454,527.119 467.454,549.452 420,551.5C 372.051,549.52 338.051,526.853 318,483.5C 302.068,441.091 308.402,402.424 337,367.5C 355.929,347.14 379.096,334.807 406.5,330.5 Z"/></g>
<g><path style="opacity:1" fill="#0abfca" d="M 284.5,331.5 C 285.5,331.5 286.5,331.5 287.5,331.5C 287.5,335.5 287.5,339.5 287.5,343.5C 286.5,343.5 285.5,343.5 284.5,343.5C 284.5,339.5 284.5,335.5 284.5,331.5 Z"/></g>
<g><path style="opacity:1" fill="#fdfdfd" d="M 412.5,334.5 C 462.42,334.308 497.92,356.641 519,401.5C 535.154,452.355 522.654,494.521 481.5,528C 439.931,554.092 398.597,553.759 357.5,527C 316.029,492.967 304.195,450.467 322,399.5C 340.056,360.94 370.223,339.274 412.5,334.5 Z"/></g>
<g><path style="opacity:1" fill="#b7b7b7" d="M 157.5,335.5 C 157.831,343.196 157.497,350.862 156.5,358.5C 155.893,358.376 155.56,358.043 155.5,357.5C 156.167,350.167 156.833,342.833 157.5,335.5 Z"/></g>
<g><path style="opacity:1" fill="#303030" d="M 157.5,335.5 C 160.692,337.014 163.859,338.68 167,340.5C 167.833,354.845 167.666,369.178 166.5,383.5C 161.731,386.301 156.898,388.967 152,391.5C 147.304,388.649 142.47,385.983 137.5,383.5C 136.336,377.193 136.169,370.859 137,364.5C 141.415,362.377 145.582,359.877 149.5,357C 151.545,356.51 153.545,356.677 155.5,357.5C 155.56,358.043 155.893,358.376 156.5,358.5C 157.497,350.862 157.831,343.196 157.5,335.5 Z"/></g>
<g><path style="opacity:1" fill="#0abfca" d="M 284.5,352.5 C 285.5,352.5 286.5,352.5 287.5,352.5C 287.5,356.5 287.5,360.5 287.5,364.5C 286.5,364.5 285.5,364.5 284.5,364.5C 284.5,360.5 284.5,356.5 284.5,352.5 Z"/></g>
<g><path style="opacity:1" fill="#313131" d="M 90.5,364.5 C 91.1299,372.243 90.4633,379.576 88.5,386.5C 85.9476,385.307 83.4476,383.973 81,382.5C 80.8275,378.129 80.3275,373.796 79.5,369.5C 76.1598,367.053 72.9931,367.386 70,370.5C 72.3082,380.059 68.8082,385.725 59.5,387.5C 59.3336,379.826 59.5003,372.159 60,364.5C 65.0372,361.3 70.2039,358.3 75.5,355.5C 80.7292,358.274 85.7292,361.274 90.5,364.5 Z"/></g>
<g><path style="opacity:1" fill="#343434" d="M 189.5,355.5 C 195.186,358.094 200.686,361.094 206,364.5C 206.667,366.5 206.667,368.5 206,370.5C 202.634,372.601 199.134,374.268 195.5,375.5C 196.298,371.297 194.631,368.63 190.5,367.5C 185.114,368.378 183.281,371.378 185,376.5C 189.988,379.336 194.822,382.336 199.5,385.5C 196.709,387.735 193.709,389.735 190.5,391.5C 185.251,388.626 180.085,385.626 175,382.5C 174.333,376.5 174.333,370.5 175,364.5C 180.006,361.637 184.839,358.637 189.5,355.5 Z"/></g>
<g><path style="opacity:1" fill="#6caa54" d="M 111.5,357.5 C 112.658,366.991 112.825,376.658 112,386.5C 109.381,383.594 107.547,380.261 106.5,376.5C 107.164,374.022 107.497,371.355 107.5,368.5C 107.478,365.41 106.812,362.743 105.5,360.5C 107.181,358.992 109.181,357.992 111.5,357.5 Z"/></g>
<g><path style="opacity:1" fill="#64b444" d="M 105.5,360.5 C 106.812,362.743 107.478,365.41 107.5,368.5C 107.497,371.355 107.164,374.022 106.5,376.5C 104.17,372.508 101.837,368.508 99.5,364.5C 101.118,362.684 103.118,361.351 105.5,360.5 Z"/></g>
<g><path style="opacity:1" fill="#737373" d="M 90.5,364.5 C 91.492,371.982 91.8254,379.648 91.5,387.5C 90.209,387.737 89.209,387.404 88.5,386.5C 90.4633,379.576 91.1299,372.243 90.5,364.5 Z"/></g>
<g><path style="opacity:1" fill="#0abfca" d="M 619.5,365.5 C 623.5,365.5 627.5,365.5 631.5,365.5C 631.5,366.5 631.5,367.5 631.5,368.5C 627.5,368.5 623.5,368.5 619.5,368.5C 619.5,367.5 619.5,366.5 619.5,365.5 Z"/></g>
<g><path style="opacity:1" fill="#4dccd5" d="M 514.5,365.5 C 518.833,365.5 523.167,365.5 527.5,365.5C 527.67,366.822 527.337,367.989 526.5,369C 522.514,369.499 518.514,369.666 514.5,369.5C 514.5,368.167 514.5,366.833 514.5,365.5 Z"/></g>
<g><path style="opacity:1" fill="#4bcbd5" d="M 535.5,365.5 C 539.5,365.5 543.5,365.5 547.5,365.5C 547.5,366.833 547.5,368.167 547.5,369.5C 543.5,369.5 539.5,369.5 535.5,369.5C 535.5,368.167 535.5,366.833 535.5,365.5 Z"/></g>
<g><path style="opacity:1" fill="#1cc2cd" d="M 556.5,365.5 C 560.5,365.5 564.5,365.5 568.5,365.5C 568.5,366.5 568.5,367.5 568.5,368.5C 564.5,368.5 560.5,368.5 556.5,368.5C 556.5,367.5 556.5,366.5 556.5,365.5 Z"/></g>
<g><path style="opacity:1" fill="#1cc2cd" d="M 577.5,365.5 C 581.5,365.5 585.5,365.5 589.5,365.5C 589.5,366.5 589.5,367.5 589.5,368.5C 585.5,368.5 581.5,368.5 577.5,368.5C 577.5,367.5 577.5,366.5 577.5,365.5 Z"/></g>
<g><path style="opacity:1" fill="#1cc2cd" d="M 598.5,365.5 C 602.5,365.5 606.5,365.5 610.5,365.5C 610.5,366.5 610.5,367.5 610.5,368.5C 606.5,368.5 602.5,368.5 598.5,368.5C 598.5,367.5 598.5,366.5 598.5,365.5 Z"/></g>
<g><path style="opacity:1" fill="#54904b" d="M 111.5,357.5 C 112.601,356.402 113.934,356.235 115.5,357C 120,359.5 124.5,362 129,364.5C 129.667,370.5 129.667,376.5 129,382.5C 123.915,385.626 118.749,388.626 113.5,391.5C 108.833,388.833 104.167,386.167 99.5,383.5C 98.1826,377.012 98.1826,370.678 99.5,364.5C 101.837,368.508 104.17,372.508 106.5,376.5C 107.547,380.261 109.381,383.594 112,386.5C 112.825,376.658 112.658,366.991 111.5,357.5 Z"/></g>
<g><path style="opacity:1" fill="#ececec" d="M 149.5,368.5 C 155.929,368.063 158.595,371.063 157.5,377.5C 155.4,377.477 153.567,378.144 152,379.5C 147.225,378.341 145.558,375.341 147,370.5C 147.995,369.934 148.828,369.267 149.5,368.5 Z"/></g>
<g><path style="opacity:1" fill="#6a9d65" d="M 188.5,370.5 C 192.909,369.899 194.242,371.566 192.5,375.5C 191.167,376.833 189.833,376.833 188.5,375.5C 187.334,373.833 187.334,372.166 188.5,370.5 Z"/></g>
<g><path style="opacity:1" fill="#10c0cb" d="M 284.5,373.5 C 285.5,373.5 286.5,373.5 287.5,373.5C 287.5,376.5 287.5,379.5 287.5,382.5C 285.5,382.5 283.5,382.5 281.5,382.5C 281.5,381.5 281.5,380.5 281.5,379.5C 282.5,379.5 283.5,379.5 284.5,379.5C 284.5,377.5 284.5,375.5 284.5,373.5 Z"/></g>
<g><path style="opacity:1" fill="#18c1cd" d="M 239.5,379.5 C 243.5,379.5 247.5,379.5 251.5,379.5C 251.5,380.5 251.5,381.5 251.5,382.5C 247.5,382.5 243.5,382.5 239.5,382.5C 239.5,381.5 239.5,380.5 239.5,379.5 Z"/></g>
<g><path style="opacity:1" fill="#18c1cd" d="M 260.5,379.5 C 264.5,379.5 268.5,379.5 272.5,379.5C 272.5,380.5 272.5,381.5 272.5,382.5C 268.5,382.5 264.5,382.5 260.5,382.5C 260.5,381.5 260.5,380.5 260.5,379.5 Z"/></g>
<g><path style="opacity:1" fill="#d4e3d2" d="M 147.5,415.5 C 147.5,409.5 147.5,403.5 147.5,397.5C 148.117,397.611 148.617,397.944 149,398.5C 151.402,394.548 153.902,394.548 156.5,398.5C 154.988,400.934 152.988,401.601 150.5,400.5C 149.672,405.132 149.172,409.798 149,414.5C 148.617,415.056 148.117,415.389 147.5,415.5 Z"/></g>
<g><path style="opacity:1" fill="#7ca978" d="M 147.5,397.5 C 147.5,403.5 147.5,409.5 147.5,415.5C 142.626,418.859 137.459,421.859 132,424.5C 124.594,420.861 125.094,419.695 133.5,421C 137.577,419.213 141.41,417.046 145,414.5C 145.667,409.167 145.667,403.833 145,398.5C 140.715,396.277 136.549,393.944 132.5,391.5C 127.726,393.053 123.392,395.387 119.5,398.5C 118.337,403.802 118.171,409.136 119,414.5C 120.897,416.016 123.064,416.683 125.5,416.5C 125.5,410.833 125.5,405.167 125.5,399.5C 126.5,399.5 127.5,399.5 128.5,399.5C 128.666,405.509 128.499,411.509 128,417.5C 126.687,418.573 125.187,419.24 123.5,419.5C 120.957,418.311 118.457,416.978 116,415.5C 115.191,409.251 115.358,403.084 116.5,397C 121.602,394.032 126.769,391.199 132,388.5C 137.459,391.141 142.626,394.141 147.5,397.5 Z"/></g>
<g><path style="opacity:1" fill="#70a16b" d="M 132.5,399.5 C 135.607,399.351 138.607,399.851 141.5,401C 142.337,402.011 142.67,403.178 142.5,404.5C 140.19,403.543 137.856,402.543 135.5,401.5C 132.815,401.708 132.149,402.875 133.5,405C 136.513,405.502 139.513,406.002 142.5,406.5C 142.917,409.079 142.25,411.246 140.5,413C 137.5,413.667 134.5,413.667 131.5,413C 129.579,411.759 129.246,410.259 130.5,408.5C 132.92,411.077 135.92,412.077 139.5,411.5C 139.67,410.178 139.337,409.011 138.5,408C 135.341,407.989 132.507,407.155 130,405.5C 129.034,402.66 129.867,400.66 132.5,399.5 Z"/></g>
<g><path style="opacity:1" fill="#11a3d1" d="M 399.5,419.5 C 410.751,418.071 419.085,422.237 424.5,432C 421.272,433.852 417.772,435.019 414,435.5C 402.36,428.57 394.527,431.57 390.5,444.5C 391.614,452.785 396.281,456.285 404.5,455C 406.976,453.691 408.976,451.858 410.5,449.5C 406.167,448.833 401.833,448.167 397.5,447.5C 398.706,444.921 400.039,442.421 401.5,440C 408.5,439.667 415.5,439.333 422.5,439C 432.289,419.738 446.622,415.404 465.5,426C 474.675,439.349 473.009,451.349 460.5,462C 444.873,471.618 432.206,468.785 422.5,453.5C 412.694,467.279 400.361,470.446 385.5,463C 374.148,449.525 375.148,436.858 388.5,425C 392.017,422.674 395.683,420.84 399.5,419.5 Z"/></g>
<g><path style="opacity:1" fill="#36b1d8" d="M 354.5,431.5 C 362.196,431.169 369.862,431.503 377.5,432.5C 377.291,433.086 376.957,433.586 376.5,434C 368.812,434.831 361.145,434.665 353.5,433.5C 353.863,432.817 354.196,432.15 354.5,431.5 Z"/></g>
<g><path style="opacity:1" fill="#fafcfd" d="M 444.5,431.5 C 456.465,431.429 460.631,437.095 457,448.5C 451.095,456.154 444.428,457.154 437,451.5C 433.649,442.55 436.149,435.883 444.5,431.5 Z"/></g>
<g><path style="opacity:1" fill="#12a4d3" d="M 344.5,437.5 C 354.522,437.168 364.522,437.501 374.5,438.5C 369.5,438.833 364.5,439.167 359.5,439.5C 354.119,439.494 349.119,438.828 344.5,437.5 Z"/></g>
<g><path style="opacity:1" fill="#10a6d3" d="M 359.5,443.5 C 363.884,443.174 368.217,443.508 372.5,444.5C 367.869,445.662 363.202,445.828 358.5,445C 359.056,444.617 359.389,444.117 359.5,443.5 Z"/></g>
</svg>
