<?xml version="1.0" encoding="UTF-8"?>
<!DOCTYPE svg PUBLIC "-//W3C//DTD SVG 1.1//EN" "http://www.w3.org/Graphics/SVG/1.1/DTD/svg11.dtd">
<svg xmlns="http://www.w3.org/2000/svg" version="1.1" width="986px" height="966px" style="shape-rendering:geometricPrecision; text-rendering:geometricPrecision; image-rendering:optimizeQuality; fill-rule:evenodd; clip-rule:evenodd" xmlns:xlink="http://www.w3.org/1999/xlink">
<g><path style="opacity:1" fill="#fdfdfd" d="M -0.5,-0.5 C 328.167,-0.5 656.833,-0.5 985.5,-0.5C 985.5,321.5 985.5,643.5 985.5,965.5C 656.833,965.5 328.167,965.5 -0.5,965.5C -0.5,643.5 -0.5,321.5 -0.5,-0.5 Z"/></g>
<g><path style="opacity:1" fill="#8a67f5" d="M 484.5,11.5 C 525.9,9.94931 558.067,26.2826 581,60.5C 603.269,105.699 597.436,146.533 563.5,183C 529.859,211.495 492.526,217.495 451.5,201C 411.199,178.914 392.365,144.747 395,98.5C 405.023,48.9751 434.857,19.9751 484.5,11.5 Z"/></g>
<g><path style="opacity:1" fill="#fcfcfd" d="M 483.5,16.5 C 534.801,14.3352 568.968,37.3352 586,85.5C 589.909,99.7438 590.409,114.077 587.5,128.5C 581.254,127.484 575.087,126.151 569,124.5C 565.346,124.789 563.846,126.789 564.5,130.5C 571.34,132.222 578.174,133.889 585,135.5C 585.584,138.257 585.25,140.923 584,143.5C 569.054,179.434 542.22,199.934 503.5,205C 457.534,206.945 425.034,187.112 406,145.5C 391.411,101.339 401.911,64.5053 437.5,35C 451.444,25.1898 466.777,19.0232 483.5,16.5 Z"/></g>
<g><path style="opacity:1" fill="#4b4b4b" d="M 448.5,78.5 C 456.507,78.3336 464.507,78.5003 472.5,79C 473,79.5 473.5,80 474,80.5C 474.831,88.1883 474.665,95.855 473.5,103.5C 472.692,103.808 472.025,104.308 471.5,105C 463.833,105.667 456.167,105.667 448.5,105C 448,104.5 447.5,104 447,103.5C 446.333,95.8333 446.333,88.1667 447,80.5C 447.717,79.9558 448.217,79.2891 448.5,78.5 Z"/></g>
<g><path style="opacity:1" fill="#4e4e4e" d="M 519.5,79.5 C 531.113,79.9526 535.947,85.9526 534,97.5C 528.87,105.167 522.37,106.5 514.5,101.5C 507.933,92.2398 509.599,84.9064 519.5,79.5 Z"/></g>
<g><path style="opacity:1" fill="#eeeeee" d="M 520.5,86.5 C 528.828,87.0693 530.495,90.5693 525.5,97C 519.143,98.4806 516.643,95.9806 518,89.5C 518.698,88.3094 519.531,87.3094 520.5,86.5 Z"/></g>
<g><path style="opacity:1" fill="#505050" d="M 484.5,145.5 C 484.5,128.5 484.5,111.5 484.5,94.5C 483.5,94.5 482.5,94.5 481.5,94.5C 480.167,94.5 478.833,94.5 477.5,94.5C 477.5,92.8333 477.5,91.1667 477.5,89.5C 487.5,89.5 497.5,89.5 507.5,89.5C 507.5,91.1667 507.5,92.8333 507.5,94.5C 501.5,94.5 495.5,94.5 489.5,94.5C 489.334,102.174 489.5,109.841 490,117.5C 495.741,118.475 501.575,118.808 507.5,118.5C 507.5,120.167 507.5,121.833 507.5,123.5C 501.5,123.5 495.5,123.5 489.5,123.5C 489.334,130.841 489.5,138.174 490,145.5C 495.741,146.475 501.575,146.808 507.5,146.5C 507.5,148.167 507.5,149.833 507.5,151.5C 500.825,151.666 494.158,151.5 487.5,151C 486.242,149.259 485.242,147.426 484.5,145.5 Z"/></g>
<g><path style="opacity:1" fill="#c0c0c0" d="M 481.5,94.5 C 482.5,94.5 483.5,94.5 484.5,94.5C 484.5,111.5 484.5,128.5 484.5,145.5C 484.138,128.437 483.138,111.437 481.5,94.5 Z"/></g>
<g><path style="opacity:1" fill="#4e4e4e" d="M 519.5,108.5 C 531.019,108.516 535.852,114.183 534,125.5C 527.08,135.793 519.58,136.127 511.5,126.5C 509.371,118.177 512.038,112.177 519.5,108.5 Z"/></g>
<g><path style="opacity:1" fill="#eeeeee" d="M 519.5,115.5 C 528.937,115.716 530.604,119.216 524.5,126C 518.481,126.538 516.314,123.705 518,117.5C 518.717,116.956 519.217,116.289 519.5,115.5 Z"/></g>
<g><path style="opacity:1" fill="#8864f5" d="M 536.5,119.5 C 538.861,119.674 541.194,120.007 543.5,120.5C 544.265,125.906 541.931,127.906 536.5,126.5C 536.5,124.167 536.5,121.833 536.5,119.5 Z"/></g>
<g><path style="opacity:1" fill="#8a67f5" d="M 440.5,119.5 C 442.229,120.953 443.229,122.953 443.5,125.5C 442.271,126.281 440.938,126.781 439.5,127C 431.555,128.129 423.721,129.629 416,131.5C 415.088,129.341 414.255,127.175 413.5,125C 422.566,122.937 431.566,121.104 440.5,119.5 Z"/></g>
<g><path style="opacity:1" fill="#8c69f5" d="M 391.5,129.5 C 393.428,131.601 394.095,133.934 393.5,136.5C 384.47,139.178 375.47,141.844 366.5,144.5C 366.007,142.194 365.674,139.861 365.5,137.5C 374.322,135.001 382.988,132.335 391.5,129.5 Z"/></g>
<g><path style="opacity:1" fill="#4d4d4d" d="M 518.5,137.5 C 521.518,137.335 524.518,137.502 527.5,138C 529.849,140.07 532.016,142.237 534,144.5C 535.864,157.302 530.364,162.802 517.5,161C 511.333,157.155 509.166,151.655 511,144.5C 513.015,141.588 515.515,139.255 518.5,137.5 Z"/></g>
<g><path style="opacity:1" fill="#8864f5" d="M 614.5,137.5 C 623.639,140.712 632.639,144.212 641.5,148C 640.521,150.137 639.188,151.971 637.5,153.5C 629.032,150.167 620.699,146.667 612.5,143C 613.464,141.275 614.131,139.441 614.5,137.5 Z"/></g>
<g><path style="opacity:1" fill="#efefef" d="M 519.5,144.5 C 528.937,144.716 530.604,148.216 524.5,155C 517.341,154.44 515.675,150.94 519.5,144.5 Z"/></g>
<g><path style="opacity:1" fill="#8b67f5" d="M 342.5,146.5 C 345.95,147.737 346.95,150.07 345.5,153.5C 337.252,157.46 328.918,161.126 320.5,164.5C 320.528,162.418 319.861,160.584 318.5,159C 326.525,154.726 334.525,150.559 342.5,146.5 Z"/></g>
<g><path style="opacity:1" fill="#8763f5" d="M 661.5,157.5 C 670.059,161.604 678.059,166.437 685.5,172C 685.112,173.951 684.112,175.451 682.5,176.5C 674.81,171.654 666.81,167.321 658.5,163.5C 659.513,161.473 660.513,159.473 661.5,157.5 Z"/></g>
<g><path style="opacity:1" fill="#8a66f5" d="M 298.5,169.5 C 300.179,171 301.512,172.833 302.5,175C 295.167,180 287.833,185 280.5,190C 279.833,190.667 279.167,190.667 278.5,190C 277.624,188.414 276.624,186.914 275.5,185.5C 283.058,179.898 290.725,174.564 298.5,169.5 Z"/></g>
<g><path style="opacity:1" fill="#8764f5" d="M 704.5,183.5 C 712.574,188.734 720.241,194.567 727.5,201C 726.257,202.154 725.257,203.488 724.5,205C 723.833,205.667 723.167,205.667 722.5,205C 715.95,199.449 709.117,194.283 702,189.5C 702.451,187.48 703.284,185.48 704.5,183.5 Z"/></g>
<g><path style="opacity:1" fill="#8965f5" d="M 255.5,199.5 C 258.859,199.698 260.692,201.365 261,204.5C 255.5,209.333 250,214.167 244.5,219C 240.438,222.546 237.938,221.713 237,216.5C 243.363,210.967 249.529,205.301 255.5,199.5 Z"/></g>
<g><path style="opacity:1" fill="#8764f5" d="M 743.5,215.5 C 750.744,221.238 757.577,227.572 764,234.5C 763.833,237.333 762.333,238.833 759.5,239C 753.167,232.667 746.833,226.333 740.5,220C 741.386,218.385 742.386,216.885 743.5,215.5 Z"/></g>
<g><path style="opacity:1" fill="#8865f5" d="M 488.5,225.5 C 498.212,225.214 507.879,225.714 517.5,227C 516.577,229.041 516.244,231.208 516.5,233.5C 507.207,232.582 497.873,232.248 488.5,232.5C 488.5,230.167 488.5,227.833 488.5,225.5 Z"/></g>
<g><path style="opacity:1" fill="#8c69f5" d="M 464.5,226.5 C 465.725,227.152 466.392,228.319 466.5,230C 466.441,231.436 466.108,232.769 465.5,234C 456.727,234.962 448.06,236.462 439.5,238.5C 438.605,236.754 437.938,234.92 437.5,233C 437.905,232.055 438.572,231.388 439.5,231C 448.006,229.663 456.339,228.163 464.5,226.5 Z"/></g>
<g><path style="opacity:1" fill="#8a66f5" d="M 539.5,229.5 C 549.12,230.516 558.454,232.682 567.5,236C 566.598,238.202 565.598,240.368 564.5,242.5C 555.818,239.08 546.818,237.08 537.5,236.5C 537.767,234.035 538.434,231.701 539.5,229.5 Z"/></g>
<g><path style="opacity:1" fill="#8865f5" d="M 219.5,233.5 C 222.323,234.148 223.823,235.814 224,238.5C 218.313,244.686 212.813,251.019 207.5,257.5C 206.998,258.521 206.332,258.688 205.5,258C 204.421,257.044 203.255,256.211 202,255.5C 201.333,254.833 201.333,254.167 202,253.5C 208.042,246.962 213.875,240.295 219.5,233.5 Z"/></g>
<g><path style="opacity:1" fill="#8b68f5" d="M 413.5,237.5 C 414.675,237.281 415.675,237.614 416.5,238.5C 417.074,240.059 417.74,241.559 418.5,243C 409.907,246.589 401.24,250.089 392.5,253.5C 390.673,251.513 389.673,249.179 389.5,246.5C 397.718,243.874 405.718,240.874 413.5,237.5 Z"/></g>
<g><path style="opacity:1" fill="#8662f5" d="M 587.5,243.5 C 596.945,246.221 605.945,250.054 614.5,255C 613.458,256.918 612.292,258.751 611,260.5C 603.514,256.175 595.681,252.508 587.5,249.5C 586.769,247.599 586.769,245.599 587.5,243.5 Z"/></g>
<g><path style="opacity:1" fill="#8a66f5" d="M 778.5,252.5 C 780.017,252.511 781.184,253.177 782,254.5C 787.078,260.99 791.911,267.656 796.5,274.5C 795.472,276.361 793.972,277.695 792,278.5C 785.54,271.17 779.874,263.504 775,255.5C 776.518,254.837 777.685,253.837 778.5,252.5 Z"/></g>
<g><path style="opacity:1" fill="#8a66f5" d="M 367.5,257.5 C 369.809,258.388 371.476,260.054 372.5,262.5C 364.5,267.5 356.5,272.5 348.5,277.5C 346.397,275.936 345.564,273.936 346,271.5C 353.146,266.685 360.313,262.018 367.5,257.5 Z"/></g>
<g><path style="opacity:1" fill="#8864f5" d="M 633.5,265.5 C 641.894,270.389 649.894,275.889 657.5,282C 656.299,282.903 655.465,284.069 655,285.5C 653.951,286.517 652.784,286.684 651.5,286C 644.642,280.743 637.642,275.743 630.5,271C 631.758,269.259 632.758,267.426 633.5,265.5 Z"/></g>
<g><path style="opacity:1" fill="#8763f5" d="M 187.5,272.5 C 189.723,273.114 191.389,274.448 192.5,276.5C 187.333,284.167 182.167,291.833 177,299.5C 175.365,298.274 173.865,296.941 172.5,295.5C 177.262,287.634 182.262,279.968 187.5,272.5 Z"/></g>
<g><path style="opacity:1" fill="#8965f5" d="M 326.5,285.5 C 328.982,286.804 330.149,288.804 330,291.5C 323.531,296.968 317.364,302.801 311.5,309C 309.08,308.628 307.08,307.295 305.5,305C 312.697,298.634 319.697,292.134 326.5,285.5 Z"/></g>
<g><path style="opacity:1" fill="#8a67f5" d="M 807.5,293.5 C 809.017,293.511 810.184,294.177 811,295.5C 815.167,303 819.333,310.5 823.5,318C 821.751,319.292 819.918,320.458 818,321.5C 813.293,313.251 808.459,305.084 803.5,297C 805.093,296.051 806.426,294.885 807.5,293.5 Z"/></g>
<g><path style="opacity:1" fill="#8965f5" d="M 673.5,296.5 C 680.567,302.996 687.567,309.829 694.5,317C 692.957,318.878 691.124,320.378 689,321.5C 683.366,314.864 677.366,308.531 671,302.5C 671.451,300.48 672.284,298.48 673.5,296.5 Z"/></g>
<g><path style="opacity:1" fill="#8763f5" d="M 160.5,315.5 C 162.636,316.403 164.636,317.569 166.5,319C 163.318,324.197 160.818,329.697 159,335.5C 157.401,338.378 155.567,341.044 153.5,343.5C 151.833,342.667 150.167,341.833 148.5,341C 152.64,332.554 156.64,324.054 160.5,315.5 Z"/></g>
<g><path style="opacity:1" fill="#8864f5" d="M 290.5,321.5 C 292.812,322.478 294.478,324.145 295.5,326.5C 289.808,333.692 284.308,341.025 279,348.5C 277.365,347.274 275.865,345.941 274.5,344.5C 279.104,336.281 284.437,328.614 290.5,321.5 Z"/></g>
<g><path style="opacity:1" fill="#6dcfd9" d="M 475.5,329.5 C 547.681,325.582 601.514,354.915 637,417.5C 664.431,479.036 658.098,536.703 618,590.5C 571.814,641.931 514.981,659.431 447.5,643C 384.536,621.03 347.036,577.197 335,511.5C 328.617,455.639 345.784,408.472 386.5,370C 412.236,347.798 441.903,334.298 475.5,329.5 Z"/></g>
<g><path style="opacity:1" fill="#8966f5" d="M 707.5,334.5 C 713.306,342.09 718.639,350.09 723.5,358.5C 721.242,361.771 718.742,362.104 716,359.5C 712.121,352.238 707.621,345.405 702.5,339C 704.24,337.483 705.906,335.983 707.5,334.5 Z"/></g>
<g><path style="opacity:1" fill="#8b68f5" d="M 830.5,338.5 C 831.822,338.33 832.989,338.663 834,339.5C 837.871,347.951 841.038,356.618 843.5,365.5C 841.194,365.993 838.861,366.326 836.5,366.5C 833.938,358.202 830.938,350.035 827.5,342C 828.071,340.401 829.071,339.234 830.5,338.5 Z"/></g>
<g><path style="opacity:1" fill="#8a67f5" d="M 139.5,362.5 C 142.226,362.264 144.559,363.097 146.5,365C 143.999,371.003 141.999,377.169 140.5,383.5C 173.964,392.792 196.798,413.792 209,446.5C 221.427,489.968 210.927,526.802 177.5,557C 165.156,567.004 151.156,573.504 135.5,576.5C 136.358,582.265 137.691,587.931 139.5,593.5C 139.392,594.442 139.059,595.275 138.5,596C 136.603,597.11 134.77,597.276 133,596.5C 131.183,590.565 129.683,584.565 128.5,578.5C 79.3319,581.838 43.8319,561.504 22,517.5C 7.24771,474.68 15.7477,437.18 47.5,405C 72.3214,383.956 100.988,375.623 133.5,380C 136.197,374.409 138.197,368.576 139.5,362.5 Z"/></g>
<g><path style="opacity:1" fill="#8864f5" d="M 262.5,364.5 C 264.564,365.058 266.23,366.225 267.5,368C 263.508,376.147 259.675,384.314 256,392.5C 254.013,391.782 252.179,390.782 250.5,389.5C 253.462,380.6 257.462,372.267 262.5,364.5 Z"/></g>
<g><path style="opacity:1" fill="#8b68f5" d="M 732.5,378.5 C 733.75,378.577 734.583,379.244 735,380.5C 738.46,388.381 741.627,396.381 744.5,404.5C 742.649,406.456 740.316,407.456 737.5,407.5C 735.25,398.584 731.917,390.084 727.5,382C 729.233,380.811 730.9,379.644 732.5,378.5 Z"/></g>
<g><path style="opacity:1" fill="#8a67f5" d="M 859.5,379.5 C 911.635,377.959 947.135,401.292 966,449.5C 977.54,498.895 962.374,537.729 920.5,566C 880.903,586.417 843.236,583.417 807.5,557C 775.097,528.121 764.263,492.621 775,450.5C 789.363,410.296 817.53,386.629 859.5,379.5 Z"/></g>
<g><path style="opacity:1" fill="#fcfcfd" d="M 103.5,384.5 C 112.568,384.119 121.568,384.619 130.5,386C 131.337,387.011 131.67,388.178 131.5,389.5C 133.806,389.993 136.139,390.326 138.5,390.5C 138.5,389.5 138.5,388.5 138.5,387.5C 176.342,398.844 199.508,423.844 208,462.5C 213.916,509.84 195.75,544.34 153.5,566C 147.268,568.466 140.934,570.633 134.5,572.5C 133.571,571.311 133.238,569.978 133.5,568.5C 129.069,567.53 126.735,569.197 126.5,573.5C 86.3905,576.861 55.2239,561.861 33,528.5C 12.7145,490.064 15.3811,453.398 41,418.5C 57.6746,399.415 78.5079,388.081 103.5,384.5 Z"/></g>
<g><path style="opacity:1" fill="#fcfcfd" d="M 859.5,384.5 C 902.988,381.986 935.154,399.653 956,437.5C 973.581,479.922 966.414,517.422 934.5,550C 899.264,578.079 861.598,581.746 821.5,561C 788.625,539.081 773.458,508.247 776,468.5C 782.182,427.49 805.016,400.824 844.5,388.5C 846.814,397.09 848.814,405.757 850.5,414.5C 852.833,414.5 855.167,414.5 857.5,414.5C 855.884,405.757 853.884,397.09 851.5,388.5C 851.608,387.558 851.941,386.725 852.5,386C 855.036,385.814 857.369,385.314 859.5,384.5 Z"/></g>
<g><path style="opacity:1" fill="#8f6cf6" d="M 125.5,410.5 C 127.861,410.674 130.194,411.007 132.5,411.5C 131.326,420.54 129.826,429.54 128,438.5C 125.959,439.423 123.792,439.756 121.5,439.5C 122.291,429.755 123.624,420.088 125.5,410.5 Z"/></g>
<g><path style="opacity:1" fill="#8a66f5" d="M 242.5,411.5 C 244.5,411.833 246.5,412.167 248.5,412.5C 246.497,421.516 244.497,430.516 242.5,439.5C 240.473,439.662 238.473,439.495 236.5,439C 235.978,438.439 235.645,437.772 235.5,437C 237.464,428.353 239.798,419.853 242.5,411.5 Z"/></g>
<g><path style="opacity:1" fill="#808080" d="M 890.5,427.5 C 873.453,427.195 856.453,427.528 839.5,428.5C 839.611,427.883 839.944,427.383 840.5,427C 857.338,426.172 874.005,426.338 890.5,427.5 Z"/></g>
<g><path style="opacity:1" fill="#8b67f5" d="M 748.5,426.5 C 749.496,426.414 750.329,426.748 751,427.5C 753.475,436.684 754.975,446.018 755.5,455.5C 752.921,455.917 750.754,455.25 749,453.5C 747.561,444.806 746.061,436.139 744.5,427.5C 746.099,427.768 747.432,427.434 748.5,426.5 Z"/></g>
<g><path style="opacity:1" fill="#4a4a4a" d="M 890.5,427.5 C 893.016,427.755 895.35,428.589 897.5,430C 904,436.5 910.5,443 917,449.5C 918,451.5 919,453.5 920,455.5C 920.98,479.588 920.646,503.588 919,527.5C 918.5,528 918,528.5 917.5,529C 891.833,529.667 866.167,529.667 840.5,529C 839.619,528.292 838.953,527.458 838.5,526.5C 838.5,521.167 838.5,515.833 838.5,510.5C 831.5,510.5 824.5,510.5 817.5,510.5C 817.5,496.833 817.5,483.167 817.5,469.5C 824.167,469.5 830.833,469.5 837.5,469.5C 837.333,456.163 837.5,442.829 838,429.5C 838.383,428.944 838.883,428.611 839.5,428.5C 856.453,427.528 873.453,427.195 890.5,427.5 Z"/></g>
<g><path style="opacity:1" fill="#d0d0d0" d="M 888.5,458.5 C 887.508,451.018 887.175,443.352 887.5,435.5C 873.833,435.5 860.167,435.5 846.5,435.5C 846.5,446.833 846.5,458.167 846.5,469.5C 845.505,458.012 845.172,446.345 845.5,434.5C 859.833,434.5 874.167,434.5 888.5,434.5C 888.5,442.5 888.5,450.5 888.5,458.5 Z"/></g>
<g><path style="opacity:1" fill="#fcfcfc" d="M 888.5,458.5 C 896.167,458.5 903.833,458.5 911.5,458.5C 911.5,479.5 911.5,500.5 911.5,521.5C 889.833,521.5 868.167,521.5 846.5,521.5C 846.5,518.167 846.5,514.833 846.5,511.5C 863.342,511.83 880.008,511.497 896.5,510.5C 896.5,496.833 896.5,483.167 896.5,469.5C 879.833,469.5 863.167,469.5 846.5,469.5C 846.5,458.167 846.5,446.833 846.5,435.5C 860.167,435.5 873.833,435.5 887.5,435.5C 887.175,443.352 887.508,451.018 888.5,458.5 Z"/></g>
<g><path style="opacity:1" fill="#fcfdfd" d="M 418.5,442.5 C 424.842,442.334 431.175,442.5 437.5,443C 445.679,445.68 449.346,451.347 448.5,460C 449.642,469.066 445.975,475.066 437.5,478C 431.175,478.5 424.842,478.666 418.5,478.5C 418.5,466.5 418.5,454.5 418.5,442.5 Z"/></g>
<g><path style="opacity:1" fill="#f9fcfc" d="M 483.5,442.5 C 485.5,442.5 487.5,442.5 489.5,442.5C 489.334,446.514 489.501,450.514 490,454.5C 497.948,449.589 504.282,451.255 509,459.5C 511.344,467.964 508.844,474.464 501.5,479C 497.256,480.013 493.423,479.18 490,476.5C 488.246,478.25 486.079,478.917 483.5,478.5C 483.5,466.5 483.5,454.5 483.5,442.5 Z"/></g>
<g><path style="opacity:1" fill="#f9fcfc" d="M 514.5,442.5 C 516.5,442.5 518.5,442.5 520.5,442.5C 520.334,446.514 520.501,450.514 521,454.5C 528.948,449.589 535.282,451.255 540,459.5C 542.344,467.964 539.844,474.464 532.5,479C 528.256,480.013 524.423,479.18 521,476.5C 519.246,478.25 517.079,478.917 514.5,478.5C 514.5,466.5 514.5,454.5 514.5,442.5 Z"/></g>
<g><path style="opacity:1" fill="#73d1da" d="M 424.5,447.5 C 438.354,445.853 444.188,451.853 442,465.5C 441.208,467.587 440.041,469.421 438.5,471C 433.934,472.309 429.267,472.809 424.5,472.5C 424.5,464.167 424.5,455.833 424.5,447.5 Z"/></g>
<g><path style="opacity:1" fill="#fafcfd" d="M 551.5,451.5 C 566.566,451.061 572.066,458.061 568,472.5C 566.833,475 565,476.833 562.5,478C 547.689,480.522 541.522,474.355 544,459.5C 545.69,455.979 548.19,453.312 551.5,451.5 Z"/></g>
<g><path style="opacity:1" fill="#fcfdfd" d="M 454.5,452.5 C 456.5,452.5 458.5,452.5 460.5,452.5C 460.334,458.842 460.5,465.175 461,471.5C 465.044,475.501 468.377,474.835 471,469.5C 471.499,463.843 471.666,458.176 471.5,452.5C 473.5,452.5 475.5,452.5 477.5,452.5C 477.5,461.167 477.5,469.833 477.5,478.5C 474.856,478.84 472.523,478.173 470.5,476.5C 466.771,478.508 462.771,479.008 458.5,478C 457.667,477.167 456.833,476.333 456,475.5C 454.568,467.946 454.068,460.279 454.5,452.5 Z"/></g>
<g><path style="opacity:1" fill="#505050" d="M 150.5,451.5 C 151.777,452.694 152.444,454.36 152.5,456.5C 152.333,458.167 152.167,459.833 152,461.5C 146.646,467.353 141.48,473.353 136.5,479.5C 134.926,480.631 133.259,480.798 131.5,480C 128.346,477.257 125.012,474.757 121.5,472.5C 112.533,480.132 103.866,488.132 95.5,496.5C 94.343,493.216 94.1764,489.882 95,486.5C 103.47,479.031 111.637,471.198 119.5,463C 124.082,465.392 128.582,468.226 133,471.5C 139.019,464.982 144.852,458.315 150.5,451.5 Z"/></g>
<g><path style="opacity:1" fill="#72d1da" d="M 493.5,456.5 C 501.152,456.763 504.319,460.763 503,468.5C 499.128,474.756 494.795,475.089 490,469.5C 488.668,464.415 489.835,460.081 493.5,456.5 Z"/></g>
<g><path style="opacity:1" fill="#72d1da" d="M 524.5,456.5 C 532.152,456.763 535.319,460.763 534,468.5C 530.128,474.756 525.795,475.089 521,469.5C 519.668,464.415 520.835,460.081 524.5,456.5 Z"/></g>
<g><path style="opacity:1" fill="#72d1da" d="M 553.5,456.5 C 561.642,456.481 564.808,460.481 563,468.5C 560.928,473.143 557.428,474.643 552.5,473C 548.325,467.231 548.658,461.731 553.5,456.5 Z"/></g>
<g><path style="opacity:1" fill="#b9a4f8" d="M 236.5,461.5 C 235.167,461.5 233.833,461.5 232.5,461.5C 232.768,463.099 232.434,464.432 231.5,465.5C 231.5,463.833 231.5,462.167 231.5,460.5C 233.415,460.216 235.081,460.549 236.5,461.5 Z"/></g>
<g><path style="opacity:1" fill="#8a67f5" d="M 236.5,461.5 C 237.787,462.871 238.453,464.705 238.5,467C 237.196,481.503 237.196,496.003 238.5,510.5C 238.22,514.821 235.886,516.487 231.5,515.5C 230.25,498.828 230.25,482.162 231.5,465.5C 232.434,464.432 232.768,463.099 232.5,461.5C 233.833,461.5 235.167,461.5 236.5,461.5 Z"/></g>
<g><path style="opacity:1" fill="#8966f5" d="M 758.5,503.5 C 756.544,505.148 754.211,505.815 751.5,505.5C 751.5,496.167 751.5,486.833 751.5,477.5C 753.833,477.5 756.167,477.5 758.5,477.5C 758.5,486.167 758.5,494.833 758.5,503.5 Z"/></g>
<g><path style="opacity:1" fill="#9e9e9e" d="M 817.5,469.5 C 817.5,483.167 817.5,496.833 817.5,510.5C 824.5,510.5 831.5,510.5 838.5,510.5C 838.5,515.833 838.5,521.167 838.5,526.5C 837.513,521.695 837.179,516.695 837.5,511.5C 830.5,511.5 823.5,511.5 816.5,511.5C 816.171,497.323 816.504,483.323 817.5,469.5 Z"/></g>
<g><path style="opacity:1" fill="#ededed" d="M 848.5,478.5 C 862.683,478.856 866.85,485.523 861,498.5C 847.161,504.697 841.161,500.03 843,484.5C 844.36,481.977 846.193,479.977 848.5,478.5 Z"/></g>
<g><path style="opacity:1" fill="#fbfbfb" d="M 832.5,479.5 C 832.5,485.5 832.5,491.5 832.5,497.5C 835.167,497.5 837.833,497.5 840.5,497.5C 840.5,498.5 840.5,499.5 840.5,500.5C 836.5,500.5 832.5,500.5 828.5,500.5C 828.5,493.5 828.5,486.5 828.5,479.5C 829.833,479.5 831.167,479.5 832.5,479.5 Z"/></g>
<g><path style="opacity:1" fill="#e8e8e8" d="M 874.5,478.5 C 877.833,478.5 881.167,478.5 884.5,478.5C 884.5,479.833 884.5,481.167 884.5,482.5C 872.182,481.658 869.182,486.491 875.5,497C 877.134,497.494 878.801,497.66 880.5,497.5C 880.5,496.167 880.5,494.833 880.5,493.5C 879.5,493.5 878.5,493.5 877.5,493.5C 877.5,492.167 877.5,490.833 877.5,489.5C 880.167,489.5 882.833,489.5 885.5,489.5C 885.793,493.437 885.46,497.27 884.5,501C 870.897,503.398 865.397,497.898 868,484.5C 869.914,482.144 872.081,480.144 874.5,478.5 Z"/></g>
<g><path style="opacity:1" fill="#505050" d="M 850.5,482.5 C 857.809,482.666 860.309,486.333 858,493.5C 854.667,498.833 851.333,498.833 848,493.5C 846.946,489.345 847.78,485.678 850.5,482.5 Z"/></g>
<g><path style="opacity:1" fill="#b1b1b1" d="M 832.5,479.5 C 831.167,479.5 829.833,479.5 828.5,479.5C 828.5,486.5 828.5,493.5 828.5,500.5C 832.5,500.5 836.5,500.5 840.5,500.5C 840.5,499.5 840.5,498.5 840.5,497.5C 841.434,498.568 841.768,499.901 841.5,501.5C 836.833,501.5 832.167,501.5 827.5,501.5C 827.5,493.833 827.5,486.167 827.5,478.5C 829.415,478.216 831.081,478.549 832.5,479.5 Z"/></g>
<g><path style="opacity:1" fill="#fafcfd" d="M 431.5,502.5 C 434.167,502.5 436.833,502.5 439.5,502.5C 443.535,514.244 447.868,525.911 452.5,537.5C 450.235,538.647 447.902,538.814 445.5,538C 444.361,534.917 443.028,531.917 441.5,529C 437.167,528.333 432.833,528.333 428.5,529C 427.167,532 425.833,535 424.5,538C 422.527,538.495 420.527,538.662 418.5,538.5C 422.262,526.306 426.596,514.306 431.5,502.5 Z"/></g>
<g><path style="opacity:1" fill="#f6fbfc" d="M 473.5,502.5 C 475.833,502.5 478.167,502.5 480.5,502.5C 480.5,514.5 480.5,526.5 480.5,538.5C 477.856,538.84 475.523,538.173 473.5,536.5C 469.432,538.524 465.098,539.024 460.5,538C 457.945,536.445 456.112,534.278 455,531.5C 454.112,526.382 454.445,521.382 456,516.5C 460.632,511.098 466.132,510.098 472.5,513.5C 473.489,509.893 473.823,506.226 473.5,502.5 Z"/></g>
<g><path style="opacity:1" fill="#f6fbfc" d="M 529.5,502.5 C 531.5,502.5 533.5,502.5 535.5,502.5C 535.5,504.5 535.5,506.5 535.5,508.5C 533.5,508.5 531.5,508.5 529.5,508.5C 529.5,506.5 529.5,504.5 529.5,502.5 Z"/></g>
<g><path style="opacity:1" fill="#c5b3f8" d="M 758.5,503.5 C 758.5,504.5 758.5,505.5 758.5,506.5C 755.941,506.802 753.607,506.468 751.5,505.5C 754.211,505.815 756.544,505.148 758.5,503.5 Z"/></g>
<g><path style="opacity:1" fill="#6c6c6c" d="M 90.5,503.5 C 111.167,503.5 131.833,503.5 152.5,503.5C 152.917,506.079 152.25,508.246 150.5,510C 128.833,510.667 107.167,510.667 85.5,510C 85,509.5 84.5,509 84,508.5C 83.1669,486.159 83.3336,463.826 84.5,441.5C 86.3707,440.233 88.2041,440.233 90,441.5C 90.5,462.164 90.6666,482.831 90.5,503.5 Z"/></g>
<g><path style="opacity:1" fill="#464646" d="M 90.5,503.5 C 110.66,504.497 130.993,504.83 151.5,504.5C 151.5,505.833 151.5,507.167 151.5,508.5C 129.5,508.5 107.5,508.5 85.5,508.5C 85.5,486.5 85.5,464.5 85.5,442.5C 86.8333,442.5 88.1667,442.5 89.5,442.5C 89.1695,463.007 89.5028,483.34 90.5,503.5 Z"/></g>
<g><path style="opacity:1" fill="#c3c3c3" d="M 896.5,510.5 C 880.008,511.497 863.342,511.83 846.5,511.5C 846.5,514.833 846.5,518.167 846.5,521.5C 846.167,521.5 845.833,521.5 845.5,521.5C 845.5,517.833 845.5,514.167 845.5,510.5C 862.5,510.5 879.5,510.5 896.5,510.5 Z"/></g>
<g><path style="opacity:1" fill="#74d1db" d="M 434.5,510.5 C 437.12,514.343 438.787,518.676 439.5,523.5C 436.5,523.5 433.5,523.5 430.5,523.5C 431.546,519.076 432.879,514.743 434.5,510.5 Z"/></g>
<g><path style="opacity:1" fill="#fafcfd" d="M 495.5,511.5 C 499.634,510.943 503.301,511.943 506.5,514.5C 512.775,509.972 518.275,510.639 523,516.5C 523.5,523.826 523.666,531.159 523.5,538.5C 521.5,538.5 519.5,538.5 517.5,538.5C 517.666,532.158 517.5,525.825 517,519.5C 516.521,517.354 515.188,516.354 513,516.5C 510.695,516.484 509.028,517.484 508,519.5C 507.5,525.825 507.334,532.158 507.5,538.5C 505.5,538.5 503.5,538.5 501.5,538.5C 501.666,532.158 501.5,525.825 501,519.5C 498.182,515.576 495.182,515.576 492,519.5C 491.5,525.825 491.334,532.158 491.5,538.5C 489.5,538.5 487.5,538.5 485.5,538.5C 485.5,529.833 485.5,521.167 485.5,512.5C 488.079,512.083 490.246,512.75 492,514.5C 493.145,513.364 494.312,512.364 495.5,511.5 Z"/></g>
<g><path style="opacity:1" fill="#fcfdfd" d="M 552.5,511.5 C 557.901,510.342 562.067,512.009 565,516.5C 565.5,523.826 565.666,531.159 565.5,538.5C 563.5,538.5 561.5,538.5 559.5,538.5C 559.666,532.158 559.5,525.825 559,519.5C 555.206,515.259 551.873,515.592 549,520.5C 548.501,526.491 548.334,532.491 548.5,538.5C 546.5,538.5 544.5,538.5 542.5,538.5C 542.5,529.833 542.5,521.167 542.5,512.5C 545.079,512.083 547.246,512.75 549,514.5C 550.145,513.364 551.312,512.364 552.5,511.5 Z"/></g>
<g><path style="opacity:1" fill="#fdfdfd" d="M 529.5,512.5 C 531.5,512.5 533.5,512.5 535.5,512.5C 535.5,521.167 535.5,529.833 535.5,538.5C 533.5,538.5 531.5,538.5 529.5,538.5C 529.5,529.833 529.5,521.167 529.5,512.5 Z"/></g>
<g><path style="opacity:1" fill="#70d0d9" d="M 464.5,516.5 C 468.355,515.845 471.188,517.179 473,520.5C 474.193,525.152 473.36,529.319 470.5,533C 461.906,534.058 458.739,530.225 461,521.5C 461.997,519.677 463.164,518.01 464.5,516.5 Z"/></g>
<g><path style="opacity:1" fill="#8b68f5" d="M 120.5,518.5 C 122.766,518.141 124.599,518.808 126,520.5C 126.752,529.515 127.585,538.515 128.5,547.5C 126.167,547.5 123.833,547.5 121.5,547.5C 120.909,538.44 119.909,529.44 118.5,520.5C 119.243,519.818 119.909,519.151 120.5,518.5 Z"/></g>
<g><path style="opacity:1" fill="#919191" d="M 911.5,458.5 C 912.497,479.66 912.831,500.993 912.5,522.5C 889.994,522.831 867.66,522.497 845.5,521.5C 845.833,521.5 846.167,521.5 846.5,521.5C 868.167,521.5 889.833,521.5 911.5,521.5C 911.5,500.5 911.5,479.5 911.5,458.5 Z"/></g>
<g><path style="opacity:1" fill="#8d69f5" d="M 748.5,527.5 C 750.527,527.338 752.527,527.505 754.5,528C 755.022,528.561 755.355,529.228 755.5,530C 754.064,538.894 752.397,547.727 750.5,556.5C 748.194,556.007 745.861,555.674 743.5,555.5C 745.166,546.171 746.833,536.837 748.5,527.5 Z"/></g>
<g><path style="opacity:1" fill="#8b67f5" d="M 240.5,535.5 C 243.065,544.576 245.732,553.743 248.5,563C 246.341,563.912 244.175,564.745 242,565.5C 238.493,556.129 236.326,546.463 235.5,536.5C 237.415,536.784 239.081,536.451 240.5,535.5 Z"/></g>
<g><path style="opacity:1" fill="#8e6bf6" d="M 855.5,536.5 C 857.924,536.192 860.257,536.526 862.5,537.5C 861.168,546.824 859.835,556.158 858.5,565.5C 856.139,565.326 853.806,564.993 851.5,564.5C 852.447,555.099 853.781,545.766 855.5,536.5 Z"/></g>
<g><path style="opacity:1" fill="#8864f5" d="M 736.5,575.5 C 738.924,576.03 741.257,576.864 743.5,578C 740.538,584.761 737.704,591.594 735,598.5C 733.585,604.124 730.751,604.957 726.5,601C 730.212,592.651 733.546,584.151 736.5,575.5 Z"/></g>
<g><path style="opacity:1" fill="#8a67f5" d="M 251.5,584.5 C 253.144,584.286 254.644,584.62 256,585.5C 258.952,593.405 262.452,601.072 266.5,608.5C 264.971,610.188 263.137,611.521 261,612.5C 256.633,604.431 252.8,596.098 249.5,587.5C 249.942,586.261 250.609,585.261 251.5,584.5 Z"/></g>
<g><path style="opacity:1" fill="#8865f5" d="M 845.5,585.5 C 848.059,585.39 850.392,586.056 852.5,587.5C 849.82,596.237 847.153,604.904 844.5,613.5C 842.801,613.66 841.134,613.494 839.5,613C 838.941,612.275 838.608,611.442 838.5,610.5C 841.451,602.316 843.785,593.983 845.5,585.5 Z"/></g>
<g><path style="opacity:1" fill="#8b68f5" d="M 143.5,616.5 C 144.978,616.238 146.311,616.571 147.5,617.5C 150.638,625.581 153.971,633.581 157.5,641.5C 155.649,643.456 153.316,644.456 150.5,644.5C 147.463,636.086 144.13,627.753 140.5,619.5C 141.34,618.265 142.34,617.265 143.5,616.5 Z"/></g>
<g><path style="opacity:1" fill="#8864f5" d="M 715.5,620.5 C 717.853,621.34 719.853,622.674 721.5,624.5C 716.829,632.512 711.662,640.179 706,647.5C 704.027,646.36 702.193,645.027 700.5,643.5C 706.742,636.602 711.742,628.935 715.5,620.5 Z"/></g>
<g><path style="opacity:1" fill="#8a66f5" d="M 275.5,628.5 C 276.675,628.281 277.675,628.614 278.5,629.5C 282.753,636.586 287.586,643.253 293,649.5C 293.163,651.387 292.329,652.887 290.5,654C 289.365,654.749 288.365,654.583 287.5,653.5C 281.901,646.737 276.901,639.57 272.5,632C 273.544,630.826 274.544,629.659 275.5,628.5 Z"/></g>
<g><path style="opacity:1" fill="#8763f5" d="M 829.5,632.5 C 831.757,632.962 833.757,633.962 835.5,635.5C 831.878,644.04 827.878,652.374 823.5,660.5C 821.453,659.815 819.786,658.649 818.5,657C 822.613,648.949 826.279,640.782 829.5,632.5 Z"/></g>
<g><path style="opacity:1" fill="#8764f5" d="M 686.5,660.5 C 689.073,661.879 690.573,663.879 691,666.5C 684.667,672.833 678.333,679.167 672,685.5C 669.705,683.92 668.372,681.92 668,679.5C 675.041,673.96 681.207,667.627 686.5,660.5 Z"/></g>
<g><path style="opacity:1" fill="#8b67f5" d="M 166.5,661.5 C 171.6,669.519 176.6,677.686 181.5,686C 179.751,687.292 177.918,688.458 176,689.5C 170.915,681.666 166.082,673.666 161.5,665.5C 163.015,663.918 164.681,662.584 166.5,661.5 Z"/></g>
<g><path style="opacity:1" fill="#8864f5" d="M 307.5,667.5 C 314.181,674.181 321.181,680.514 328.5,686.5C 327.185,688.316 325.685,689.983 324,691.5C 316.864,685.365 310.031,678.865 303.5,672C 305.041,670.629 306.375,669.129 307.5,667.5 Z"/></g>
<g><path style="opacity:1" fill="#8864f5" d="M 806.5,677.5 C 808.5,677.833 810.5,678.167 812.5,678.5C 812.245,681.016 811.411,683.35 810,685.5C 806.028,691.798 801.695,697.798 797,703.5C 795.049,703.112 793.549,702.112 792.5,700.5C 797.44,692.944 802.107,685.278 806.5,677.5 Z"/></g>
<g><path style="opacity:1" fill="#8a67f5" d="M 649.5,694.5 C 651.193,695.475 652.693,696.808 654,698.5C 654.667,699.167 654.667,699.833 654,700.5C 647.5,705 641,709.5 634.5,714C 630.897,715.965 628.564,714.798 627.5,710.5C 635.255,705.635 642.588,700.301 649.5,694.5 Z"/></g>
<g><path style="opacity:1" fill="#8763f5" d="M 344.5,700.5 C 345.552,700.351 346.552,700.517 347.5,701C 354.495,706.166 361.828,710.833 369.5,715C 368.333,716.833 367.167,718.667 366,720.5C 357.709,715.944 349.875,710.777 342.5,705C 343.414,703.594 344.08,702.094 344.5,700.5 Z"/></g>
<g><path style="opacity:1" fill="#8965f5" d="M 192.5,704.5 C 193.496,704.414 194.329,704.748 195,705.5C 199.974,712.641 205.14,719.641 210.5,726.5C 208.851,727.648 207.351,728.981 206,730.5C 199.398,723.274 193.732,715.607 189,707.5C 190.145,706.364 191.312,705.364 192.5,704.5 Z"/></g>
<g><path style="opacity:1" fill="#8865f5" d="M 778.5,717.5 C 780.34,719.168 782.34,720.668 784.5,722C 778.292,728.539 772.459,735.373 767,742.5C 766.282,743.451 765.449,743.617 764.5,743C 763.167,741.667 761.833,740.333 760.5,739C 767.111,732.233 773.111,725.067 778.5,717.5 Z"/></g>
<g><path style="opacity:1" fill="#8b68f5" d="M 607.5,720.5 C 609.96,722.398 610.96,724.731 610.5,727.5C 603.283,730.942 595.95,734.109 588.5,737C 585.042,737.676 583.042,736.176 582.5,732.5C 582.833,732.167 583.167,731.833 583.5,731.5C 591.829,728.332 599.829,724.665 607.5,720.5 Z"/></g>
<g><path style="opacity:1" fill="#8864f5" d="M 388.5,724.5 C 396.645,728.217 404.978,731.55 413.5,734.5C 414.231,736.401 414.231,738.401 413.5,740.5C 410.729,740.579 408.063,740.079 405.5,739C 399.363,736.01 393.029,733.51 386.5,731.5C 386.878,729.079 387.545,726.746 388.5,724.5 Z"/></g>
<g><path style="opacity:1" fill="#8b68f5" d="M 559.5,738.5 C 560.5,738.5 561.5,738.5 562.5,738.5C 562.993,740.806 563.326,743.139 563.5,745.5C 554.261,747.681 544.928,749.348 535.5,750.5C 535.007,748.194 534.674,745.861 534.5,743.5C 543.164,742.912 551.497,741.245 559.5,738.5 Z"/></g>
<g><path style="opacity:1" fill="#8c69f5" d="M 435.5,740.5 C 444.8,742.164 454.133,743.831 463.5,745.5C 463.162,747.854 462.662,750.187 462,752.5C 452.791,751.215 443.624,749.548 434.5,747.5C 434.298,745.05 434.631,742.717 435.5,740.5 Z"/></g>
<g><path style="opacity:1" fill="#8a67f5" d="M 224.5,742.5 C 231.352,748.967 238.352,755.467 245.5,762C 244.12,763.925 242.62,765.759 241,767.5C 234.221,760.721 227.387,753.887 220.5,747C 222.041,745.629 223.375,744.129 224.5,742.5 Z"/></g>
<g><path style="opacity:1" fill="#8d6af5" d="M 507.5,746.5 C 509.5,746.5 511.5,746.5 513.5,746.5C 513.5,748.833 513.5,751.167 513.5,753.5C 503.861,754.36 494.194,754.693 484.5,754.5C 484.5,752.167 484.5,749.833 484.5,747.5C 492.352,747.825 500.018,747.492 507.5,746.5 Z"/></g>
<g><path style="opacity:1" fill="#8a66f5" d="M 744.5,754.5 C 746.193,755.475 747.693,756.808 749,758.5C 749.667,759.167 749.667,759.833 749,760.5C 742.315,766.686 735.482,772.686 728.5,778.5C 726.549,776.771 725.382,774.771 725,772.5C 732.239,767.298 738.739,761.298 744.5,754.5 Z"/></g>
<g><path style="opacity:1" fill="#8a67f5" d="M 483.5,760.5 C 531.289,758.633 565.789,778.966 587,821.5C 589.462,828.016 591.295,834.683 592.5,841.5C 601.329,839.447 609.996,836.78 618.5,833.5C 619.877,835.289 620.877,837.289 621.5,839.5C 612.34,843.164 603.007,846.331 593.5,849C 596.349,888.631 581.682,919.964 549.5,943C 505.337,967.86 464.004,963.86 425.5,931C 398.024,901.598 389.524,867.764 400,829.5C 414.632,790.298 442.466,767.298 483.5,760.5 Z"/></g>
<g><path style="opacity:1" fill="#fcfcfd" d="M 483.5,765.5 C 509.497,762.995 532.83,769.495 553.5,785C 556.919,789.61 561.253,792.776 566.5,794.5C 566.343,795.873 566.51,797.207 567,798.5C 593.122,832.703 596.456,869.037 577,907.5C 572.959,912.932 569.459,918.599 566.5,924.5C 562.528,925.949 559.194,928.449 556.5,932C 516.025,961.56 475.358,961.893 434.5,933C 410.697,911.547 399.364,884.714 400.5,852.5C 407.209,853.618 413.876,854.952 420.5,856.5C 422.171,854.49 422.838,852.157 422.5,849.5C 416.45,848.657 410.45,847.49 404.5,846C 403.316,844.82 402.649,843.32 402.5,841.5C 410.082,807.419 430.082,783.919 462.5,771C 469.509,768.666 476.509,766.833 483.5,765.5 Z"/></g>
<g><path style="opacity:1" fill="#8764f5" d="M 261.5,776.5 C 269.103,781.589 276.603,786.922 284,792.5C 283.602,794.631 282.602,796.631 281,798.5C 273.214,793.049 265.714,787.215 258.5,781C 259.883,779.729 260.883,778.229 261.5,776.5 Z"/></g>
<g><path style="opacity:1" fill="#8a67f5" d="M 706.5,786.5 C 707.885,787.574 709.051,788.907 710,790.5C 710.667,791.167 710.667,791.833 710,792.5C 702.609,798.223 694.943,803.556 687,808.5C 686.086,806.336 684.919,804.336 683.5,802.5C 691.408,797.391 699.074,792.057 706.5,786.5 Z"/></g>
<g><path style="opacity:1" fill="#c1c3c9" d="M 514.5,794.5 C 496.786,794.194 479.12,794.527 461.5,795.5C 461.611,794.883 461.944,794.383 462.5,794C 480.005,793.171 497.338,793.338 514.5,794.5 Z"/></g>
<g><path style="opacity:1" fill="#161e36" d="M 514.5,794.5 C 527.131,807.632 539.965,820.632 553,833.5C 553.667,859.5 553.667,885.5 553,911.5C 551.536,918.298 547.369,922.464 540.5,924C 514.167,924.667 487.833,924.667 461.5,924C 456.792,922.622 453.292,919.788 451,915.5C 449.359,879.547 449.026,843.547 450,807.5C 451.278,801.056 455.111,797.056 461.5,795.5C 479.12,794.527 496.786,794.194 514.5,794.5 Z"/></g>
<g><path style="opacity:1" fill="#f9f9fa" d="M 463.5,800.5 C 479.5,800.5 495.5,800.5 511.5,800.5C 505.857,830.19 517.857,842.19 547.5,836.5C 547.667,860.836 547.5,885.169 547,909.5C 546.27,913.896 543.77,916.73 539.5,918C 514.167,918.667 488.833,918.667 463.5,918C 459.23,916.73 456.73,913.896 456,909.5C 455.333,876.167 455.333,842.833 456,809.5C 456.923,805.086 459.423,802.086 463.5,800.5 Z"/></g>
<g><path style="opacity:1" fill="#8965f5" d="M 301.5,805.5 C 304.181,805.462 306.681,806.129 309,807.5C 315.035,811.363 321.201,815.03 327.5,818.5C 326.752,820.332 325.752,821.999 324.5,823.5C 316.505,819.837 308.838,815.671 301.5,811C 300.862,809.293 300.862,807.46 301.5,805.5 Z"/></g>
<g><path style="opacity:1" fill="#f9f9fa" d="M 517.5,807.5 C 525.298,814.798 532.965,822.298 540.5,830C 521.824,833.824 514.157,826.324 517.5,807.5 Z"/></g>
<g><path style="opacity:1" fill="#8b68f5" d="M 662.5,813.5 C 665.69,814.208 667.19,816.208 667,819.5C 659.033,823.9 650.866,827.9 642.5,831.5C 640.673,829.513 639.673,827.179 639.5,824.5C 647.59,821.621 655.257,817.954 662.5,813.5 Z"/></g>
<g><path style="opacity:1" fill="#8a66f5" d="M 347.5,827.5 C 356.058,830.806 364.724,833.806 373.5,836.5C 373.326,838.861 372.993,841.194 372.5,843.5C 363.579,840.203 354.579,837.203 345.5,834.5C 345.878,832.079 346.545,829.746 347.5,827.5 Z"/></g>
<g><path style="opacity:1" fill="#8b68f5" d="M 568.5,847.5 C 569.675,847.281 570.675,847.614 571.5,848.5C 572.348,850.409 572.682,852.409 572.5,854.5C 570.5,854.833 568.5,855.167 566.5,855.5C 566.132,852.467 566.798,849.8 568.5,847.5 Z"/></g>
<g><path style="opacity:1" fill="#20263d" d="M 477.5,862.5 C 484.841,862.334 492.174,862.5 499.5,863C 502.167,865 502.167,867 499.5,869C 492.167,869.667 484.833,869.667 477.5,869C 474.939,866.844 474.939,864.677 477.5,862.5 Z"/></g>
<g><path style="opacity:1" fill="#20263c" d="M 477.5,875.5 C 493.503,875.333 509.503,875.5 525.5,876C 528.167,878 528.167,880 525.5,882C 509.5,882.667 493.5,882.667 477.5,882C 474.939,879.844 474.939,877.677 477.5,875.5 Z"/></g>
<g><path style="opacity:1" fill="#20263d" d="M 477.5,888.5 C 493.503,888.333 509.503,888.5 525.5,889C 528.167,891 528.167,893 525.5,895C 509.5,895.667 493.5,895.667 477.5,895C 474.939,892.844 474.939,890.677 477.5,888.5 Z"/></g>
</svg>
