<?xml version="1.0" encoding="UTF-8"?>
<!DOCTYPE svg PUBLIC "-//W3C//DTD SVG 1.1//EN" "http://www.w3.org/Graphics/SVG/1.1/DTD/svg11.dtd">
<svg xmlns="http://www.w3.org/2000/svg" version="1.1" width="1192px" height="1192px" style="shape-rendering:geometricPrecision; text-rendering:geometricPrecision; image-rendering:optimizeQuality; fill-rule:evenodd; clip-rule:evenodd" xmlns:xlink="http://www.w3.org/1999/xlink">
<g><path style="opacity:1" fill="#fdfdfd" d="M -0.5,-0.5 C 396.833,-0.5 794.167,-0.5 1191.5,-0.5C 1191.5,396.833 1191.5,794.167 1191.5,1191.5C 794.167,1191.5 396.833,1191.5 -0.5,1191.5C -0.5,794.167 -0.5,396.833 -0.5,-0.5 Z"/></g>
<g><path style="opacity:1" fill="#5ecbd5" d="M 599.5,8.5 C 633.117,40.7831 666.451,73.4498 699.5,106.5C 666.401,138.43 633.401,170.597 600.5,203C 604.688,203.176 608.688,203.676 612.5,204.5C 484.887,203.072 380.053,250.739 298,347.5C 240.938,418.663 211.771,499.997 210.5,591.5C 178.203,558.035 145.703,524.702 113,491.5C 81.104,524.9 48.9373,558.233 16.5,591.5C 20.1942,411.98 89.1942,263.48 223.5,146C 332.116,56.0566 457.449,10.2232 599.5,8.5 Z"/></g>
<g><path style="opacity:1" fill="#4facb9" d="M 599.5,8.5 C 781.958,11.8183 932.125,82.8183 1050,221.5C 1136.82,329.43 1180.99,453.097 1182.5,592.5C 1181.5,592.833 1180.83,593.5 1180.5,594.5C 1149.23,627.605 1117.73,660.605 1086,693.5C 1052.94,659.938 1020.1,626.271 987.5,592.5C 983.981,456.602 927.314,349.436 817.5,271C 755.506,229.725 687.173,207.559 612.5,204.5C 608.688,203.676 604.688,203.176 600.5,203C 633.401,170.597 666.401,138.43 699.5,106.5C 666.451,73.4498 633.117,40.7831 599.5,8.5 Z"/></g>
<g><path style="opacity:1" fill="#f7fbfb" d="M 898.5,183.5 C 910.209,182.543 916.876,187.876 918.5,199.5C 916.94,199.519 915.44,199.852 914,200.5C 912.135,196.625 909.635,193.125 906.5,190C 902.167,188.511 899.833,190.011 899.5,194.5C 900.987,198.813 902.487,203.147 904,207.5C 904.364,215.98 900.197,220.646 891.5,221.5C 881.846,218.843 876.513,212.51 875.5,202.5C 877.833,202.5 880.167,202.5 882.5,202.5C 882.33,207.503 884.33,211.337 888.5,214C 895.56,215.271 898.06,212.438 896,205.5C 889.153,197.034 889.986,189.7 898.5,183.5 Z"/></g>
<g><path style="opacity:1" fill="#fdfdfd" d="M 612.5,204.5 C 687.173,207.559 755.506,229.725 817.5,271C 927.314,349.436 983.981,456.602 987.5,592.5C 986.107,706.896 943.774,803.063 860.5,881C 790.272,943.422 707.939,976.589 613.5,980.5C 603.5,980.5 593.5,980.5 583.5,980.5C 452.426,972.561 349.593,914.894 275,807.5C 232.436,741.934 210.936,669.934 210.5,591.5C 211.771,499.997 240.938,418.663 298,347.5C 380.053,250.739 484.887,203.072 612.5,204.5 Z"/></g>
<g><path style="opacity:1" fill="#fafcfc" d="M 924.5,206.5 C 926.681,206.284 928.347,207.117 929.5,209C 927.316,211.016 925.316,213.183 923.5,215.5C 925.167,217.5 926.833,219.5 928.5,221.5C 927.833,222.833 926.833,223.833 925.5,224.5C 923.5,222.833 921.5,221.167 919.5,219.5C 915.515,222.984 911.682,226.651 908,230.5C 908.746,233.728 909.579,237.061 910.5,240.5C 902.998,239.839 899.831,235.839 901,228.5C 905.333,224.167 909.667,219.833 914,215.5C 914.115,213.893 913.615,212.393 912.5,211C 912.645,210.228 912.978,209.561 913.5,209C 915.178,209.112 916.845,209.612 918.5,210.5C 920.789,209.535 922.789,208.202 924.5,206.5 Z"/></g>
<g><path style="opacity:1" fill="#fafdfd" d="M 258.5,218.5 C 260.5,218.5 262.5,218.5 264.5,218.5C 264.5,220.5 264.5,222.5 264.5,224.5C 258.663,225.17 254.496,228.17 252,233.5C 251.295,244.637 256.462,251.303 267.5,253.5C 275.321,252.014 279.654,247.348 280.5,239.5C 282.5,239.5 284.5,239.5 286.5,239.5C 286.821,247.024 283.821,252.857 277.5,257C 262.392,263.204 251.558,258.704 245,243.5C 243.746,232.006 248.246,223.672 258.5,218.5 Z"/></g>
<g><path style="opacity:1" fill="#f8fbfc" d="M 931.5,224.5 C 935.593,226.258 936.259,228.758 933.5,232C 936.623,232.206 939.623,232.873 942.5,234C 944.916,237.026 944.083,239.193 940,240.5C 938.225,239.73 936.725,238.563 935.5,237C 933.5,236.333 931.5,236.333 929.5,237C 925,241.5 920.5,246 916,250.5C 913.705,248.92 912.372,246.92 912,244.5C 918.703,237.965 925.203,231.298 931.5,224.5 Z"/></g>
<g><path style="opacity:1" fill="#f6fbfb" d="M 943.5,243.5 C 957.778,244.247 962.611,251.247 958,264.5C 956.938,265.899 955.605,266.899 954,267.5C 949.044,263.547 944.378,259.214 940,254.5C 935.22,262.611 937.387,267.945 946.5,270.5C 947.452,272.045 947.785,273.712 947.5,275.5C 937.969,274.303 932.302,268.97 930.5,259.5C 931.965,251.713 936.299,246.38 943.5,243.5 Z"/></g>
<g><path style="opacity:1" fill="#fafcfd" d="M 231.5,246.5 C 246.172,248.513 250.339,256.179 244,269.5C 241.833,271.667 239.667,273.833 237.5,276C 241.016,279.349 244.349,282.849 247.5,286.5C 246.167,288.5 244.5,290.167 242.5,291.5C 232.5,282.167 222.833,272.5 213.5,262.5C 218.628,256.03 224.628,250.697 231.5,246.5 Z"/></g>
<g><path style="opacity:1" fill="#56b1be" d="M 945.5,249.5 C 953.13,249.267 955.796,252.767 953.5,260C 949.886,258.422 946.719,255.922 944,252.5C 943.761,251.212 944.261,250.212 945.5,249.5 Z"/></g>
<g><path style="opacity:1" fill="#64cdd7" d="M 231.5,253.5 C 240.327,255.145 242.494,259.811 238,267.5C 236.649,269.019 235.149,270.352 233.5,271.5C 229.682,268.182 226.015,264.682 222.5,261C 225.106,257.882 228.106,255.382 231.5,253.5 Z"/></g>
<g><path style="opacity:1" fill="#f7fbfb" d="M 965.5,264.5 C 976.696,264.856 981.529,270.523 980,281.5C 975.533,286.968 970.7,292.135 965.5,297C 964.216,297.684 963.049,297.517 962,296.5C 961.506,294.866 961.34,293.199 961.5,291.5C 954.94,290.606 950.94,286.939 949.5,280.5C 950.23,276.27 952.73,273.937 957,273.5C 962.638,274.473 967.305,277.139 971,281.5C 974.109,279.614 975.109,276.947 974,273.5C 971.805,271.07 969.138,269.403 966,268.5C 965.51,267.207 965.343,265.873 965.5,264.5 Z"/></g>
<g><path style="opacity:1" fill="#fbfdfd" d="M 203.5,273.5 C 215.5,273.165 220.167,278.831 217.5,290.5C 224.453,292.291 231.453,293.958 238.5,295.5C 236.828,298.851 234.162,300.518 230.5,300.5C 224.804,299.458 219.137,298.624 213.5,298C 211.671,299.113 210.837,300.613 211,302.5C 214.349,306.016 217.849,309.349 221.5,312.5C 220.167,314.5 218.5,316.167 216.5,317.5C 206.5,308.167 196.833,298.5 187.5,288.5C 192.251,282.745 197.584,277.745 203.5,273.5 Z"/></g>
<g><path style="opacity:1" fill="#58b2be" d="M 956.5,279.5 C 960.803,278.796 964.303,280.13 967,283.5C 966.285,288.185 963.785,289.352 959.5,287C 956.076,285.336 955.076,282.836 956.5,279.5 Z"/></g>
<g><path style="opacity:1" fill="#66ced8" d="M 203.5,280.5 C 211.794,280.742 214.294,284.742 211,292.5C 209.611,294.227 207.944,295.561 206,296.5C 202.366,294.033 199.199,291.033 196.5,287.5C 198.548,284.785 200.882,282.452 203.5,280.5 Z"/></g>
<g><path style="opacity:1" fill="#f7fbfb" d="M 988.5,282.5 C 992.009,283.301 993.342,285.301 992.5,288.5C 999.861,289.191 1003.19,293.191 1002.5,300.5C 1009.69,300.251 1014.03,303.584 1015.5,310.5C 1015.24,313.028 1014.4,315.361 1013,317.5C 1008,322.5 1003,327.5 998,332.5C 996.315,330.983 994.815,329.316 993.5,327.5C 998.152,322.348 1002.98,317.348 1008,312.5C 1008.8,306.287 1006.3,304.121 1000.5,306C 995.956,310.88 991.122,315.38 986,319.5C 984.04,318.708 982.54,317.375 981.5,315.5C 985.818,310.681 990.318,306.015 995,301.5C 997.466,295.288 995.299,292.455 988.5,293C 983.652,298.015 978.652,302.848 973.5,307.5C 970.75,306.284 969.583,304.284 970,301.5C 976.369,295.298 982.536,288.965 988.5,282.5 Z"/></g>
<g><path style="opacity:1" fill="#fafcfc" d="M 1030.5,308.5 C 1036.31,308.062 1037.98,310.562 1035.5,316C 1028.74,316.756 1027.08,314.256 1030.5,308.5 Z"/></g>
<g><path style="opacity:1" fill="#f6fbfb" d="M 1023.5,316.5 C 1026.07,317.879 1027.57,319.879 1028,322.5C 1021.83,328.667 1015.67,334.833 1009.5,341C 1006.13,341.293 1004.3,339.793 1004,336.5C 1010.7,329.965 1017.2,323.298 1023.5,316.5 Z"/></g>
<g><path style="opacity:1" fill="#f8fbfc" d="M 1033.5,326.5 C 1036.71,327.823 1037.71,329.99 1036.5,333C 1046.68,334.478 1050.18,339.978 1047,349.5C 1041.65,354.681 1036.48,360.015 1031.5,365.5C 1029.5,364.167 1027.83,362.5 1026.5,360.5C 1031.15,356.349 1035.65,352.015 1040,347.5C 1042.8,340.295 1040.3,337.128 1032.5,338C 1027.96,342.88 1023.12,347.38 1018,351.5C 1016.04,350.708 1014.54,349.375 1013.5,347.5C 1020.19,340.48 1026.85,333.48 1033.5,326.5 Z"/></g>
<g><path style="opacity:1" fill="#f7fbfb" d="M 1052.5,352.5 C 1057.05,351.884 1061.05,353.051 1064.5,356C 1067.26,360.6 1070.6,364.766 1074.5,368.5C 1069.49,369.269 1064.66,370.936 1060,373.5C 1055.8,373.147 1052.3,371.313 1049.5,368C 1048.55,367.517 1047.55,367.351 1046.5,367.5C 1046.35,368.552 1046.52,369.552 1047,370.5C 1049.67,373.833 1052.33,377.167 1055,380.5C 1056.29,384.627 1055.13,387.794 1051.5,390C 1043.6,391.135 1037.43,388.302 1033,381.5C 1029,373.04 1031.5,369.04 1040.5,369.5C 1040.33,364.677 1042.66,362.677 1047.5,363.5C 1047.28,358.948 1048.94,355.281 1052.5,352.5 Z"/></g>
<g><path style="opacity:1" fill="#57b1bd" d="M 1055.5,358.5 C 1062.52,358.489 1064.52,361.489 1061.5,367.5C 1056.92,369.208 1053.92,367.708 1052.5,363C 1053.31,361.357 1054.31,359.857 1055.5,358.5 Z"/></g>
<g><path style="opacity:1" fill="#54b0bc" d="M 1038.5,373.5 C 1045.18,374.66 1048.18,378.493 1047.5,385C 1042.35,384.374 1038.68,381.54 1036.5,376.5C 1037.19,375.482 1037.86,374.482 1038.5,373.5 Z"/></g>
<g><path style="opacity:1" fill="#757575" d="M 656.5,396.5 C 639.941,393.986 623.274,392.986 606.5,393.5C 602.534,394.162 598.534,394.495 594.5,394.5C 603.444,392.945 612.611,392.278 622,392.5C 633.215,392.758 644.382,393.592 655.5,395C 656.056,395.383 656.389,395.883 656.5,396.5 Z"/></g>
<g><path style="opacity:1" fill="#030303" d="M 606.5,393.5 C 623.274,392.986 639.941,393.986 656.5,396.5C 667.678,398.045 678.678,400.378 689.5,403.5C 692.924,405.267 696.591,406.6 700.5,407.5C 707.495,410.49 714.495,413.49 721.5,416.5C 724.686,419.241 728.353,421.241 732.5,422.5C 780.253,450.571 814.253,490.238 834.5,541.5C 834.62,544.578 835.62,547.245 837.5,549.5C 839.785,555.663 841.451,561.996 842.5,568.5C 843.8,576.033 845.467,583.366 847.5,590.5C 847.5,592.167 847.5,593.833 847.5,595.5C 847.116,599.489 847.783,603.155 849.5,606.5C 849.5,617.5 849.5,628.5 849.5,639.5C 848.778,639.918 848.278,640.584 848,641.5C 847.501,645.486 847.334,649.486 847.5,653.5C 846.778,653.918 846.278,654.584 846,655.5C 845.503,658.146 845.336,660.813 845.5,663.5C 845.5,664.167 845.5,664.833 845.5,665.5C 844.778,665.918 844.278,666.584 844,667.5C 843.452,671.17 842.952,674.837 842.5,678.5C 840.207,687.31 837.541,695.976 834.5,704.5C 832.759,706.395 831.759,708.728 831.5,711.5C 829.374,715.637 827.707,719.97 826.5,724.5C 823.91,726.888 822.243,729.888 821.5,733.5C 806.167,734.833 790.833,734.833 775.5,733.5C 765.918,728.581 756.585,723.248 747.5,717.5C 748.883,715.022 749.883,712.355 750.5,709.5C 753.858,704.787 756.858,699.787 759.5,694.5C 759.735,693.903 760.235,693.57 761,693.5C 773.287,700.975 785.787,707.975 798.5,714.5C 799.251,715.573 800.251,715.74 801.5,715C 803.171,713.157 804.171,710.991 804.5,708.5C 804.704,706.315 805.37,704.315 806.5,702.5C 808.088,700.887 809.088,698.887 809.5,696.5C 810.623,692.4 811.957,688.4 813.5,684.5C 815.074,682.898 815.741,680.898 815.5,678.5C 815.5,678.167 815.5,677.833 815.5,677.5C 818.617,671.321 820.284,664.654 820.5,657.5C 820.5,655.833 820.5,654.167 820.5,652.5C 822.082,649.124 822.749,645.458 822.5,641.5C 822.5,638.167 822.5,634.833 822.5,631.5C 823.493,623.016 823.826,614.349 823.5,605.5C 820.941,605.198 818.607,605.532 816.5,606.5C 813.482,606.335 810.482,606.502 807.5,607C 804.073,608.062 800.739,609.229 797.5,610.5C 795.167,610.5 792.833,610.5 790.5,610.5C 788.102,610.259 786.102,610.926 784.5,612.5C 781.421,612.26 778.421,612.593 775.5,613.5C 775.167,613 774.833,612.5 774.5,612C 772.837,603.525 771.504,595.025 770.5,586.5C 771.791,586.737 772.791,586.404 773.5,585.5C 774.833,585.5 776.167,585.5 777.5,585.5C 778.833,585.5 780.167,585.5 781.5,585.5C 793.465,583.89 805.132,581.557 816.5,578.5C 817.634,576.034 817.801,573.367 817,570.5C 816.617,569.944 816.117,569.611 815.5,569.5C 814.153,564.126 812.487,558.793 810.5,553.5C 809.586,548.813 807.919,544.48 805.5,540.5C 804.662,540.158 804.328,539.492 804.5,538.5C 802.654,533.474 800.32,528.807 797.5,524.5C 795.837,521.844 794.171,519.177 792.5,516.5C 791.702,514.034 790.369,512.034 788.5,510.5C 785.182,504.545 781.349,498.878 777,493.5C 775.333,492.267 773.833,490.933 772.5,489.5C 770.234,485.564 767.234,482.231 763.5,479.5C 760.312,480.344 757.979,482.344 756.5,485.5C 754.413,486.585 753.08,488.251 752.5,490.5C 750.486,492.183 748.82,494.183 747.5,496.5C 744.757,498.239 742.757,500.573 741.5,503.5C 740.272,504.306 739.272,505.306 738.5,506.5C 737.094,506.973 736.427,507.973 736.5,509.5C 734.413,510.585 733.08,512.251 732.5,514.5C 731.162,516.113 729.495,516.613 727.5,516C 721.54,511.708 715.873,507.042 710.5,502C 708.94,499.059 709.607,496.892 712.5,495.5C 714.543,494.421 715.876,492.754 716.5,490.5C 718.89,489.109 720.557,487.109 721.5,484.5C 724.422,479.574 728.089,475.241 732.5,471.5C 734.587,470.415 735.92,468.749 736.5,466.5C 737.396,463.931 739.062,461.931 741.5,460.5C 724.28,447.058 705.28,437.058 684.5,430.5C 680.582,427.196 675.916,425.53 670.5,425.5C 669.833,425.5 669.167,425.5 668.5,425.5C 666.898,423.926 664.898,423.259 662.5,423.5C 658.094,423.252 653.76,422.585 649.5,421.5C 644.245,419.476 638.911,419.143 633.5,420.5C 632.503,437.325 632.17,454.325 632.5,471.5C 623.833,471.5 615.167,471.5 606.5,471.5C 606.83,454.325 606.497,437.325 605.5,420.5C 603.696,419.838 601.696,419.505 599.5,419.5C 596.186,419.343 593.186,420.009 590.5,421.5C 588.833,421.5 587.167,421.5 585.5,421.5C 583.102,421.259 581.102,421.926 579.5,423.5C 578.5,423.5 577.5,423.5 576.5,423.5C 573.161,423.89 569.827,424.39 566.5,425C 563.916,425.86 561.583,427.027 559.5,428.5C 558.127,428.343 556.793,428.51 555.5,429C 553.111,429.739 551.111,430.905 549.5,432.5C 546.921,432.394 544.588,433.061 542.5,434.5C 539.895,434.621 537.895,435.621 536.5,437.5C 523.848,442.33 512.181,448.996 501.5,457.5C 496.721,459.008 496.388,461.008 500.5,463.5C 509.383,475.228 518.883,486.561 529,497.5C 529.781,498.944 529.614,500.277 528.5,501.5C 526.146,503.188 524.146,505.188 522.5,507.5C 520.205,508.136 518.539,509.469 517.5,511.5C 515.114,512.373 513.114,513.873 511.5,516C 510.101,516.595 508.768,516.428 507.5,515.5C 500.722,506.921 493.722,498.588 486.5,490.5C 485.92,488.251 484.587,486.585 482.5,485.5C 482.167,484.5 481.5,483.833 480.5,483.5C 479.886,481.277 478.552,479.611 476.5,478.5C 473.479,480.854 470.812,483.521 468.5,486.5C 465.791,489.208 463.458,492.208 461.5,495.5C 459.413,496.585 458.08,498.251 457.5,500.5C 456.833,500.5 456.5,500.833 456.5,501.5C 454.178,502.802 452.845,504.802 452.5,507.5C 450.413,508.585 449.08,510.251 448.5,512.5C 447.047,513.849 446.047,515.515 445.5,517.5C 443.412,519.336 442.079,521.669 441.5,524.5C 438.421,528.702 436.087,533.368 434.5,538.5C 434.5,538.833 434.5,539.167 434.5,539.5C 431.02,544.252 428.687,549.586 427.5,555.5C 426.076,557.515 425.41,559.848 425.5,562.5C 424.883,562.611 424.383,562.944 424,563.5C 423.505,565.473 423.338,567.473 423.5,569.5C 421.732,572.162 421.065,575.162 421.5,578.5C 423.167,578.5 424.833,578.5 426.5,578.5C 433.657,581.799 441.324,583.466 449.5,583.5C 455.343,584.755 461.343,585.922 467.5,587C 468.435,589.381 468.768,591.881 468.5,594.5C 466.926,596.102 466.259,598.102 466.5,600.5C 466.882,605.165 465.882,609.499 463.5,613.5C 461.253,612.626 458.92,612.292 456.5,612.5C 454.833,612.5 453.167,612.5 451.5,612.5C 449.162,610.96 446.495,610.294 443.5,610.5C 443.167,610.5 442.833,610.5 442.5,610.5C 433.895,607.458 424.895,605.791 415.5,605.5C 415.172,616.346 415.506,627.013 416.5,637.5C 416.237,641.6 416.57,645.6 417.5,649.5C 417.336,652.187 417.503,654.854 418,657.5C 418.849,662.046 420.015,666.379 421.5,670.5C 422.219,674.165 423.052,677.832 424,681.5C 424.383,682.056 424.883,682.389 425.5,682.5C 425.5,683.5 425.5,684.5 425.5,685.5C 426.854,691.212 428.854,696.546 431.5,701.5C 433.119,706.736 435.786,711.402 439.5,715.5C 442.779,712.766 446.446,710.766 450.5,709.5C 454.678,707.914 458.345,705.581 461.5,702.5C 462.82,701.058 464.486,700.392 466.5,700.5C 470.588,698.709 474.255,696.376 477.5,693.5C 479.074,693.937 480.241,694.937 481,696.5C 483.79,701.084 486.29,705.751 488.5,710.5C 489.312,712.945 490.312,715.278 491.5,717.5C 489.435,717.953 487.768,718.953 486.5,720.5C 483.22,721.807 480.22,723.473 477.5,725.5C 474.996,726.584 472.663,727.917 470.5,729.5C 467.484,730.343 464.817,731.843 462.5,734C 447.426,734.816 432.426,734.649 417.5,733.5C 413.653,725.162 409.653,716.828 405.5,708.5C 401.905,697.472 398.571,686.472 395.5,675.5C 393.802,662.858 392.302,650.192 391,637.5C 390.768,636.263 390.268,635.263 389.5,634.5C 389.5,626.5 389.5,618.5 389.5,610.5C 390.222,610.082 390.722,609.416 391,608.5C 391.497,605.854 391.664,603.187 391.5,600.5C 391.334,596.486 391.501,592.486 392,588.5C 394.405,581.424 395.905,574.09 396.5,566.5C 398.701,562.886 400.034,558.886 400.5,554.5C 400.5,553.5 400.5,552.5 400.5,551.5C 402.139,548.192 403.972,544.858 406,541.5C 407.828,537.683 408.994,533.683 409.5,529.5C 409.328,528.508 409.662,527.842 410.5,527.5C 411.492,525.544 412.492,523.544 413.5,521.5C 413.948,518.318 415.282,515.651 417.5,513.5C 419.572,511.65 420.905,509.317 421.5,506.5C 421.229,504.62 421.896,503.287 423.5,502.5C 425.669,500.66 427.002,498.326 427.5,495.5C 434.792,485.011 442.792,474.844 451.5,465C 452.094,464.536 452.761,464.369 453.5,464.5C 456.833,461.833 459.833,458.833 462.5,455.5C 467.949,449.046 474.282,443.712 481.5,439.5C 483.754,438.876 485.421,437.543 486.5,435.5C 486.5,434.833 486.833,434.5 487.5,434.5C 489.027,434.573 490.027,433.906 490.5,432.5C 490.973,431.094 491.973,430.427 493.5,430.5C 495.027,430.573 496.027,429.906 496.5,428.5C 497.167,428.5 497.5,428.167 497.5,427.5C 500.326,427.002 502.66,425.669 504.5,423.5C 510.451,420.502 516.451,417.502 522.5,414.5C 526.083,414.27 529.083,412.937 531.5,410.5C 537.73,407.885 544.063,405.552 550.5,403.5C 553.456,402.863 556.456,402.363 559.5,402C 560.056,401.617 560.389,401.117 560.5,400.5C 560.833,400.5 561.167,400.5 561.5,400.5C 564.553,400.889 567.22,400.223 569.5,398.5C 569.833,398.5 570.167,398.5 570.5,398.5C 581.41,396.722 592.41,395.555 603.5,395C 604.737,394.768 605.737,394.268 606.5,393.5 Z"/></g>
<g><path style="opacity:1" fill="#323232" d="M 606.5,393.5 C 605.737,394.268 604.737,394.768 603.5,395C 592.41,395.555 581.41,396.722 570.5,398.5C 578.286,396.646 586.286,395.313 594.5,394.5C 598.534,394.495 602.534,394.162 606.5,393.5 Z"/></g>
<g><path style="opacity:1" fill="#555555" d="M 569.5,398.5 C 567.22,400.223 564.553,400.889 561.5,400.5C 563.905,399.232 566.572,398.565 569.5,398.5 Z"/></g>
<g><path style="opacity:1" fill="#7a7a7a" d="M 560.5,400.5 C 560.389,401.117 560.056,401.617 559.5,402C 556.456,402.363 553.456,402.863 550.5,403.5C 550.611,402.883 550.944,402.383 551.5,402C 554.544,401.637 557.544,401.137 560.5,400.5 Z"/></g>
<g><path style="opacity:1" fill="#afafaf" d="M 689.5,403.5 C 693.787,403.476 697.453,404.81 700.5,407.5C 696.591,406.6 692.924,405.267 689.5,403.5 Z"/></g>
<g><path style="opacity:1" fill="#525252" d="M 531.5,410.5 C 529.083,412.937 526.083,414.27 522.5,414.5C 523.903,413.069 525.569,411.902 527.5,411C 528.793,410.51 530.127,410.343 531.5,410.5 Z"/></g>
<g><path style="opacity:1" fill="#9a9a9a" d="M 721.5,416.5 C 724.707,417.179 727.707,418.346 730.5,420C 731.381,420.708 732.047,421.542 732.5,422.5C 728.353,421.241 724.686,419.241 721.5,416.5 Z"/></g>
<g><path style="opacity:1" fill="#525253" d="M 633.5,420.5 C 638.911,419.143 644.245,419.476 649.5,421.5C 644.493,421.249 639.493,420.916 634.5,420.5C 634.167,420.5 633.833,420.5 633.5,420.5 Z"/></g>
<g><path style="opacity:1" fill="#5e5f5e" d="M 605.5,420.5 C 605.167,420.5 604.833,420.5 604.5,420.5C 599.848,420.998 595.181,421.331 590.5,421.5C 593.186,420.009 596.186,419.343 599.5,419.5C 601.696,419.505 603.696,419.838 605.5,420.5 Z"/></g>
<g><path style="opacity:1" fill="#6a6a6a" d="M 585.5,421.5 C 583.898,423.074 581.898,423.741 579.5,423.5C 581.102,421.926 583.102,421.259 585.5,421.5 Z"/></g>
<g><path style="opacity:1" fill="#595959" d="M 662.5,423.5 C 664.898,423.259 666.898,423.926 668.5,425.5C 666.102,425.741 664.102,425.074 662.5,423.5 Z"/></g>
<g><path style="opacity:1" fill="#848485" d="M 504.5,423.5 C 502.66,425.669 500.326,427.002 497.5,427.5C 499.336,425.412 501.669,424.079 504.5,423.5 Z"/></g>
<g><path style="opacity:1" fill="#787878" d="M 576.5,423.5 C 573.977,424.851 571.311,426.017 568.5,427C 565.456,427.363 562.456,427.863 559.5,428.5C 561.583,427.027 563.916,425.86 566.5,425C 569.827,424.39 573.161,423.89 576.5,423.5 Z"/></g>
<g><path style="opacity:1" fill="#757575" d="M 496.5,428.5 C 496.027,429.906 495.027,430.573 493.5,430.5C 493.973,429.094 494.973,428.427 496.5,428.5 Z"/></g>
<g><path style="opacity:1" fill="#696969" d="M 670.5,425.5 C 675.916,425.53 680.582,427.196 684.5,430.5C 679.394,429.643 674.727,427.976 670.5,425.5 Z"/></g>
<g><path style="opacity:1" fill="#b0b0b0" d="M 559.5,428.5 C 559.047,429.458 558.381,430.292 557.5,431C 554.793,431.395 552.127,431.895 549.5,432.5C 551.111,430.905 553.111,429.739 555.5,429C 556.793,428.51 558.127,428.343 559.5,428.5 Z"/></g>
<g><path style="opacity:1" fill="#777877" d="M 490.5,432.5 C 490.027,433.906 489.027,434.573 487.5,434.5C 487.973,433.094 488.973,432.427 490.5,432.5 Z"/></g>
<g><path style="opacity:1" fill="#919191" d="M 542.5,434.5 C 541.015,436.231 539.015,437.231 536.5,437.5C 537.895,435.621 539.895,434.621 542.5,434.5 Z"/></g>
<g><path style="opacity:1" fill="#5f5e5e" d="M 486.5,435.5 C 485.421,437.543 483.754,438.876 481.5,439.5C 482.539,437.469 484.205,436.136 486.5,435.5 Z"/></g>
<g><path style="opacity:1" fill="#888888" d="M 501.5,457.5 C 499.469,459.249 499.135,461.249 500.5,463.5C 496.388,461.008 496.721,459.008 501.5,457.5 Z"/></g>
<g><path style="opacity:1" fill="#656565" d="M 462.5,455.5 C 459.833,458.833 456.833,461.833 453.5,464.5C 455.5,460.5 458.5,457.5 462.5,455.5 Z"/></g>
<g><path style="opacity:1" fill="#565556" d="M 736.5,466.5 C 735.92,468.749 734.587,470.415 732.5,471.5C 733.08,469.251 734.413,467.585 736.5,466.5 Z"/></g>
<g><path style="opacity:1" fill="#c2c2c2" d="M 604.5,420.5 C 604.833,420.5 605.167,420.5 605.5,420.5C 605.5,437.833 605.5,455.167 605.5,472.5C 614.833,472.5 624.167,472.5 633.5,472.5C 633.5,455.167 633.5,437.833 633.5,420.5C 633.833,420.5 634.167,420.5 634.5,420.5C 634.5,438.5 634.5,456.5 634.5,474.5C 624.5,474.5 614.5,474.5 604.5,474.5C 604.5,456.5 604.5,438.5 604.5,420.5 Z"/></g>
<g><path style="opacity:1" fill="#474747" d="M 605.5,420.5 C 606.497,437.325 606.83,454.325 606.5,471.5C 615.167,471.5 623.833,471.5 632.5,471.5C 632.17,454.325 632.503,437.325 633.5,420.5C 633.5,437.833 633.5,455.167 633.5,472.5C 624.167,472.5 614.833,472.5 605.5,472.5C 605.5,455.167 605.5,437.833 605.5,420.5 Z"/></g>
<g><path style="opacity:1" fill="#939393" d="M 763.5,479.5 C 767.234,482.231 770.234,485.564 772.5,489.5C 768.766,486.769 765.766,483.436 763.5,479.5 Z"/></g>
<g><path style="opacity:1" fill="#a3a3a3" d="M 480.5,483.5 C 478.976,482.826 477.642,481.826 476.5,480.5C 474.079,482.934 471.412,484.934 468.5,486.5C 470.812,483.521 473.479,480.854 476.5,478.5C 478.552,479.611 479.886,481.277 480.5,483.5 Z"/></g>
<g><path style="opacity:1" fill="#8b8b8b" d="M 482.5,485.5 C 484.587,486.585 485.92,488.251 486.5,490.5C 484.413,489.415 483.08,487.749 482.5,485.5 Z"/></g>
<g><path style="opacity:1" fill="#595959" d="M 721.5,484.5 C 720.557,487.109 718.89,489.109 716.5,490.5C 717.473,487.865 719.14,485.865 721.5,484.5 Z"/></g>
<g><path style="opacity:1" fill="#8a8a8a" d="M 756.5,485.5 C 755.92,487.749 754.587,489.415 752.5,490.5C 753.08,488.251 754.413,486.585 756.5,485.5 Z"/></g>
<g><path style="opacity:1" fill="#565655" d="M 716.5,490.5 C 715.876,492.754 714.543,494.421 712.5,495.5C 713.136,493.205 714.469,491.539 716.5,490.5 Z"/></g>
<g><path style="opacity:1" fill="#808080" d="M 427.5,495.5 C 427.002,498.326 425.669,500.66 423.5,502.5C 424.079,499.669 425.412,497.336 427.5,495.5 Z"/></g>
<g><path style="opacity:1" fill="#999898" d="M 461.5,495.5 C 460.92,497.749 459.587,499.415 457.5,500.5C 458.08,498.251 459.413,496.585 461.5,495.5 Z"/></g>
<g><path style="opacity:1" fill="#929292" d="M 747.5,496.5 C 746.243,499.427 744.243,501.761 741.5,503.5C 742.757,500.573 744.757,498.239 747.5,496.5 Z"/></g>
<g><path style="opacity:1" fill="#898989" d="M 456.5,501.5 C 455.66,503.853 454.326,505.853 452.5,507.5C 452.845,504.802 454.178,502.802 456.5,501.5 Z"/></g>
<g><path style="opacity:1" fill="#787878" d="M 738.5,506.5 C 738.573,508.027 737.906,509.027 736.5,509.5C 736.427,507.973 737.094,506.973 738.5,506.5 Z"/></g>
<g><path style="opacity:1" fill="#979797" d="M 522.5,507.5 C 521.421,509.543 519.754,510.876 517.5,511.5C 518.539,509.469 520.205,508.136 522.5,507.5 Z"/></g>
<g><path style="opacity:1" fill="#7b7b7b" d="M 452.5,507.5 C 451.92,509.749 450.587,511.415 448.5,512.5C 449.08,510.251 450.413,508.585 452.5,507.5 Z"/></g>
<g><path style="opacity:1" fill="#7d7d7d" d="M 421.5,506.5 C 420.905,509.317 419.572,511.65 417.5,513.5C 417.351,512.448 417.517,511.448 418,510.5C 418.74,508.681 419.907,507.348 421.5,506.5 Z"/></g>
<g><path style="opacity:1" fill="#8d8d8d" d="M 736.5,509.5 C 735.92,511.749 734.587,513.415 732.5,514.5C 733.08,512.251 734.413,510.585 736.5,509.5 Z"/></g>
<g><path style="opacity:1" fill="#9a9a9a" d="M 788.5,510.5 C 790.369,512.034 791.702,514.034 792.5,516.5C 790.262,515.147 788.929,513.147 788.5,510.5 Z"/></g>
<g><path style="opacity:1" fill="#777777" d="M 413.5,521.5 C 412.492,523.544 411.492,525.544 410.5,527.5C 410.025,524.687 411.025,522.687 413.5,521.5 Z"/></g>
<g><path style="opacity:1" fill="#878687" d="M 445.5,517.5 C 445.002,520.326 443.669,522.66 441.5,524.5C 442.079,521.669 443.412,519.336 445.5,517.5 Z"/></g>
<g><path style="opacity:1" fill="#868686" d="M 441.5,524.5 C 439.913,529.632 437.579,534.298 434.5,538.5C 436.087,533.368 438.421,528.702 441.5,524.5 Z"/></g>
<g><path style="opacity:1" fill="#a7a7a7" d="M 797.5,524.5 C 800.32,528.807 802.654,533.474 804.5,538.5C 800.71,534.634 798.376,529.968 797.5,524.5 Z"/></g>
<g><path style="opacity:1" fill="#4d4e4d" d="M 409.5,529.5 C 408.994,533.683 407.828,537.683 406,541.5C 403.972,544.858 402.139,548.192 400.5,551.5C 401.06,549.199 401.56,546.866 402,544.5C 404.437,539.41 406.937,534.41 409.5,529.5 Z"/></g>
<g><path style="opacity:1" fill="#070707" d="M 590.5,569.5 C 591.585,571.587 593.251,572.92 595.5,573.5C 605.622,581.4 615.955,589.067 626.5,596.5C 627.99,598.28 629.99,598.946 632.5,598.5C 637.267,599.594 640.934,602.26 643.5,606.5C 648.674,618.236 645.674,627.236 634.5,633.5C 629.438,633.726 624.438,633.392 619.5,632.5C 614.829,631.163 611.829,628.163 610.5,623.5C 610.59,620.848 609.924,618.515 608.5,616.5C 600.833,607.167 593.167,597.833 585.5,588.5C 584.92,586.251 583.587,584.585 581.5,583.5C 570.307,567.961 558.307,552.961 545.5,538.5C 546.391,537.41 547.391,537.41 548.5,538.5C 555.801,545.147 563.468,551.313 571.5,557C 578.199,560.678 584.533,564.845 590.5,569.5 Z"/></g>
<g><path style="opacity:1" fill="#a4a4a4" d="M 434.5,539.5 C 433.196,545.427 430.863,550.76 427.5,555.5C 428.687,549.586 431.02,544.252 434.5,539.5 Z"/></g>
<g><path style="opacity:1" fill="#747473" d="M 834.5,541.5 C 836.38,543.755 837.38,546.422 837.5,549.5C 835.62,547.245 834.62,544.578 834.5,541.5 Z"/></g>
<g><path style="opacity:1" fill="#8e8e8f" d="M 805.5,540.5 C 807.919,544.48 809.586,548.813 810.5,553.5C 807.968,549.528 806.301,545.195 805.5,540.5 Z"/></g>
<g><path style="opacity:1" fill="#4c4c4c" d="M 400.5,554.5 C 400.034,558.886 398.701,562.886 396.5,566.5C 397.315,562.856 398.148,559.189 399,555.5C 399.383,554.944 399.883,554.611 400.5,554.5 Z"/></g>
<g><path style="opacity:1" fill="#929191" d="M 425.5,562.5 C 425.073,565.01 424.407,567.343 423.5,569.5C 423.338,567.473 423.505,565.473 424,563.5C 424.383,562.944 424.883,562.611 425.5,562.5 Z"/></g>
<g><path style="opacity:1" fill="#9d9d9e" d="M 590.5,569.5 C 592.749,570.08 594.415,571.413 595.5,573.5C 593.251,572.92 591.585,571.587 590.5,569.5 Z"/></g>
<g><path style="opacity:1" fill="#6b6b6b" d="M 842.5,568.5 C 843.117,568.611 843.617,568.944 844,569.5C 845.585,576.429 846.752,583.429 847.5,590.5C 845.467,583.366 843.8,576.033 842.5,568.5 Z"/></g>
<g><path style="opacity:1" fill="#aaa9a9" d="M 815.5,569.5 C 816.117,569.611 816.617,569.944 817,570.5C 817.801,573.367 817.634,576.034 816.5,578.5C 814.435,578.517 812.435,578.85 810.5,579.5C 811.99,577.72 813.99,577.054 816.5,577.5C 816.167,574.833 815.833,572.167 815.5,569.5 Z"/></g>
<g><path style="opacity:1" fill="#737374" d="M 426.5,578.5 C 433.454,579.955 440.454,581.122 447.5,582C 448.416,582.278 449.082,582.778 449.5,583.5C 441.324,583.466 433.657,581.799 426.5,578.5 Z"/></g>
<g><path style="opacity:1" fill="#555556" d="M 816.5,578.5 C 805.132,581.557 793.465,583.89 781.5,585.5C 782.5,584.833 783.5,584.167 784.5,583.5C 793.175,582.24 801.841,580.906 810.5,579.5C 812.435,578.85 814.435,578.517 816.5,578.5 Z"/></g>
<g><path style="opacity:1" fill="#969797" d="M 784.5,583.5 C 783.5,584.167 782.5,584.833 781.5,585.5C 780.167,585.5 778.833,585.5 777.5,585.5C 779.515,584.076 781.848,583.41 784.5,583.5 Z"/></g>
<g><path style="opacity:1" fill="#959595" d="M 581.5,583.5 C 583.587,584.585 584.92,586.251 585.5,588.5C 583.413,587.415 582.08,585.749 581.5,583.5 Z"/></g>
<g><path style="opacity:1" fill="#b09df6" d="M 987.5,592.5 C 1020.1,626.271 1052.94,659.938 1086,693.5C 1117.73,660.605 1149.23,627.605 1180.5,594.5C 1181.49,600.31 1181.82,606.31 1181.5,612.5C 1173.54,771.213 1112.88,905.713 999.5,1016C 890.666,1116.71 761.666,1169.54 612.5,1174.5C 607.737,1174.77 603.07,1174.44 598.5,1173.5C 592.725,1168.9 587.059,1164.07 581.5,1159C 553.795,1132.29 526.128,1105.63 498.5,1079C 531.333,1046.33 564.666,1014.17 598.5,982.5C 603.602,981.879 608.602,981.213 613.5,980.5C 707.939,976.589 790.272,943.422 860.5,881C 943.774,803.063 986.107,706.896 987.5,592.5 Z"/></g>
<g><path style="opacity:1" fill="#717272" d="M 626.5,596.5 C 629.01,596.054 631.01,596.72 632.5,598.5C 629.99,598.946 627.99,598.28 626.5,596.5 Z"/></g>
<g><path style="opacity:1" fill="#535353" d="M 468.5,594.5 C 468.741,596.898 468.074,598.898 466.5,600.5C 466.259,598.102 466.926,596.102 468.5,594.5 Z"/></g>
<g><path style="opacity:1" fill="#919191" d="M 396.5,566.5 C 395.905,574.09 394.405,581.424 392,588.5C 391.501,592.486 391.334,596.486 391.5,600.5C 390.833,601.167 390.167,601.833 389.5,602.5C 390.109,597.188 390.609,591.854 391,586.5C 393.366,580.398 394.699,574.065 395,567.5C 395.383,566.944 395.883,566.611 396.5,566.5 Z"/></g>
<g><path style="opacity:1" fill="#d1c6f9" d="M 1182.5,592.5 C 1182.82,599.354 1182.49,606.021 1181.5,612.5C 1181.82,606.31 1181.49,600.31 1180.5,594.5C 1180.83,593.5 1181.5,592.833 1182.5,592.5 Z"/></g>
<g><path style="opacity:1" fill="#7e7e7e" d="M 847.5,595.5 C 849.217,598.845 849.884,602.511 849.5,606.5C 847.783,603.155 847.116,599.489 847.5,595.5 Z"/></g>
<g><path style="opacity:1" fill="#a5a5a4" d="M 449.5,583.5 C 456.283,582.937 462.783,583.937 469,586.5C 469.667,590.833 469.667,595.167 469,599.5C 467.832,604.513 466.665,609.513 465.5,614.5C 462.171,614.785 459.171,614.118 456.5,612.5C 458.92,612.292 461.253,612.626 463.5,613.5C 465.882,609.499 466.882,605.165 466.5,600.5C 468.074,598.898 468.741,596.898 468.5,594.5C 468.768,591.881 468.435,589.381 467.5,587C 461.343,585.922 455.343,584.755 449.5,583.5 Z"/></g>
<g><path style="opacity:1" fill="#9b9b9b" d="M 773.5,585.5 C 772.791,586.404 771.791,586.737 770.5,586.5C 771.504,595.025 772.837,603.525 774.5,612C 774.833,612.5 775.167,613 775.5,613.5C 778.421,612.593 781.421,612.26 784.5,612.5C 781.124,614.082 777.458,614.749 773.5,614.5C 771.312,605.769 769.646,596.936 768.5,588C 769.385,585.843 771.052,585.01 773.5,585.5 Z"/></g>
<g><path style="opacity:1" fill="#505050" d="M 391.5,600.5 C 391.664,603.187 391.497,605.854 391,608.5C 390.722,609.416 390.222,610.082 389.5,610.5C 389.5,607.833 389.5,605.167 389.5,602.5C 390.167,601.833 390.833,601.167 391.5,600.5 Z"/></g>
<g><path style="opacity:1" fill="#808080" d="M 816.5,606.5 C 810.394,608.331 804.061,609.664 797.5,610.5C 800.739,609.229 804.073,608.062 807.5,607C 810.482,606.502 813.482,606.335 816.5,606.5 Z"/></g>
<g><path style="opacity:1" fill="#969696" d="M 443.5,610.5 C 446.495,610.294 449.162,610.96 451.5,612.5C 448.572,612.435 445.905,611.768 443.5,610.5 Z"/></g>
<g><path style="opacity:1" fill="#646464" d="M 790.5,610.5 C 788.898,612.074 786.898,612.741 784.5,612.5C 786.102,610.926 788.102,610.259 790.5,610.5 Z"/></g>
<g><path style="opacity:1" fill="#727272" d="M 608.5,616.5 C 609.924,618.515 610.59,620.848 610.5,623.5C 608.837,621.562 608.171,619.228 608.5,616.5 Z"/></g>
<g><path style="opacity:1" fill="#515151" d="M 816.5,606.5 C 818.607,605.532 820.941,605.198 823.5,605.5C 823.826,614.349 823.493,623.016 822.5,631.5C 822.5,623.167 822.5,614.833 822.5,606.5C 820.5,606.5 818.5,606.5 816.5,606.5 Z"/></g>
<g><path style="opacity:1" fill="#585858" d="M 442.5,610.5 C 435.148,609.49 427.815,608.49 420.5,607.5C 419.432,606.566 418.099,606.232 416.5,606.5C 416.5,616.833 416.5,627.167 416.5,637.5C 415.506,627.013 415.172,616.346 415.5,605.5C 424.895,605.791 433.895,607.458 442.5,610.5 Z"/></g>
<g><path style="opacity:1" fill="#cccccc" d="M 420.5,607.5 C 419.5,607.5 418.5,607.5 417.5,607.5C 417.375,621.515 417.709,635.515 418.5,649.5C 418.167,649.5 417.833,649.5 417.5,649.5C 416.57,645.6 416.237,641.6 416.5,637.5C 416.5,627.167 416.5,616.833 416.5,606.5C 418.099,606.232 419.432,606.566 420.5,607.5 Z"/></g>
<g><path style="opacity:1" fill="#545454" d="M 619.5,632.5 C 624.438,633.392 629.438,633.726 634.5,633.5C 630.019,634.648 625.352,634.815 620.5,634C 619.944,633.617 619.611,633.117 619.5,632.5 Z"/></g>
<g><path style="opacity:1" fill="#747474" d="M 389.5,634.5 C 390.268,635.263 390.768,636.263 391,637.5C 392.302,650.192 393.802,662.858 395.5,675.5C 391.468,662.283 389.468,648.617 389.5,634.5 Z"/></g>
<g><path style="opacity:1" fill="#909090" d="M 822.5,641.5 C 822.749,645.458 822.082,649.124 820.5,652.5C 820.335,649.482 820.502,646.482 821,643.5C 821.278,642.584 821.778,641.918 822.5,641.5 Z"/></g>
<g><path style="opacity:1" fill="#919191" d="M 849.5,639.5 C 849.638,644.414 848.972,649.081 847.5,653.5C 847.334,649.486 847.501,645.486 848,641.5C 848.278,640.584 848.778,639.918 849.5,639.5 Z"/></g>
<g><path style="opacity:1" fill="#555555" d="M 847.5,653.5 C 847.247,657.04 846.581,660.373 845.5,663.5C 845.336,660.813 845.503,658.146 846,655.5C 846.278,654.584 846.778,653.918 847.5,653.5 Z"/></g>
<g><path style="opacity:1" fill="#6d6d6d" d="M 417.5,649.5 C 417.833,649.5 418.167,649.5 418.5,649.5C 419.006,654.523 419.673,659.523 420.5,664.5C 421.15,666.435 421.483,668.435 421.5,670.5C 420.015,666.379 418.849,662.046 418,657.5C 417.503,654.854 417.336,652.187 417.5,649.5 Z"/></g>
<g><path style="opacity:1" fill="#585857" d="M 820.5,657.5 C 820.284,664.654 818.617,671.321 815.5,677.5C 816.281,670.479 817.947,663.812 820.5,657.5 Z"/></g>
<g><path style="opacity:1" fill="#6d6d6e" d="M 845.5,665.5 C 845.237,670.124 844.237,674.458 842.5,678.5C 842.952,674.837 843.452,671.17 844,667.5C 844.278,666.584 844.778,665.918 845.5,665.5 Z"/></g>
<g><path style="opacity:1" fill="#acacac" d="M 420.5,664.5 C 421.117,664.611 421.617,664.944 422,665.5C 422.898,671.227 424.064,676.894 425.5,682.5C 424.883,682.389 424.383,682.056 424,681.5C 423.052,677.832 422.219,674.165 421.5,670.5C 421.483,668.435 421.15,666.435 420.5,664.5 Z"/></g>
<g><path style="opacity:1" fill="#6d6d6d" d="M 815.5,678.5 C 815.741,680.898 815.074,682.898 813.5,684.5C 813.259,682.102 813.926,680.102 815.5,678.5 Z"/></g>
<g><path style="opacity:1" fill="#000000" d="M 526.5,691.5 C 588.5,691.5 650.5,691.5 712.5,691.5C 712.5,705.833 712.5,720.167 712.5,734.5C 650.5,734.5 588.5,734.5 526.5,734.5C 526.5,720.167 526.5,705.833 526.5,691.5 Z"/></g>
<g><path style="opacity:1" fill="#545454" d="M 526.5,691.5 C 588.331,690.501 650.331,690.168 712.5,690.5C 713.833,705.167 713.833,719.833 712.5,734.5C 712.5,720.167 712.5,705.833 712.5,691.5C 650.5,691.5 588.5,691.5 526.5,691.5 Z"/></g>
<g><path style="opacity:1" fill="#6a6a69" d="M 477.5,693.5 C 474.255,696.376 470.588,698.709 466.5,700.5C 469.494,697.26 473.161,694.926 477.5,693.5 Z"/></g>
<g><path style="opacity:1" fill="#727373" d="M 425.5,685.5 C 426.957,687.242 428.124,689.242 429,691.5C 429.661,694.946 430.495,698.279 431.5,701.5C 428.854,696.546 426.854,691.212 425.5,685.5 Z"/></g>
<g><path style="opacity:1" fill="#757575" d="M 759.5,694.5 C 756.858,699.787 753.858,704.787 750.5,709.5C 752.283,703.729 755.283,698.729 759.5,694.5 Z"/></g>
<g><path style="opacity:1" fill="#949494" d="M 809.5,696.5 C 809.088,698.887 808.088,700.887 806.5,702.5C 806.621,699.895 807.621,697.895 809.5,696.5 Z"/></g>
<g><path style="opacity:1" fill="#808080" d="M 461.5,702.5 C 458.345,705.581 454.678,707.914 450.5,709.5C 453.576,706.449 457.242,704.116 461.5,702.5 Z"/></g>
<g><path style="opacity:1" fill="#5b5c5c" d="M 834.5,704.5 C 834.241,707.272 833.241,709.605 831.5,711.5C 831.759,708.728 832.759,706.395 834.5,704.5 Z"/></g>
<g><path style="opacity:1" fill="#626263" d="M 488.5,710.5 C 490.093,711.348 491.26,712.681 492,714.5C 492.74,715.749 492.573,716.749 491.5,717.5C 490.312,715.278 489.312,712.945 488.5,710.5 Z"/></g>
<g><path style="opacity:1" fill="#626363" d="M 750.5,709.5 C 749.883,712.355 748.883,715.022 747.5,717.5C 746.427,716.749 746.26,715.749 747,714.5C 747.902,712.569 749.069,710.903 750.5,709.5 Z"/></g>
<g><path style="opacity:1" fill="#737373" d="M 804.5,708.5 C 804.171,710.991 803.171,713.157 801.5,715C 800.251,715.74 799.251,715.573 798.5,714.5C 799.239,714.631 799.906,714.464 800.5,714C 801.749,712.02 803.082,710.187 804.5,708.5 Z"/></g>
<g><path style="opacity:1" fill="#949494" d="M 486.5,720.5 C 484.252,723.393 481.252,725.06 477.5,725.5C 480.22,723.473 483.22,721.807 486.5,720.5 Z"/></g>
<g><path style="opacity:1" fill="#8c8d8d" d="M 826.5,724.5 C 825.222,726.823 824.222,729.323 823.5,732C 823.164,733.03 822.497,733.53 821.5,733.5C 822.243,729.888 823.91,726.888 826.5,724.5 Z"/></g>
<g><path style="opacity:1" fill="#7a7a7a" d="M 470.5,729.5 C 468.353,731.47 466.02,733.303 463.5,735C 455.833,735.167 448.167,735.333 440.5,735.5C 432.47,735.498 424.803,734.831 417.5,733.5C 432.426,734.649 447.426,734.816 462.5,734C 464.817,731.843 467.484,730.343 470.5,729.5 Z"/></g>
<g><path style="opacity:1" fill="#858585" d="M 712.5,690.5 C 650.331,690.168 588.331,690.501 526.5,691.5C 526.5,705.833 526.5,720.167 526.5,734.5C 588.5,734.5 650.5,734.5 712.5,734.5C 650.336,735.499 588.002,735.832 525.5,735.5C 525.5,720.167 525.5,704.833 525.5,689.5C 588.002,689.168 650.336,689.501 712.5,690.5 Z"/></g>
<g><path style="opacity:1" fill="#848484" d="M 775.5,733.5 C 790.833,734.833 806.167,734.833 821.5,733.5C 814.197,734.831 806.53,735.498 798.5,735.5C 790.47,735.498 782.803,734.831 775.5,733.5 Z"/></g>
<g><path style="opacity:1" fill="#faf9fd" d="M 1036.5,826.5 C 1042.12,838.159 1047.29,850.159 1052,862.5C 1053.22,866.21 1052.06,868.877 1048.5,870.5C 1046.93,866.618 1045.26,862.785 1043.5,859C 1034.34,855.451 1025.34,851.617 1016.5,847.5C 1017.87,845.295 1019.7,843.628 1022,842.5C 1028.13,844.901 1034.13,847.567 1040,850.5C 1037.7,844.387 1035.2,838.221 1032.5,832C 1033.65,830.019 1034.98,828.186 1036.5,826.5 Z"/></g>
<g><path style="opacity:1" fill="#fafafd" d="M 1012.5,851.5 C 1014.17,851.5 1015.83,851.5 1017.5,851.5C 1017.5,853.167 1017.5,854.833 1017.5,856.5C 1009.11,858.378 1007.28,863.044 1012,870.5C 1020.03,878.119 1025.53,876.619 1028.5,866C 1029.79,865.51 1031.13,865.343 1032.5,865.5C 1032.9,875.057 1028.4,880.39 1019,881.5C 1009.56,880.061 1004.06,874.561 1002.5,865C 1004.04,859.044 1007.38,854.544 1012.5,851.5 Z"/></g>
<g><path style="opacity:1" fill="#f8f6fd" d="M 983.5,861.5 C 989.293,862.421 990.626,865.255 987.5,870C 981.664,871.494 979.498,869.327 981,863.5C 981.995,862.934 982.828,862.267 983.5,861.5 Z"/></g>
<g><path style="opacity:1" fill="#fbfbfd" d="M 972.5,871.5 C 983.08,880.576 993.246,890.242 1003,900.5C 1002.63,902.92 1001.3,904.92 999,906.5C 988.833,896.333 978.667,886.167 968.5,876C 970.041,874.629 971.375,873.129 972.5,871.5 Z"/></g>
<g><path style="opacity:1" fill="#fbfbfd" d="M 992.5,870.5 C 1000.24,876.739 1007.58,883.572 1014.5,891C 1012.92,893.295 1010.92,894.628 1008.5,895C 1001.83,888.333 995.167,881.667 988.5,875C 990.041,873.629 991.375,872.129 992.5,870.5 Z"/></g>
<g><path style="opacity:1" fill="#fbfafd" d="M 970.5,894.5 C 979.048,894.224 985.215,897.891 989,905.5C 990.968,915.512 987.135,922.012 977.5,925C 962.843,924.332 957.343,916.832 961,902.5C 963.362,898.755 966.528,896.089 970.5,894.5 Z"/></g>
<g><path style="opacity:1" fill="#b29ff6" d="M 968.5,901.5 C 974.269,900.634 978.769,902.634 982,907.5C 984.607,912.456 983.44,916.289 978.5,919C 973.529,919.065 969.696,916.898 967,912.5C 964.842,908.461 965.342,904.794 968.5,901.5 Z"/></g>
<g><path style="opacity:1" fill="#fbfafd" d="M 940.5,908.5 C 952.8,909.286 957.634,915.62 955,927.5C 952.925,931.579 950.092,935.079 946.5,938C 950.016,941.349 953.349,944.849 956.5,948.5C 955.167,950.5 953.5,952.167 951.5,953.5C 941.5,944.167 931.833,934.5 922.5,924.5C 927.652,918.004 933.652,912.67 940.5,908.5 Z"/></g>
<g><path style="opacity:1" fill="#b19ef6" d="M 938.5,916.5 C 946.775,915.706 949.942,919.373 948,927.5C 946,929.5 944,931.5 942,933.5C 938.5,930 935,926.5 931.5,923C 933.729,920.6 936.063,918.433 938.5,916.5 Z"/></g>
<g><path style="opacity:1" fill="#fafafd" d="M 913.5,949.5 C 915.5,949.5 917.5,949.5 919.5,949.5C 919.5,951.167 919.5,952.833 919.5,954.5C 912.128,955.67 909.628,959.67 912,966.5C 914.545,970.059 917.879,972.392 922,973.5C 926.483,972.181 928.983,969.181 929.5,964.5C 931.167,964.5 932.833,964.5 934.5,964.5C 931.772,979.364 923.772,983.197 910.5,976C 901.671,965.963 902.671,957.13 913.5,949.5 Z"/></g>
<g><path style="opacity:1" fill="#f9f8fd" d="M 883.5,960.5 C 890.225,960.204 891.891,962.871 888.5,968.5C 885.755,969.975 883.588,969.309 882,966.5C 881.252,964.16 881.752,962.16 883.5,960.5 Z"/></g>
<g><path style="opacity:1" fill="#f9f7fd" d="M 877.5,967.5 C 879.022,968.191 880.022,969.358 880.5,971C 878.098,974.024 877.932,977.19 880,980.5C 880.718,981.451 881.551,981.617 882.5,981C 884,979.5 885.5,978 887,976.5C 888.167,977.667 889.333,978.833 890.5,980C 888.833,981.667 887.167,983.333 885.5,985C 891,990.5 896.5,996 902,1001.5C 901.805,1003.75 900.638,1005.58 898.5,1007C 897.833,1007.67 897.167,1007.67 896.5,1007C 891,1001.5 885.5,996 880,990.5C 877.683,993.182 875.516,993.015 873.5,990C 874.5,989 875.5,988 876.5,987C 869.63,980.074 869.964,973.574 877.5,967.5 Z"/></g>
<g><path style="opacity:1" fill="#fbfbfd" d="M 894.5,968.5 C 901.465,974.964 908.298,981.631 915,988.5C 914.628,990.92 913.295,992.92 911,994.5C 904.333,987.833 897.667,981.167 891,974.5C 890.333,973.833 890.333,973.167 891,972.5C 892.376,971.295 893.542,969.962 894.5,968.5 Z"/></g>
<g><path style="opacity:1" fill="#805fed" d="M 210.5,591.5 C 210.936,669.934 232.436,741.934 275,807.5C 349.593,914.894 452.426,972.561 583.5,980.5C 588.5,981.167 593.5,981.833 598.5,982.5C 564.666,1014.17 531.333,1046.33 498.5,1079C 526.128,1105.63 553.795,1132.29 581.5,1159C 587.059,1164.07 592.725,1168.9 598.5,1173.5C 593.695,1174.49 588.695,1174.82 583.5,1174.5C 437.808,1168.79 311.141,1117.29 203.5,1020C 81.6318,903.693 19.2985,760.859 16.5,591.5C 48.9373,558.233 81.104,524.9 113,491.5C 145.703,524.702 178.203,558.035 210.5,591.5 Z"/></g>
<g><path style="opacity:1" fill="#f9f7fd" d="M 344.5,979.5 C 357.052,978.559 363.218,984.226 363,996.5C 362.05,999.78 360.05,1002.11 357,1003.5C 352.545,1000.05 348.378,996.214 344.5,992C 343.004,991.493 341.837,991.993 341,993.5C 339.833,1000.84 343,1004.84 350.5,1005.5C 350.5,1007.5 350.5,1009.5 350.5,1011.5C 336.203,1009.06 331.37,1001.06 336,987.5C 338.157,984.024 340.99,981.357 344.5,979.5 Z"/></g>
<g><path style="opacity:1" fill="#f8f6fd" d="M 325.5,951.5 C 327.899,952.898 329.566,954.898 330.5,957.5C 328.24,963.852 325.574,970.018 322.5,976C 328.625,973.697 334.792,971.197 341,968.5C 343.524,969.178 345.691,970.512 347.5,972.5C 337.955,977.106 328.289,981.439 318.5,985.5C 316.052,984.886 314.385,983.386 313.5,981C 317.41,971.098 321.41,961.264 325.5,951.5 Z"/></g>
<g><path style="opacity:1" fill="#f8f7fd" d="M 299.5,935.5 C 314.928,935.413 320.762,942.747 317,957.5C 311.429,966.357 303.929,968.524 294.5,964C 284.026,952.496 285.693,942.996 299.5,935.5 Z"/></g>
<g><path style="opacity:1" fill="#8362ed" d="M 301.5,942.5 C 312.495,942.644 314.829,947.144 308.5,956C 302.22,961.48 297.554,960.48 294.5,953C 294.625,951.373 295.125,949.873 296,948.5C 298.04,946.63 299.873,944.63 301.5,942.5 Z"/></g>
<g><path style="opacity:1" fill="#f7f5fd" d="M 280.5,915.5 C 289.669,915.178 295.669,919.344 298.5,928C 298.331,930.167 297.164,931.334 295,931.5C 289.781,920.446 283.447,919.78 276,929.5C 273.584,936.296 276.084,940.296 283.5,941.5C 284.452,943.045 284.785,944.712 284.5,946.5C 274.743,946.308 269.077,941.475 267.5,932C 269.332,924.489 273.666,918.989 280.5,915.5 Z"/></g>
<g><path style="opacity:1" fill="#f7f5fd" d="M 262.5,896.5 C 271.001,896.586 276.334,900.753 278.5,909C 277.362,911.045 275.695,911.712 273.5,911C 272.438,906.1 269.438,903.6 264.5,903.5C 265.239,908.319 266.573,912.985 268.5,917.5C 266.823,924.308 262.49,926.808 255.5,925C 249.713,922.24 246.88,917.74 247,911.5C 247.725,910.941 248.558,910.608 249.5,910.5C 251.567,913.421 253.901,916.254 256.5,919C 258.112,919.72 259.612,919.554 261,918.5C 259.852,913.834 258.352,909.168 256.5,904.5C 257.401,900.942 259.401,898.275 262.5,896.5 Z"/></g>
<g><path style="opacity:1" fill="#f9f7fd" d="M 254.5,884.5 C 258.323,884.818 260.157,886.818 260,890.5C 253.28,897.564 246.447,904.064 239.5,910C 237.362,908.578 236.195,906.745 236,904.5C 242.005,897.663 248.171,890.996 254.5,884.5 Z"/></g>
<g><path style="opacity:1" fill="#f5f2fc" d="M 262.5,875.5 C 268.803,875.924 270.469,878.757 267.5,884C 259.208,884.89 257.542,882.057 262.5,875.5 Z"/></g>
<g><path style="opacity:1" fill="#faf8fd" d="M 232.5,845.5 C 240.193,850.695 246.36,857.362 251,865.5C 252.855,884.298 244.355,893.465 225.5,893C 217.161,888.832 210.161,882.999 204.5,875.5C 213.488,865.178 222.822,855.178 232.5,845.5 Z"/></g>
<g><path style="opacity:1" fill="#8262ed" d="M 233.5,856.5 C 244.576,861.327 247.076,868.994 241,879.5C 236.705,884.895 231.205,886.729 224.5,885C 220.995,882.325 217.661,879.491 214.5,876.5C 220.855,869.813 227.188,863.146 233.5,856.5 Z"/></g>
<g><path style="opacity:1" fill="#f9f7fd" d="M 186.5,826.5 C 194.914,825.02 201.081,828.02 205,835.5C 206.692,842.109 204.692,847.109 199,850.5C 194.545,847.048 190.378,843.214 186.5,839C 185.004,838.493 183.837,838.993 183,840.5C 181.833,847.841 185,851.841 192.5,852.5C 192.5,854.5 192.5,856.5 192.5,858.5C 180.936,856.774 175.436,850.107 176,838.5C 177.963,833.044 181.463,829.044 186.5,826.5 Z"/></g>
<g><path style="opacity:1" fill="#8262ed" d="M 190.5,832.5 C 197.169,832.648 199.836,835.815 198.5,842C 195.224,840.763 192.391,838.597 190,835.5C 189.53,834.423 189.697,833.423 190.5,832.5 Z"/></g>
<g><path style="opacity:1" fill="#f9f7fd" d="M 166.5,807.5 C 178.382,805.757 185.048,810.757 186.5,822.5C 184.801,822.66 183.134,822.494 181.5,822C 175.406,810.866 169.239,811.032 163,822.5C 161.903,828.744 164.57,832.078 171,832.5C 171.494,834.134 171.66,835.801 171.5,837.5C 160.054,836.888 154.887,830.888 156,819.5C 157.963,814.044 161.463,810.044 166.5,807.5 Z"/></g>
<g><path style="opacity:1" fill="#f8f7fd" d="M 161.5,792.5 C 164.532,793.999 166.032,796.332 166,799.5C 159.333,806.167 152.667,812.833 146,819.5C 143.243,817.796 141.91,815.462 142,812.5C 148.703,805.965 155.203,799.298 161.5,792.5 Z"/></g>
<g><path style="opacity:1" fill="#f6f4fc" d="M 167.5,784.5 C 173.989,784.156 175.989,786.99 173.5,793C 165.749,794.091 163.749,791.258 167.5,784.5 Z"/></g>
<g><path style="opacity:1" fill="#f9f7fd" d="M 123.5,756.5 C 125.43,757.763 127.097,759.43 128.5,761.5C 128.023,762.478 127.357,763.311 126.5,764C 133.662,764.803 138.996,768.469 142.5,775C 139.515,781.444 137.015,787.944 135,794.5C 140.861,791.236 146.861,788.236 153,785.5C 155.112,786.608 156.946,788.108 158.5,790C 148.885,795.481 138.885,799.814 128.5,803C 126.876,801.883 125.876,800.383 125.5,798.5C 128.936,789.01 132.436,779.677 136,770.5C 133.356,774.453 130.856,774.286 128.5,770C 126.167,769.333 123.833,769.333 121.5,770C 117.701,774.801 113.534,779.301 109,783.5C 107.167,781.667 105.333,779.833 103.5,778C 110.739,771.264 117.406,764.098 123.5,756.5 Z"/></g>
<g><path style="opacity:1" fill="#f8f6fd" d="M 97.5,739.5 C 110.398,738.896 116.232,744.896 115,757.5C 114.088,761.77 111.588,763.604 107.5,763C 103.652,758.984 99.6516,755.151 95.5,751.5C 91.7282,754.861 91.5615,758.528 95,762.5C 97.5428,764.105 100.209,765.438 103,766.5C 103.494,768.134 103.66,769.801 103.5,771.5C 95.1192,771.296 89.2859,767.296 86,759.5C 85.4196,750.331 89.253,743.664 97.5,739.5 Z"/></g>
<g><path style="opacity:1" fill="#8463ed" d="M 101.5,745.5 C 108.834,746.173 111.001,749.84 108,756.5C 105.333,753.833 102.667,751.167 100,748.5C 99.7613,747.212 100.261,746.212 101.5,745.5 Z"/></g>
<g><path style="opacity:1" fill="#f9f8fd" d="M 82.5,709.5 C 93.4599,707.974 100.46,712.474 103.5,723C 102.598,726.067 100.598,727.067 97.5,726C 96.0963,719.906 92.4296,716.906 86.5,717C 85.1059,717.956 84.4393,719.289 84.5,721C 85.5798,724.662 87.0798,728.162 89,731.5C 90.1654,744.328 84.3321,749.494 71.5,747C 64.5109,743.178 61.0109,737.345 61,729.5C 63.1385,728.231 65.3052,728.231 67.5,729.5C 68.3885,736.905 72.3885,740.405 79.5,740C 80.9436,738.874 81.6102,737.374 81.5,735.5C 78.8555,730.696 77.1888,725.529 76.5,720C 76.6667,718.5 76.8333,717 77,715.5C 79.0396,713.63 80.8729,711.63 82.5,709.5 Z"/></g>
<g><path style="opacity:1" fill="#d8cdf8" d="M 583.5,980.5 C 593.5,980.5 603.5,980.5 613.5,980.5C 608.602,981.213 603.602,981.879 598.5,982.5C 593.5,981.833 588.5,981.167 583.5,980.5 Z"/></g>
<g><path style="opacity:1" fill="#fbfafd" d="M 862.5,982.5 C 864.384,982.712 865.717,983.712 866.5,985.5C 862.516,989.273 862.683,992.94 867,996.5C 868.74,994.046 870.907,992.546 873.5,992C 876.005,994.573 875.505,996.74 872,998.5C 871.333,999.5 871.333,1000.5 872,1001.5C 877,1006.5 882,1011.5 887,1016.5C 886.628,1018.92 885.295,1020.92 883,1022.5C 877.5,1017 872,1011.5 866.5,1006C 864.3,1006.58 862.133,1006.42 860,1005.5C 859.667,1003.95 860.167,1002.62 861.5,1001.5C 855.894,994.682 856.227,988.349 862.5,982.5 Z"/></g>
<g><path style="opacity:1" fill="#8464ed" d="M 348.5,985.5 C 355.169,985.648 357.836,988.815 356.5,995C 355.833,995.667 355.167,995.667 354.5,995C 351.984,992.317 349.317,989.817 346.5,987.5C 347.243,986.818 347.909,986.151 348.5,985.5 Z"/></g>
<g><path style="opacity:1" fill="#f9f8fd" d="M 384.5,1009.5 C 382.871,1010.63 381.371,1011.96 380,1013.5C 377.398,1009.79 373.898,1008.62 369.5,1010C 365.318,1014.35 360.985,1018.52 356.5,1022.5C 354.663,1021.16 352.997,1019.66 351.5,1018C 357.956,1010.54 364.789,1003.38 372,996.5C 375.239,998.31 376.072,1000.81 374.5,1004C 376.833,1004.33 379.167,1004.67 381.5,1005C 383.141,1006.13 384.141,1007.63 384.5,1009.5 Z"/></g>
<g><path style="opacity:1" fill="#f9f8fd" d="M 384.5,1009.5 C 387.272,1010.44 389.272,1012.27 390.5,1015C 387.703,1021.06 385.537,1027.23 384,1033.5C 389.41,1030.3 395.076,1027.63 401,1025.5C 403.112,1026.61 404.946,1028.11 406.5,1030C 393.871,1035.9 381.038,1041.4 368,1046.5C 364.854,1046.02 363.187,1044.36 363,1041.5C 366.739,1039.86 370.573,1038.53 374.5,1037.5C 377.633,1028.1 380.966,1018.77 384.5,1009.5 Z"/></g>
<g><path style="opacity:1" fill="#fafafd" d="M 851.5,1011.5 C 855.463,1011.09 859.13,1011.92 862.5,1014C 867,1018.5 871.5,1023 876,1027.5C 876.163,1029.73 874.997,1031.06 872.5,1031.5C 871.833,1031.17 871.167,1030.83 870.5,1030.5C 868.994,1039.2 863.994,1043.03 855.5,1042C 852.085,1037.94 851.585,1033.44 854,1028.5C 855.643,1026.02 857.476,1023.69 859.5,1021.5C 857.918,1018.71 855.585,1017.54 852.5,1018C 849.591,1020.4 847.591,1023.4 846.5,1027C 845.207,1027.49 843.873,1027.66 842.5,1027.5C 842.395,1020.37 845.395,1015.04 851.5,1011.5 Z"/></g>
<g><path style="opacity:1" fill="#b3a0f6" d="M 862.5,1024.5 C 866.822,1026.49 867.655,1029.49 865,1033.5C 862.105,1037.63 859.605,1037.47 857.5,1033C 858.541,1029.74 860.208,1026.91 862.5,1024.5 Z"/></g>
<g><path style="opacity:1" fill="#fafafd" d="M 835.5,1026.5 C 836.552,1026.35 837.552,1026.52 838.5,1027C 839.257,1028.51 840.257,1029.85 841.5,1031C 840,1032.5 838.5,1034 837,1035.5C 836.365,1037.64 836.699,1039.64 838,1041.5C 842.349,1045.68 846.515,1050.01 850.5,1054.5C 849.167,1056.5 847.5,1058.17 845.5,1059.5C 838.833,1052.5 832.167,1045.5 825.5,1038.5C 827.037,1034.68 829.204,1034.02 832,1036.5C 831.848,1032.59 833.015,1029.26 835.5,1026.5 Z"/></g>
<g><path style="opacity:1" fill="#fafafd" d="M 811.5,1033.5 C 814.127,1033.29 815.793,1034.46 816.5,1037C 814.72,1039.78 812.553,1042.28 810,1044.5C 809.333,1045.5 809.333,1046.5 810,1047.5C 817.667,1055.17 825.333,1062.83 833,1070.5C 832.599,1073.1 831.099,1075.1 828.5,1076.5C 820.348,1068.85 812.348,1061.01 804.5,1053C 803.5,1052.33 802.5,1052.33 801.5,1053C 799,1055.5 796.5,1058 794,1060.5C 792.5,1059 791,1057.5 789.5,1056C 797.036,1048.63 804.369,1041.13 811.5,1033.5 Z"/></g>
<g><path style="opacity:1" fill="#d4c9f8" d="M 598.5,1173.5 C 603.07,1174.44 607.737,1174.77 612.5,1174.5C 602.833,1175.83 593.167,1175.83 583.5,1174.5C 588.695,1174.82 593.695,1174.49 598.5,1173.5 Z"/></g>
</svg>
