<svg width="633" height="401" viewBox="0 0 633 401" fill="none" xmlns="http://www.w3.org/2000/svg">
<g opacity="0.4">
<path d="M0 200.523L28.75 214.83L57.5 229.136V200.523V171.864L28.75 186.17L0 200.523Z" fill="#EBF6F3"/>
<path d="M0 257.796L28.75 272.102L57.5 286.455V257.796V229.136L28.75 243.489L0 257.796Z" fill="#437DBF"/>
<path d="M57.5 171.864L28.75 186.17L0 200.523V171.864V143.204L28.75 157.557L57.5 171.864Z" fill="#6AC399"/>
<path d="M115 85.9319L86.25 100.238L57.5 114.592V85.9319V57.2723L86.25 71.6256L115 85.9319Z" fill="#6AC399"/>
<path d="M115 143.204L86.25 157.558L57.5 171.864V143.204V114.592L86.25 128.898L115 143.204Z" fill="#437DBF"/>
<path d="M115 200.523L86.25 214.83L57.5 229.136V200.523V171.864L86.25 186.17L115 200.523Z" fill="#6AC399"/>
<path d="M115 257.796L86.25 272.102L57.5 286.455V257.796V229.136L86.25 243.489L115 257.796Z" fill="#57B3DA"/>
<path d="M115 315.068L86.25 329.421L57.5 343.728V315.068V286.455L86.25 300.762L115 315.068Z" fill="#EBF6F3"/>
<path d="M57.5 57.2723L86.25 71.6256L115 85.9319V57.2723V28.6596L86.25 42.966L57.5 57.2723Z" fill="#437DBF"/>
<path d="M57.5 114.592L86.25 128.898L115 143.204V114.592V85.9319L86.25 100.238L57.5 114.592Z" fill="#4166AE"/>
<path d="M57.5 171.864L86.25 186.17L115 200.523V171.864V143.204L86.25 157.557L57.5 171.864Z" fill="#1C4F9D"/>
<path d="M57.5 229.136L86.25 243.489L115 257.796V229.136V200.523L86.25 214.83L57.5 229.136Z" fill="#437DBF"/>
<path d="M57.5 286.455L86.25 300.762L115 315.068V286.455V257.796L86.25 272.102L57.5 286.455Z" fill="#437DBF"/>
<path d="M115 143.204L143.75 157.558L172.5 171.864V143.204V114.592L143.75 128.898L115 143.204Z" fill="#437DBF"/>
<path d="M115 200.523L143.75 214.83L172.5 229.136V200.523V171.864L143.75 186.17L115 200.523Z" fill="#4166AE"/>
<path d="M115 257.796L143.75 272.102L172.5 286.455V257.796V229.136L143.75 243.489L115 257.796Z" fill="#437DBF"/>
<path d="M115 315.068L143.75 329.421L172.5 343.728V315.068V286.455L143.75 300.762L115 315.068Z" fill="#437DBF"/>
<path d="M172.5 57.2723L143.75 71.6256L115 85.9319V57.2723V28.6596L143.75 42.966L172.5 57.2723Z" fill="#4166AE"/>
<path d="M172.5 114.592L143.75 128.898L115 143.204V114.592V85.9319L143.75 100.238L172.5 114.592Z" fill="#1C4F9D"/>
<path d="M172.5 171.864L143.75 186.17L115 200.523V171.864V143.204L143.75 157.557L172.5 171.864Z" fill="#EBF6F3"/>
<path d="M172.5 229.136L143.75 243.489L115 257.796V229.136V200.523L143.75 214.83L172.5 229.136Z" fill="#1C4F9D"/>
<path d="M172.5 286.455L143.75 300.762L115 315.068V286.455V257.796L143.75 272.102L172.5 286.455Z" fill="#6AC399"/>
<path d="M230 28.6596L201.25 42.966L172.5 57.2723V28.6596V0L201.25 14.3064L230 28.6596Z" fill="#1C4F9D"/>
<path d="M230 85.9319L201.25 100.238L172.5 114.592V85.9319V57.2723L201.25 71.6256L230 85.9319Z" fill="#437DBF"/>
<path d="M230 143.204L201.25 157.558L172.5 171.864V143.204V114.592L201.25 128.898L230 143.204Z" fill="#4166AE"/>
<path d="M230 200.523L201.25 214.83L172.5 229.136V200.523V171.864L201.25 186.17L230 200.523Z" fill="#57B3DA"/>
<path d="M230 257.796L201.25 272.102L172.5 286.455V257.796V229.136L201.25 243.489L230 257.796Z" fill="#4166AE"/>
<path d="M230 315.068L201.25 329.421L172.5 343.728V315.068V286.455L201.25 300.762L230 315.068Z" fill="#1C4F9D"/>
<path d="M230 372.387L201.25 386.694L172.5 401V372.387V343.728L201.25 358.034L230 372.387Z" fill="#437DBF"/>
<path d="M172.5 57.2723L201.25 71.6256L230 85.9319V57.2723V28.6596L201.25 42.966L172.5 57.2723Z" fill="#4166AE"/>
<path d="M172.5 114.592L201.25 128.898L230 143.204V114.592V85.9319L201.25 100.238L172.5 114.592Z" fill="#57B3DA"/>
<path d="M172.5 171.864L201.25 186.17L230 200.523V171.864V143.204L201.25 157.557L172.5 171.864Z" fill="#437DBF"/>
<path d="M172.5 229.136L201.25 243.489L230 257.796V229.136V200.523L201.25 214.83L172.5 229.136Z" fill="#437DBF"/>
<path d="M172.5 286.455L201.25 300.762L230 315.068V286.455V257.796L201.25 272.102L172.5 286.455Z" fill="#EBF6F3"/>
<path d="M230 85.9319L258.75 100.238L287.5 114.592V85.9319V57.2723L258.75 71.6256L230 85.9319Z" fill="#4166AE"/>
<path d="M230 143.204L258.75 157.558L287.5 171.864V143.204V114.592L258.75 128.898L230 143.204Z" fill="#1C4F9D"/>
<path d="M230 200.523L258.75 214.83L287.5 229.136V200.523V171.864L258.75 186.17L230 200.523Z" fill="#437DBF"/>
<path d="M230 257.796L258.75 272.102L287.5 286.455V257.796V229.136L258.75 243.489L230 257.796Z" fill="#1C4F9D"/>
<path d="M230 315.068L258.75 329.421L287.5 343.728V315.068V286.455L258.75 300.762L230 315.068Z" fill="#EBF6F3"/>
<path d="M287.5 114.592L258.75 128.898L230 143.204V114.592V85.9319L258.75 100.238L287.5 114.592Z" fill="#437DBF"/>
<path d="M287.5 171.864L258.75 186.17L230 200.523V171.864V143.204L258.75 157.557L287.5 171.864Z" fill="#6AC399"/>
<path d="M287.5 229.136L258.75 243.489L230 257.796V229.136V200.523L258.75 214.83L287.5 229.136Z" fill="#EBF6F3"/>
<path d="M287.5 286.455L258.75 300.762L230 315.068V286.455V257.796L258.75 272.102L287.5 286.455Z" fill="#4166AE"/>
<path d="M345 143.204L316.25 157.558L287.5 171.864V143.204V114.592L316.25 128.898L345 143.204Z" fill="#437DBF"/>
<path d="M345 200.523L316.25 214.83L287.5 229.136V200.523V171.864L316.25 186.17L345 200.523Z" fill="#57B3DA"/>
<path d="M345 257.796L316.25 272.102L287.5 286.455V257.796V229.136L316.25 243.489L345 257.796Z" fill="#437DBF"/>
<path d="M287.5 57.2723L316.25 71.6256L345 85.9319V57.2723V28.6596L316.25 42.966L287.5 57.2723Z" fill="#437DBF"/>
<path d="M287.5 114.592L316.25 128.898L345 143.204V114.592V85.9319L316.25 100.238L287.5 114.592Z" fill="#6AC399"/>
<path d="M287.5 171.864L316.25 186.17L345 200.523V171.864V143.204L316.25 157.557L287.5 171.864Z" fill="#1C4F9D"/>
<path d="M287.5 229.136L316.25 243.489L345 257.796V229.136V200.523L316.25 214.83L287.5 229.136Z" fill="#4166AE"/>
<path d="M287.5 286.455L316.25 300.762L345 315.068V286.455V257.796L316.25 272.102L287.5 286.455Z" fill="#57B3DA"/>
<path d="M345 28.6596L373.75 42.966L402.5 57.2723V28.6596V0L373.75 14.3064L345 28.6596Z" fill="#57B3DA"/>
<path d="M345 85.9319L373.75 100.238L402.5 114.592V85.9319V57.2723L373.75 71.6256L345 85.9319Z" fill="#437DBF"/>
<path d="M345 143.204L373.75 157.558L402.5 171.864V143.204V114.592L373.75 128.898L345 143.204Z" fill="#1C4F9D"/>
<path d="M345 200.523L373.75 214.83L402.5 229.136V200.523V171.864L373.75 186.17L345 200.523Z" fill="#4166AE"/>
<path d="M345 257.796L373.75 272.102L402.5 286.455V257.796V229.136L373.75 243.489L345 257.796Z" fill="#6AC399"/>
<path d="M345 315.068L373.75 329.421L402.5 343.728V315.068V286.455L373.75 300.762L345 315.068Z" fill="#EBF6F3"/>
<path d="M402.5 57.2723L373.75 71.6256L345 85.9319V57.2723V28.6596L373.75 42.966L402.5 57.2723Z" fill="#1C4F9D"/>
<path d="M402.5 114.592L373.75 128.898L345 143.204V114.592V85.9319L373.75 100.238L402.5 114.592Z" fill="#4166AE"/>
<path d="M402.5 171.864L373.75 186.17L345 200.523V171.864V143.204L373.75 157.557L402.5 171.864Z" fill="#437DBF"/>
<path d="M402.5 229.136L373.75 243.489L345 257.796V229.136V200.523L373.75 214.83L402.5 229.136Z" fill="#437DBF"/>
<path d="M402.5 286.455L373.75 300.762L345 315.068V286.455V257.796L373.75 272.102L402.5 286.455Z" fill="#4166AE"/>
<path d="M460 85.9319L431.25 100.238L402.5 114.592V85.9319V57.2723L431.25 71.6256L460 85.9319Z" fill="#57B3DA"/>
<path d="M460 143.204L431.25 157.558L402.5 171.864V143.204V114.592L431.25 128.898L460 143.204Z" fill="#437DBF"/>
<path d="M460 200.523L431.25 214.83L402.5 229.136V200.523V171.864L431.25 186.17L460 200.523Z" fill="#EBF6F3"/>
<path d="M460 257.796L431.25 272.102L402.5 286.455V257.796V229.136L431.25 243.489L460 257.796Z" fill="#EBF6F3"/>
<path d="M460 315.068L431.25 329.421L402.5 343.728V315.068V286.455L431.25 300.762L460 315.068Z" fill="#437DBF"/>
<path d="M402.5 57.2723L431.25 71.6256L460 85.9319V57.2723V28.6596L431.25 42.966L402.5 57.2723Z" fill="#6AC399"/>
<path d="M402.5 114.592L431.25 128.898L460 143.204V114.592V85.9319L431.25 100.238L402.5 114.592Z" fill="#4166AE"/>
<path d="M402.5 171.864L431.25 186.17L460 200.523V171.864V143.204L431.25 157.557L402.5 171.864Z" fill="#6AC399"/>
<path d="M402.5 229.136L431.25 243.489L460 257.796V229.136V200.523L431.25 214.83L402.5 229.136Z" fill="#1C4F9D"/>
<path d="M402.5 286.455L431.25 300.762L460 315.068V286.455V257.796L431.25 272.102L402.5 286.455Z" fill="#4166AE"/>
<path d="M460 85.9319L488.75 100.238L517.5 114.592V85.9319V57.2723L488.75 71.6256L460 85.9319Z" fill="#57B3DA"/>
<path d="M460 143.204L488.75 157.558L517.5 171.864V143.204V114.592L488.75 128.898L460 143.204Z" fill="#4166AE"/>
<path d="M460 315.068L488.75 329.421L517.5 343.728V315.068V286.455L488.75 300.762L460 315.068Z" fill="#437DBF"/>
<path opacity="0.4" d="M460 372.387L488.75 386.694L517.5 401V372.387V343.728L488.75 358.034L460 372.387Z" fill="white"/>
<path d="M517.5 114.592L488.75 128.898L460 143.204V114.592V85.9319L488.75 100.238L517.5 114.592Z" fill="#437DBF"/>
<path d="M517.5 171.864L488.75 186.17L460 200.523V171.864V143.204L488.75 157.557L517.5 171.864Z" fill="#1C4F9D"/>
<path d="M517.5 229.136L488.75 243.489L460 257.796V229.136V200.523L488.75 214.83L517.5 229.136Z" fill="#437DBF"/>
<path d="M517.5 286.455L488.75 300.762L460 315.068V286.455V257.796L488.75 272.102L517.5 286.455Z" fill="#57B3DA"/>
<path d="M575 28.6596L546.25 42.966L517.5 57.2723V28.6596V0L546.25 14.3064L575 28.6596Z" fill="#437DBF"/>
<path d="M575 143.204L546.25 157.558L517.5 171.864V143.204V114.592L546.25 128.898L575 143.204Z" fill="#437DBF"/>
<path d="M575 257.796L546.25 272.102L517.5 286.455V257.796V229.136L546.25 243.489L575 257.796Z" fill="#437DBF"/>
<path d="M517.5 114.592L546.25 128.898L575 143.204V114.592V85.9319L546.25 100.238L517.5 114.592Z" fill="#6AC399"/>
<path d="M517.5 286.455L546.25 300.762L575 315.068V286.455V257.796L546.25 272.102L517.5 286.455Z" fill="#6AC399"/>
<path d="M575 85.4709L603.75 99.8242L632.5 114.131V85.4709V56.8582L603.75 71.1646L575 85.4709Z" fill="#4166AE"/>
<path opacity="0.4" d="M632.5 343.827L603.75 358.18L575 372.486V343.827V315.214L603.75 329.52L632.5 343.827Z" fill="#EBF6F3"/>
</g>
</svg>
