<?xml version="1.0" encoding="UTF-8"?>
<svg width="99px" height="39px" viewBox="0 0 99 39" version="1.1" xmlns="http://www.w3.org/2000/svg" xmlns:xlink="http://www.w3.org/1999/xlink">
    <!-- Generator: Sketch 49.3 (51167) - http://www.bohemiancoding.com/sketch -->
    <title>Group 21 Copy 3</title>
    <desc>Created with Sketch.</desc>
    <defs></defs>
    <g id="dubbo定稿" stroke="none" stroke-width="1" fill="none" fill-rule="evenodd">
        <g id="首页方案1-copy-4" transform="translate(-947.000000, -228.000000)" fill="#FFFFFF">
            <g id="banner">
                <g id="Group-21-Copy-3" transform="translate(947.000000, 228.000000)">
                    <path d="M11.6470588,32 L3.222895,38.5095811 C2.34886572,39.1849674 1.09281626,39.0239354 0.417429997,38.1499061 C0.14680916,37.7996909 -7.10542736e-15,37.3696016 -7.10542736e-15,36.9270111 L-5.65420185e-15,28 L0,4 C-2.705415e-16,1.790861 1.790861,4.05812251e-16 4,0 L95,0 C97.209139,-4.05812251e-16 99,1.790861 99,4 L99,28 C99,30.209139 97.209139,32 95,32 L11.6470588,32 Z" id="Combined-Shape" opacity="0.3"></path>
                    <path d="M11.284,9.672 L13.3,9.672 L13.3,21 L11.284,21 L11.284,9.672 Z M15.604,13.32 L17.428,13.32 L17.428,14.552 L17.46,14.552 C17.6413342,14.1679981 17.9186648,13.8346681 18.292,13.552 C18.6653352,13.2693319 19.1719968,13.128 19.812,13.128 C20.3240026,13.128 20.7586649,13.2133325 21.116,13.384 C21.4733351,13.5546675 21.7639989,13.7786653 21.988,14.056 C22.2120011,14.3333347 22.3719995,14.6533315 22.468,15.016 C22.5640005,15.3786685 22.612,15.7573314 22.612,16.152 L22.612,21 L20.692,21 L20.692,17.112 C20.692,16.8986656 20.6813334,16.6613346 20.66,16.4 C20.6386666,16.1386654 20.5826671,15.8933345 20.492,15.664 C20.4013329,15.4346655 20.260001,15.2426674 20.068,15.088 C19.875999,14.9333326 19.6146683,14.856 19.284,14.856 C18.9639984,14.856 18.6946678,14.9093328 18.476,15.016 C18.2573322,15.1226672 18.0760007,15.2666658 17.932,15.448 C17.7879993,15.6293342 17.6840003,15.8373322 17.62,16.072 C17.5559997,16.3066678 17.524,16.5519987 17.524,16.808 L17.524,21 L15.604,21 L15.604,13.32 Z M30.036,15.624 C29.8119989,15.3893322 29.5773346,15.2026674 29.332,15.064 C29.0866654,14.9253326 28.8360013,14.856 28.58,14.856 C28.2279982,14.856 27.9133347,14.9199994 27.636,15.048 C27.3586653,15.1760006 27.1213343,15.3466656 26.924,15.56 C26.7266657,15.7733344 26.5773338,16.0186653 26.476,16.296 C26.3746662,16.5733347 26.324,16.8613318 26.324,17.16 C26.324,17.4586682 26.3746662,17.7466653 26.476,18.024 C26.5773338,18.3013347 26.7266657,18.5466656 26.924,18.76 C27.1213343,18.9733344 27.3586653,19.1439994 27.636,19.272 C27.9133347,19.4000006 28.2279982,19.464 28.58,19.464 C28.8786682,19.464 29.1559987,19.4026673 29.412,19.28 C29.6680013,19.1573327 29.8866658,18.9786678 30.068,18.744 L31.348,20.12 C31.155999,20.312001 30.9346679,20.4773326 30.684,20.616 C30.4333321,20.7546674 30.1800013,20.8666662 29.924,20.952 C29.6679987,21.0373338 29.4226678,21.0986665 29.188,21.136 C28.9533322,21.1733335 28.7506675,21.192 28.58,21.192 C28.0039971,21.192 27.4600026,21.096001 26.948,20.904 C26.4359974,20.711999 25.9933352,20.4400018 25.62,20.088 C25.2466648,19.7359982 24.9506678,19.3120025 24.732,18.816 C24.5133322,18.3199975 24.404,17.768003 24.404,17.16 C24.404,16.551997 24.5133322,16.0000025 24.732,15.504 C24.9506678,15.0079975 25.2466648,14.5840018 25.62,14.232 C25.9933352,13.8799982 26.4359974,13.608001 26.948,13.416 C27.4600026,13.223999 28.0039971,13.128 28.58,13.128 C29.0706691,13.128 29.5639975,13.2213324 30.06,13.408 C30.5560025,13.5946676 30.9906648,13.8906646 31.364,14.296 L30.036,15.624 Z M39.508,21 L37.684,21 L37.684,19.768 L37.652,19.768 C37.4706658,20.1520019 37.1933352,20.4853319 36.82,20.768 C36.4466648,21.0506681 35.9400032,21.192 35.3,21.192 C34.7879974,21.192 34.3533351,21.1093342 33.996,20.944 C33.6386649,20.7786658 33.3480011,20.5546681 33.124,20.272 C32.8999989,19.9893319 32.7400005,19.6666685 32.644,19.304 C32.5479995,18.9413315 32.5,18.5626686 32.5,18.168 L32.5,13.32 L34.42,13.32 L34.42,17.208 C34.42,17.4213344 34.4306666,17.6586654 34.452,17.92 C34.4733334,18.1813346 34.5293329,18.4266655 34.62,18.656 C34.7106671,18.8853345 34.8493324,19.0773326 35.036,19.232 C35.2226676,19.3866674 35.486665,19.464 35.828,19.464 C36.1480016,19.464 36.4173322,19.4106672 36.636,19.304 C36.8546678,19.1973328 37.0359993,19.0533342 37.18,18.872 C37.3240007,18.6906658 37.4279997,18.4826678 37.492,18.248 C37.5560003,18.0133322 37.588,17.7680013 37.588,17.512 L37.588,13.32 L39.508,13.32 L39.508,21 Z M41.684,8.904 L43.604,8.904 L43.604,14.296 L43.652,14.296 C43.7480005,14.1679994 43.8706659,14.037334 44.02,13.904 C44.1693341,13.770666 44.3506656,13.6453339 44.564,13.528 C44.7773344,13.4106661 45.0226653,13.314667 45.3,13.24 C45.5773347,13.165333 45.8973315,13.128 46.26,13.128 C46.8040027,13.128 47.305331,13.231999 47.764,13.44 C48.222669,13.648001 48.614665,13.9333315 48.94,14.296 C49.265335,14.6586685 49.5186658,15.0853309 49.7,15.576 C49.8813342,16.0666691 49.972,16.5946638 49.972,17.16 C49.972,17.7253362 49.8866675,18.2533309 49.716,18.744 C49.5453325,19.2346691 49.2946683,19.6613315 48.964,20.024 C48.6333317,20.3866685 48.2333357,20.671999 47.764,20.88 C47.2946643,21.088001 46.7666696,21.192 46.18,21.192 C45.6359973,21.192 45.1293357,21.0853344 44.66,20.872 C44.1906643,20.6586656 43.8173347,20.3173357 43.54,19.848 L43.508,19.848 L43.508,21 L41.684,21 L41.684,8.904 Z M48.052,17.16 C48.052,16.8613318 48.0013338,16.5733347 47.9,16.296 C47.7986662,16.0186653 47.6493343,15.7733344 47.452,15.56 C47.2546657,15.3466656 47.0173347,15.1760006 46.74,15.048 C46.4626653,14.9199994 46.1480018,14.856 45.796,14.856 C45.4439982,14.856 45.1293347,14.9199994 44.852,15.048 C44.5746653,15.1760006 44.3373343,15.3466656 44.14,15.56 C43.9426657,15.7733344 43.7933338,16.0186653 43.692,16.296 C43.5906662,16.5733347 43.54,16.8613318 43.54,17.16 C43.54,17.4586682 43.5906662,17.7466653 43.692,18.024 C43.7933338,18.3013347 43.9426657,18.5466656 44.14,18.76 C44.3373343,18.9733344 44.5746653,19.1439994 44.852,19.272 C45.1293347,19.4000006 45.4439982,19.464 45.796,19.464 C46.1480018,19.464 46.4626653,19.4000006 46.74,19.272 C47.0173347,19.1439994 47.2546657,18.9733344 47.452,18.76 C47.6493343,18.5466656 47.7986662,18.3013347 47.9,18.024 C48.0013338,17.7466653 48.052,17.4586682 48.052,17.16 Z M56.564,19.944 L56.516,19.944 C56.2386653,20.3813355 55.8866688,20.6986657 55.46,20.896 C55.0333312,21.0933343 54.5640026,21.192 54.052,21.192 C53.6999982,21.192 53.3560017,21.1440005 53.02,21.048 C52.6839983,20.9519995 52.3853346,20.808001 52.124,20.616 C51.8626654,20.423999 51.6520008,20.1840014 51.492,19.896 C51.3319992,19.6079986 51.252,19.2720019 51.252,18.888 C51.252,18.4719979 51.3266659,18.1173348 51.476,17.824 C51.6253341,17.5306652 51.8253321,17.2853343 52.076,17.088 C52.3266679,16.8906657 52.6173317,16.7333339 52.948,16.616 C53.2786683,16.4986661 53.6226649,16.410667 53.98,16.352 C54.3373351,16.293333 54.6973315,16.2560001 55.06,16.24 C55.4226685,16.2239999 55.7639984,16.216 56.084,16.216 L56.564,16.216 L56.564,16.008 C56.564,15.5279976 56.3986683,15.1680012 56.068,14.928 C55.7373317,14.6879988 55.3160026,14.568 54.804,14.568 C54.3986646,14.568 54.0200018,14.6399993 53.668,14.784 C53.3159982,14.9280007 53.0120013,15.1226654 52.756,15.368 L51.748,14.36 C52.1746688,13.9226645 52.6733305,13.608001 53.244,13.416 C53.8146695,13.223999 54.403997,13.128 55.012,13.128 C55.5560027,13.128 56.0146648,13.1893327 56.388,13.312 C56.7613352,13.4346673 57.0706654,13.591999 57.316,13.784 C57.5613346,13.976001 57.750666,14.1973321 57.884,14.448 C58.017334,14.6986679 58.113333,14.9519987 58.172,15.208 C58.230667,15.4640013 58.2653333,15.7119988 58.276,15.952 C58.2866667,16.1920012 58.292,16.4026658 58.292,16.584 L58.292,21 L56.564,21 L56.564,19.944 Z M56.452,17.56 L56.052,17.56 C55.785332,17.56 55.4866683,17.5706666 55.156,17.592 C54.8253317,17.6133334 54.5133348,17.6639996 54.22,17.744 C53.9266652,17.8240004 53.6786677,17.9413326 53.476,18.096 C53.2733323,18.2506674 53.172,18.4666653 53.172,18.744 C53.172,18.9253342 53.2119996,19.0773327 53.292,19.2 C53.3720004,19.3226673 53.4759994,19.4266662 53.604,19.512 C53.7320006,19.5973338 53.8759992,19.6586665 54.036,19.696 C54.1960008,19.7333335 54.3559992,19.752 54.516,19.752 C55.1773366,19.752 55.6653318,19.5946682 55.98,19.28 C56.2946682,18.9653318 56.452,18.5360027 56.452,17.992 L56.452,17.56 Z M59.46,14.952 L59.46,13.32 L61.044,13.32 L61.044,11.096 L62.964,11.096 L62.964,13.32 L65.076,13.32 L65.076,14.952 L62.964,14.952 L62.964,18.312 C62.964,18.6960019 63.0359993,18.9999989 63.18,19.224 C63.3240007,19.4480011 63.6093312,19.56 64.036,19.56 C64.2066675,19.56 64.3933323,19.5413335 64.596,19.504 C64.7986677,19.4666665 64.9586661,19.4053338 65.076,19.32 L65.076,20.936 C64.8733323,21.0320005 64.6253348,21.0986665 64.332,21.136 C64.0386652,21.1733335 63.7800011,21.192 63.556,21.192 C63.0439974,21.192 62.625335,21.1360006 62.3,21.024 C61.974665,20.9119994 61.7186676,20.7413345 61.532,20.512 C61.3453324,20.2826655 61.2173337,19.997335 61.148,19.656 C61.0786663,19.314665 61.044,18.9200022 61.044,18.472 L61.044,14.952 L59.46,14.952 Z M66.628,13.32 L68.548,13.32 L68.548,21 L66.628,21 L66.628,13.32 Z M66.356,10.712 C66.356,10.4026651 66.4706655,10.1333345 66.7,9.904 C66.9293345,9.67466552 67.2199982,9.56 67.572,9.56 C67.9240018,9.56 68.2199988,9.66933224 68.46,9.888 C68.7000012,10.1066678 68.82,10.3813317 68.82,10.712 C68.82,11.0426683 68.7000012,11.3173322 68.46,11.536 C68.2199988,11.7546678 67.9240018,11.864 67.572,11.864 C67.2199982,11.864 66.9293345,11.7493345 66.7,11.52 C66.4706655,11.2906655 66.356,11.0213349 66.356,10.712 Z M70.756,13.32 L72.58,13.32 L72.58,14.552 L72.612,14.552 C72.7933342,14.1679981 73.0706648,13.8346681 73.444,13.552 C73.8173352,13.2693319 74.3239968,13.128 74.964,13.128 C75.4760026,13.128 75.9106649,13.2133325 76.268,13.384 C76.6253351,13.5546675 76.9159989,13.7786653 77.14,14.056 C77.3640011,14.3333347 77.5239995,14.6533315 77.62,15.016 C77.7160005,15.3786685 77.764,15.7573314 77.764,16.152 L77.764,21 L75.844,21 L75.844,17.112 C75.844,16.8986656 75.8333334,16.6613346 75.812,16.4 C75.7906666,16.1386654 75.7346671,15.8933345 75.644,15.664 C75.5533329,15.4346655 75.412001,15.2426674 75.22,15.088 C75.027999,14.9333326 74.7666683,14.856 74.436,14.856 C74.1159984,14.856 73.8466678,14.9093328 73.628,15.016 C73.4093322,15.1226672 73.2280007,15.2666658 73.084,15.448 C72.9399993,15.6293342 72.8360003,15.8373322 72.772,16.072 C72.7079997,16.3066678 72.676,16.5519987 72.676,16.808 L72.676,21 L70.756,21 L70.756,13.32 Z M87.844,13.32 L87.844,20.312 C87.844,21.0053368 87.7586675,21.6319972 87.588,22.192 C87.4173325,22.7520028 87.1533351,23.2266647 86.796,23.616 C86.4386649,24.0053353 85.9880027,24.3066656 85.444,24.52 C84.8999973,24.7333344 84.2546704,24.84 83.508,24.84 C82.7933298,24.84 82.1160032,24.7493342 81.476,24.568 C80.8359968,24.3866658 80.2440027,24.0560024 79.7,23.576 L80.852,22.008 C81.2360019,22.3600018 81.6359979,22.631999 82.052,22.824 C82.4680021,23.016001 82.9479973,23.112 83.492,23.112 C83.950669,23.112 84.3373318,23.0480006 84.652,22.92 C84.9666682,22.7919994 85.2173324,22.6160011 85.404,22.392 C85.5906676,22.1679989 85.7239996,21.8986682 85.804,21.584 C85.8840004,21.2693318 85.924,20.9200019 85.924,20.536 L85.924,19.976 L85.892,19.976 C85.6146653,20.3493352 85.246669,20.6293324 84.788,20.816 C84.329331,21.0026676 83.8600024,21.096 83.38,21.096 C82.8039971,21.096 82.2813357,20.992001 81.812,20.784 C81.3426643,20.575999 80.9400017,20.2960018 80.604,19.944 C80.2679983,19.5919982 80.0093342,19.1760024 79.828,18.696 C79.6466658,18.2159976 79.556,17.7040027 79.556,17.16 C79.556,16.5946638 79.6413325,16.0666691 79.812,15.576 C79.9826675,15.0853309 80.2333317,14.6586685 80.564,14.296 C80.8946683,13.9333315 81.2919977,13.648001 81.756,13.44 C82.2200023,13.231999 82.7506637,13.128 83.348,13.128 C83.8920027,13.128 84.3986643,13.2346656 84.868,13.448 C85.3373357,13.6613344 85.7106653,14.0026643 85.988,14.472 L86.02,14.472 L86.02,13.32 L87.844,13.32 Z M83.748,14.856 C83.406665,14.856 83.0973347,14.9119994 82.82,15.024 C82.5426653,15.1360006 82.3053343,15.2906657 82.108,15.488 C81.9106657,15.6853343 81.7560006,15.9253319 81.644,16.208 C81.5319994,16.4906681 81.476,16.802665 81.476,17.144 C81.476,17.4533349 81.5319994,17.741332 81.644,18.008 C81.7560006,18.274668 81.9133323,18.5093323 82.116,18.712 C82.3186677,18.9146677 82.5586653,19.0746661 82.836,19.192 C83.1133347,19.3093339 83.4119984,19.368 83.732,19.368 C84.0840018,19.368 84.4013319,19.3093339 84.684,19.192 C84.9666681,19.0746661 85.2066657,18.9173343 85.404,18.72 C85.6013343,18.5226657 85.7533328,18.2853347 85.86,18.008 C85.9666672,17.7306653 86.02,17.4320016 86.02,17.112 C86.02,16.4399966 85.8173354,15.8960021 85.412,15.48 C85.0066646,15.0639979 84.4520035,14.856 83.748,14.856 Z" id="Incubating"></path>
                </g>
            </g>
        </g>
    </g>
</svg>